<svg xmlns="http://www.w3.org/2000/svg" xmlns:xlink="http://www.w3.org/1999/xlink" width="1440" height="775" viewBox="0 0 1440 775">
    <defs>
        <linearGradient id="b" x1="0%" y1="0%" y2="100%">
            <stop offset="0%" stop-color="#E2E5E8"/>
            <stop offset="100%" stop-color="#D0D8DC"/>
        </linearGradient>
        <path id="a" d="M0 0h1440v775H0z"/>
    </defs>
    <g fill="none" fill-rule="evenodd">
        <use fill="url(#b)" xlink:href="#a"/>
        <path fill="#FFF" fill-opacity=".75" d="M0 0h1440v775H0z"/>
        <path d="M0 0h1440v775H0z"/>
        <g stroke="#EDF0F1" stroke-width="2">
            <path d="M953.94 623.15c-16.053 10.692-33.773 17.343-53.15 19.952-19.39 2.612-39.576 1.809-60.552-2.406-20.98-4.224-41.351-11.16-61.081-20.814-18.21-8.91-34.608-19.371-49.191-31.39-14.58-12.008-26.844-24.932-36.766-38.774-9.928-13.83-17.149-28.382-21.663-43.674-4.513-15.276-5.81-30.653-3.892-46.109l97.958 20.416c-1.533 13.691 1.634 27.142 9.52 40.376 7.872 13.22 19.785 23.734 35.718 31.53 16.31 7.98 32.454 10.807 48.417 8.472 15.965-2.342 27.87-11.537 35.73-27.602 4.774-9.755 6.312-19.156 4.614-28.18-1.694-9.03-5.475-17.414-11.32-25.157-5.857-7.74-13.34-14.816-22.423-21.221a209.606 209.606 0 0 0-28.45-16.842c-14.419-7.056-31.488-13.741-51.197-20.075-19.728-6.334-37.872-10.822-54.44-13.467l103.28-186.57L1082.1 342.503l-33.283 68.018-162.232-79.383-29.297 51.232c6.67 1.716 13.843 4.146 21.47 7.29 7.635 3.149 14.482 6.205 20.556 9.178 20.116 9.843 38 21.333 53.683 34.469 15.68 13.142 27.876 27.398 36.58 42.772 8.69 15.382 13.594 31.54 14.725 48.488 1.11 16.93-2.642 34.218-11.27 51.852-10.017 20.471-23.048 36.054-39.094 46.733zm-348.4-241.905l-70.36-34.428 143.727-120.064-.22 5.005-73.147 149.487zM676.42 77.45L231.154 414.309l141.7 69.336 82.62-68.487 107.689 52.694-42.999 87.875L828.046 706.38c89.449 43.768 186.658 28.76 227.714-55.144l153.246-313.182L676.42 77.45z"/>
            <path d="M955.046 616.639c-15.702 10.85-33.114 17.73-52.228 20.638-19.125 2.91-39.09 2.455-59.888-1.362-20.803-3.827-41.046-10.348-60.697-19.57-18.136-8.51-34.506-18.586-49.106-30.233-14.596-11.638-26.919-24.221-36.94-37.752-10.026-13.517-17.388-27.796-22.086-42.853-4.696-15.041-6.215-30.236-4.558-45.563l97.14 18.555c-1.304 13.574 2.035 26.83 10.033 39.794 7.985 12.95 19.923 23.153 35.792 30.6 16.245 7.623 32.246 10.148 47.988 7.568 15.744-2.586 27.37-11.886 34.892-27.915 4.567-9.734 5.943-19.063 4.126-27.964-1.815-8.908-5.681-17.14-11.579-24.704-5.908-7.56-13.414-14.436-22.49-20.622a206.77 206.77 0 0 0-28.38-16.188c-14.362-6.74-31.337-13.067-50.916-19.003-19.597-5.937-37.6-10.072-54.018-12.41l99.208-186.362 246.058 115.466-31.85 67.87-161.58-75.825-28.169 51.19c6.62 1.587 13.748 3.87 21.335 6.854 7.595 2.987 14.41 5.896 20.46 8.736 20.035 9.401 37.89 20.47 53.594 33.205 15.7 12.742 27.977 26.644 36.817 41.71 8.826 15.076 13.923 30.983 15.302 47.735 1.36 16.734-2.083 33.906-10.34 51.501-9.585 20.427-22.225 36.067-37.92 46.904zM606.942 383.12l-70.077-32.885 140.213-121.232-.14 4.957-69.996 149.16zM672.317 81.3L237.393 422.14l141.13 66.228 80.61-69.164 107.257 50.332-41.146 87.682 306.648 143.9c89.09 41.806 184.944 25.318 224.23-58.402l146.644-312.495L672.317 81.3z" opacity=".98"/>
            <path d="M955.965 610.195c-15.352 10.997-32.456 18.095-51.301 21.291-18.856 3.2-38.594 3.082-59.207-.349-20.618-3.44-40.724-9.554-60.285-18.351-18.054-8.12-34.386-17.817-48.993-29.098-14.602-11.272-26.973-23.518-37.083-36.74-10.115-13.208-17.609-27.214-22.482-42.034-4.87-14.805-6.604-29.815-5.2-45.008l96.286 16.74c-1.082 13.453 2.42 26.515 10.522 39.21 8.09 12.68 20.044 22.577 35.84 29.68 16.171 7.273 32.023 9.505 47.542 6.69 15.52-2.821 26.867-12.217 34.057-28.203 4.365-9.708 5.583-18.962 3.65-27.74-1.929-8.783-5.876-16.865-11.82-24.25-5.954-7.384-13.477-14.062-22.542-20.031a203.937 203.937 0 0 0-28.295-15.545c-14.296-6.429-31.168-12.407-50.609-17.954-19.458-5.548-37.314-9.34-53.575-11.38l95.2-186.057 244.94 110.152-30.44 67.687-160.846-72.335-27.057 51.123c6.567 1.458 13.645 3.6 21.19 6.425 7.55 2.829 14.33 5.594 20.353 8.303 19.944 8.969 37.76 19.624 53.474 31.964 15.71 12.345 28.055 25.897 37.022 40.658 8.953 14.77 14.233 30.425 15.852 46.977 1.599 16.536-1.541 33.585-9.433 51.132-9.16 20.372-21.414 36.058-36.76 47.043zM608.373 384.933l-69.758-31.37 136.72-122.295-.063 4.907-66.899 148.758zm60.001-299.737L243.748 429.703l140.49 63.18 78.608-69.78 106.77 48.014-39.326 87.447L835.543 695.84c88.685 39.882 183.165 21.97 220.713-61.525l140.155-311.655L668.374 85.196z" opacity=".96"/>
            <path d="M956.7 603.826c-15.004 11.134-31.798 18.439-50.371 21.912-18.584 3.476-38.09 3.685-58.51.63-20.426-3.063-40.385-8.781-59.847-17.162-17.962-7.736-34.246-17.06-48.85-27.982-14.6-10.912-27.008-22.824-37.198-35.738-10.195-12.902-17.81-26.636-22.85-41.22-5.037-14.567-6.976-29.389-5.818-44.444l95.396 14.975c-.866 13.328 2.792 26.194 10.99 38.62 8.184 12.412 20.146 22.008 35.862 28.775 16.089 6.93 31.787 8.876 47.078 5.835 15.294-3.047 26.365-12.53 33.227-28.466 4.168-9.677 5.23-18.853 3.189-27.505-2.04-8.66-6.061-16.59-12.046-23.8-5.995-7.206-13.53-13.69-22.577-19.447a201.104 201.104 0 0 0-28.194-14.913c-14.223-6.125-30.986-11.762-50.28-16.93-19.311-5.167-37.012-8.625-53.11-10.376l91.26-185.655 243.696 104.946-29.056 67.471-160.03-68.915-25.964 51.027c6.511 1.335 13.538 3.337 21.035 6.008 7.505 2.674 14.245 5.298 20.238 7.879 19.843 8.545 37.607 18.794 53.321 30.743 15.712 11.956 28.114 25.16 37.197 39.617 9.07 14.466 14.524 29.868 16.373 46.218 1.83 16.335-1.015 33.254-8.548 50.746-8.745 20.307-20.616 36.03-35.614 47.15zM609.83 386.683l-69.404-29.889 133.25-123.253.012 4.856-63.858 148.286zM664.594 89.13L250.21 436.991l139.775 60.193 76.623-70.337 106.227 45.746-37.539 87.168L839 690.55c88.234 37.997 181.322 18.716 217.164-64.513l133.785-310.665-525.355-226.24z" opacity=".94"/>
            <path d="M957.25 597.536c-14.656 11.26-31.139 18.76-49.437 22.5-18.309 3.742-37.577 4.267-57.797 1.578-20.225-2.698-40.03-8.03-59.383-16.004-17.861-7.36-34.09-16.32-48.68-26.887-14.587-10.557-27.024-22.139-37.284-34.75-10.265-12.597-17.994-26.06-23.19-40.406-5.194-14.33-7.331-28.962-6.412-43.875l94.472 13.26c-.656 13.2 3.15 25.868 11.434 38.028 8.272 12.146 20.233 21.444 35.86 27.884 16 6.592 31.538 8.262 46.6 5.004 15.065-3.264 25.86-12.826 32.402-28.704 3.973-9.641 4.887-18.736 2.74-27.263-2.143-8.533-6.236-16.314-12.256-23.349-6.03-7.032-13.571-13.323-22.596-18.87a198.273 198.273 0 0 0-28.077-14.295c-14.144-5.828-30.789-11.132-49.928-15.93-19.156-4.797-36.696-7.93-52.627-9.399l87.393-185.16 242.33 99.851-27.7 67.225-159.132-65.57-24.89 50.905c6.452 1.215 13.424 3.08 20.87 5.6 7.455 2.524 14.154 5.01 20.113 7.466 19.732 8.13 37.435 17.98 53.139 29.545 15.7 11.572 28.15 24.434 37.34 38.588 9.177 14.163 14.795 29.312 16.867 45.457 2.051 16.13-.507 32.916-7.689 50.344-8.336 20.233-19.83 35.98-34.481 47.227zM611.315 388.368l-69.016-28.437 129.809-124.11.084 4.804-60.877 147.743zm49.663-295.266l-404.208 350.9 138.992 57.272 74.651-70.835 105.633 43.525-35.786 86.85L842.26 685.252c87.74 36.153 179.421 15.56 213.59-67.364l127.54-309.528L660.976 93.102z" opacity=".92"/>
            <path d="M957.622 591.333c-14.312 11.374-30.484 19.06-48.504 23.053-18.03 3.997-37.055 4.826-57.069 2.492-20.018-2.343-39.66-7.298-58.894-14.875-17.753-6.993-33.915-15.595-48.484-25.813-14.564-10.208-27.02-21.466-37.341-33.775-10.326-12.297-18.16-25.49-23.503-39.598-5.342-14.091-7.668-28.532-6.98-43.3l93.516 11.596c-.454 13.068 3.492 25.54 11.854 37.434 8.35 11.883 20.303 20.888 35.835 27.006 15.901 6.264 31.274 7.666 46.105 4.2 14.833-3.47 25.356-13.104 31.584-28.916 3.783-9.602 4.55-18.614 2.305-27.014-2.243-8.407-6.4-16.038-12.451-22.9-6.06-6.86-13.602-12.961-22.598-18.304a195.443 195.443 0 0 0-27.946-13.688c-14.058-5.537-30.578-10.516-49.554-14.954-18.993-4.437-36.365-7.253-52.124-8.45l83.598-184.574 240.849 94.873-26.372 66.947-158.16-62.301-23.836 50.758c6.392 1.097 13.307 2.83 20.7 5.204 7.4 2.376 14.054 4.728 19.977 7.06 19.61 7.726 37.243 17.184 52.926 28.372 15.68 11.195 28.168 23.717 37.454 37.57 9.274 13.864 15.047 28.759 17.33 44.697 2.265 15.924-.015 32.57-6.852 49.926-7.937 20.149-19.058 35.912-33.365 47.274zM612.819 389.989l-68.593-27.02 126.397-124.864.154 4.75-57.958 147.134zm44.707-292.887l-394.11 353.633 138.142 54.416 72.698-71.275 104.985 41.355-34.07 86.49 300.156 118.235c87.203 34.351 177.463 12.503 209.993-70.079l121.423-308.25L657.526 97.103z" opacity=".9"/>
            <path d="M957.816 585.22c-13.97 11.479-29.83 19.338-47.57 23.574-17.748 4.24-36.527 5.363-56.327 3.373-19.805-2-39.276-6.589-58.383-13.778-17.635-6.634-33.722-14.886-48.26-24.761-14.533-9.867-26.999-20.804-37.37-32.815-10.378-12-18.306-24.926-23.79-38.794-5.48-13.854-7.988-28.1-7.523-42.719l92.529 9.983c-.258 12.934 3.82 25.206 12.253 36.84 8.42 11.62 20.355 20.337 35.784 26.142 15.796 5.943 31 7.086 45.597 3.422 14.599-3.67 24.852-13.366 30.773-29.105 3.596-9.557 4.224-18.484 1.883-26.757-2.337-8.28-6.554-15.762-12.63-22.454-6.085-6.688-13.622-12.604-22.585-17.745a192.615 192.615 0 0 0-27.8-13.096c-13.964-5.253-30.352-9.915-49.158-14.003-18.824-4.087-36.022-6.596-51.603-7.53l79.88-183.9 239.252 90.014-25.071 66.64-157.112-59.11-22.804 50.586c6.33.984 13.184 2.588 20.52 4.818 7.344 2.233 13.95 4.454 19.833 6.667 19.48 7.33 37.033 16.405 52.685 27.222 15.649 10.823 28.165 23.011 37.538 36.567 9.36 13.565 15.278 28.206 17.766 43.936 2.468 15.714.458 32.215-6.042 49.492-7.545 20.056-18.3 35.825-32.265 47.291zm-343.47-193.676l-68.14-25.636 123.02-125.518.221 4.697-55.101 146.457zm39.894-290.417L270.143 457.186l137.227 51.629 70.762-71.657 104.29 39.237-32.39 86.093 298.165 112.179c86.626 32.59 175.452 9.545 206.38-72.657l115.439-306.833-515.776-194.05z" opacity=".88"/>
            <path d="M957.836 579.203c-13.63 11.572-29.179 19.594-46.635 24.062-17.466 4.472-35.993 5.877-55.574 4.219-19.586-1.667-38.879-5.9-57.85-12.711-17.508-6.286-33.513-14.195-48.01-23.734-14.492-9.53-26.96-20.152-37.373-31.87-10.42-11.704-18.434-24.365-24.047-37.996-5.611-13.616-8.292-27.667-8.042-42.132l91.513 8.422c-.07 12.796 4.134 24.87 12.627 36.244 8.481 11.362 20.392 19.796 35.712 25.296 15.683 5.63 30.712 6.521 45.074 2.669 14.363-3.859 24.349-13.61 29.97-29.269 3.414-9.51 3.906-18.348 1.476-26.494-2.427-8.152-6.698-15.486-12.794-22.01-6.105-6.519-13.632-12.252-22.556-17.197a189.788 189.788 0 0 0-27.64-12.516c-13.864-4.977-30.114-9.33-48.743-13.079-18.647-3.747-35.666-5.96-51.065-6.638l76.243-183.138 237.546 85.276-23.802 66.303-155.991-56-21.793 50.39c6.264.875 13.055 2.354 20.332 4.445 7.283 2.093 13.838 4.185 19.68 6.282 19.342 6.944 36.805 15.645 52.415 26.098 15.608 10.46 28.142 22.317 37.592 35.578 9.438 13.27 15.492 27.658 18.174 43.176 2.663 15.504.915 31.856-5.256 49.045-7.164 19.955-17.557 35.72-31.183 47.28zM615.89 393.033l-67.653-24.286 119.678-126.072.286 4.642-52.31 145.717zm35.23-287.862L276.94 463.354l136.249 48.912 68.848-71.982 103.547 37.172-30.75 85.658 296.04 106.275c86.007 30.876 173.39 6.69 202.751-75.097l109.593-305.283L651.12 105.17z" opacity=".86"/>
            <path d="M957.685 573.287c-13.294 11.655-28.531 19.828-45.703 24.517-17.181 4.692-35.453 6.368-54.808 5.03-19.36-1.345-38.468-5.234-57.295-11.676-17.375-5.945-33.288-13.52-47.736-22.73-14.443-9.201-26.901-19.513-37.349-30.94-10.452-11.415-18.544-23.811-24.278-37.205-5.732-13.379-8.577-27.234-8.535-41.543l90.47 6.915c.112 12.656 4.432 24.532 12.979 35.649 8.533 11.105 20.412 19.262 35.615 24.464 15.563 5.326 30.415 5.975 44.54 1.944 14.126-4.038 23.847-13.836 29.176-29.409 3.236-9.457 3.597-18.205 1.083-26.224-2.512-8.025-6.832-15.212-12.943-21.569-6.12-6.353-13.632-11.906-22.513-16.659a186.963 186.963 0 0 0-27.465-11.95c-13.759-4.708-29.864-8.763-48.31-12.182-18.462-3.418-35.296-5.342-50.51-5.776l72.688-182.293 235.734 80.664-22.563 65.938-154.802-52.97-20.804 50.17c6.197.767 12.923 2.126 20.137 4.08 7.22 1.958 13.722 3.926 19.518 5.91 19.195 6.568 36.56 14.903 52.119 25 15.558 10.102 28.1 21.636 37.617 34.603 9.506 12.978 15.686 27.114 18.554 42.419 2.847 15.291 1.352 31.49-4.497 48.584-6.79 19.846-16.83 35.597-30.12 47.24zm-340.233-178.83l-67.137-22.972 116.377-126.53.347 4.586-49.587 144.917zm30.715-285.227L283.8 469.238l135.21 46.266 66.956-72.25 102.757 35.162-29.15 85.187L853.355 664.13c85.352 29.206 171.284 3.937 199.116-77.4l103.888-303.606L648.167 109.23z" opacity=".84"/>
            <path d="M957.367 567.476c-12.96 11.728-27.888 20.042-44.774 24.94-16.894 4.9-34.908 6.836-54.032 5.808-19.13-1.037-38.046-4.591-56.72-10.675-17.234-5.615-33.047-12.863-47.437-21.75-14.385-8.88-26.826-18.887-37.298-30.028-10.476-11.128-18.636-23.264-24.484-36.421-5.844-13.143-8.845-26.8-9.003-40.95l89.401 5.462c.287 12.513 4.717 24.191 13.308 35.054 8.579 10.851 20.418 18.737 35.497 23.65 15.437 5.03 30.107 5.445 43.993 1.244 13.889-4.208 23.349-14.044 28.392-29.525 3.063-9.4 3.297-18.057.704-25.948-2.59-7.898-6.955-14.939-13.076-21.132-6.129-6.19-13.622-11.566-22.455-16.13a184.14 184.14 0 0 0-27.277-11.4c-13.647-4.446-29.602-8.21-47.857-11.311-18.272-3.1-34.916-4.746-49.94-4.943l69.216-181.368 233.82 76.18-21.355 65.546-153.545-50.026-19.838 49.928c6.127.665 12.786 1.905 19.934 3.729 7.155 1.826 13.6 3.673 19.35 5.546 19.038 6.203 36.294 14.18 51.794 23.928 15.498 9.754 28.04 20.968 37.615 33.647 9.563 12.688 15.86 26.572 18.904 41.663 3.024 15.078 1.773 31.119-3.763 48.112-6.427 19.727-16.118 35.456-29.074 47.17zm-338.34-171.66l-66.592-21.697 113.119-126.89.407 4.53-46.934 144.056zm26.353-282.518l-354.668 361.54 134.112 43.694 65.09-72.464 101.922 33.207-27.59 84.681 291.398 94.938c84.659 27.582 169.133 1.287 195.475-79.567l98.328-301.802L645.38 113.298z" opacity=".82"/>
            <path d="M956.885 561.775c-12.63 11.79-27.25 20.233-43.847 25.329-16.607 5.098-34.359 7.282-53.248 6.551-18.894-.738-37.612-3.97-56.124-9.706-17.087-5.294-32.792-12.224-47.116-20.796-14.319-8.564-26.735-18.273-37.222-29.132-10.492-10.846-18.711-22.723-24.662-35.645-5.948-12.907-9.097-26.366-9.446-40.355l88.309 4.063c.454 12.368 4.986 23.848 13.613 34.46 8.615 10.602 20.408 18.222 35.357 22.853 15.305 4.742 29.788 4.934 43.436.572 13.65-4.368 22.851-14.235 27.617-29.617 2.894-9.341 3.007-17.904.34-25.667-2.665-7.77-7.07-14.667-13.194-20.699-6.134-6.028-13.603-11.232-22.383-15.613a181.317 181.317 0 0 0-27.077-10.863c-13.53-4.193-29.327-7.676-47.387-10.468-18.076-2.79-34.525-4.17-49.355-4.14l65.83-180.365 231.81 71.824-20.18 65.13-152.224-47.166-18.896 49.663c6.056.566 12.645 1.693 19.724 3.389 7.087 1.698 13.473 3.428 19.173 5.194 18.875 5.849 36.016 13.478 51.446 22.884 15.43 9.412 27.96 20.313 37.584 32.705 9.612 12.403 16.017 26.037 19.227 40.913 3.19 14.863 2.176 30.742-3.055 47.627-6.074 19.602-15.423 35.298-28.05 47.075zm-336.27-164.669l-66.019-20.455 109.906-127.156.464 4.473-44.35 143.138zm22.144-279.734l-345.09 362.782 132.957 41.195 63.249-72.623 101.046 31.308-26.07 84.143 288.89 89.51c83.93 26.005 166.942-1.258 191.835-81.598l92.915-299.88-499.732-154.837z" opacity=".8"/>
            <path d="M956.244 556.187c-12.305 11.842-26.617 20.405-42.926 25.686-16.319 5.285-33.806 7.705-52.455 7.26-18.654-.452-37.167-3.372-55.511-8.77-16.931-4.983-32.522-11.604-46.772-19.868-14.244-8.256-26.626-17.672-37.12-28.253-10.499-10.57-18.77-22.191-24.815-34.879-6.042-12.673-9.33-25.933-9.863-39.758l87.194 2.718c.614 12.221 5.24 23.505 13.896 33.87 8.643 10.354 20.383 17.714 35.196 22.074 15.166 4.463 29.46 4.44 42.868-.074 13.41-4.52 22.357-14.41 26.854-29.687 2.73-9.278 2.726-17.745-.01-25.381-2.734-7.643-7.173-14.397-13.298-20.27-6.134-5.87-13.573-10.905-22.296-15.107a178.497 178.497 0 0 0-26.865-10.342c-13.406-3.945-29.042-7.157-46.9-9.652-17.874-2.493-34.124-3.615-48.757-3.368L797.2 223.1l229.705 67.601-19.037 64.687-150.843-44.392-17.978 49.377c5.984.47 12.5 1.488 19.509 3.06 7.015 1.576 13.34 3.192 18.989 4.854 18.703 5.505 35.719 12.796 51.072 21.868 15.351 9.079 27.863 19.671 37.525 31.782 9.652 12.12 16.156 25.505 19.523 40.165 3.348 14.647 2.56 30.361-2.375 47.132-5.73 19.468-14.743 35.124-27.045 46.953zm-334.03-157.855l-65.42-19.253 106.74-127.329.519 4.415-41.84 142.167zm18.09-276.887L304.66 485.185l131.751 38.773 61.435-72.729 100.129 29.467-24.595 83.572 286.268 84.246c83.17 24.476 164.715-3.698 188.198-83.492l87.653-297.844-495.195-145.733z" opacity=".78"/>
            <path d="M955.448 550.717c-11.984 11.883-25.99 20.555-42.011 26.011-16.03 5.46-33.25 8.104-51.654 7.934-18.41-.178-36.712-2.797-54.882-7.869-16.77-4.681-32.238-11-46.405-18.965-14.162-7.955-26.502-17.085-36.995-27.394-10.497-10.296-18.81-21.665-24.942-34.12-6.128-12.441-9.547-25.502-10.255-39.161l86.058 1.428c.768 12.073 5.48 23.16 14.157 33.281 8.664 10.111 20.342 17.218 35.015 21.314 15.02 4.193 29.122 3.964 42.29-.692 13.171-4.66 21.868-14.567 26.102-29.735 2.57-9.21 2.455-17.58-.345-25.09-2.798-7.516-7.266-14.128-13.386-19.846-6.13-5.713-13.536-10.584-22.196-14.612a175.679 175.679 0 0 0-26.64-9.835c-13.28-3.707-28.747-6.656-46.398-8.865-17.667-2.207-33.714-3.081-48.147-2.625l59.328-178.136 227.512 63.51-17.927 64.222-149.402-41.706-17.086 49.071c5.91.378 12.352 1.29 19.287 2.744 6.942 1.455 13.204 2.962 18.798 4.524 18.525 5.171 35.409 12.133 50.675 20.88 15.265 8.753 27.748 19.043 37.44 30.876 9.683 11.842 16.276 24.98 19.792 39.423 3.496 14.431 2.926 29.977-1.721 46.626-5.396 19.329-14.082 34.936-26.062 46.807zM623.82 399.49l-64.795-18.088L662.652 253.99l.57 4.357-39.401 141.143zm14.192-273.977L311.68 489.934l130.493 36.427 59.65-72.783 99.172 27.684-23.16 82.97 283.534 79.149c82.375 22.995 162.453-6.034 184.567-85.253l82.545-295.699-490.467-136.915z" opacity=".76"/>
            <path d="M954.5 545.367c-11.667 11.915-25.37 20.685-41.102 26.305-15.74 5.624-32.692 8.481-50.847 8.574-18.161.085-36.248-2.245-54.236-7.001-16.602-4.39-31.942-10.417-46.019-18.089-14.071-7.663-26.361-16.512-36.845-26.553-10.487-10.03-18.834-21.15-25.043-33.374-6.206-12.21-9.748-25.07-10.623-38.562l84.904.193c.914 11.922 5.706 22.815 14.395 32.696 8.677 9.872 20.288 16.73 34.813 20.571 14.87 3.932 28.777 3.506 41.706-1.282 12.93-4.794 21.38-14.709 25.36-29.761 2.417-9.14 2.195-17.412-.664-24.795-2.858-7.389-7.35-13.862-13.461-19.427-6.12-5.56-13.488-10.27-22.083-14.129a172.862 172.862 0 0 0-26.404-9.344c-13.146-3.476-28.441-6.172-45.88-8.106-17.455-1.93-33.294-2.568-47.525-1.913l56.214-176.916 225.233 59.555-16.851 63.733-147.907-39.109-16.217 48.746c5.834.29 12.2 1.1 19.06 2.439 6.866 1.34 13.062 2.74 18.6 4.205 18.34 4.85 35.083 11.492 50.255 19.922 15.17 8.435 27.616 18.43 37.33 29.988 9.704 11.569 16.377 24.462 20.032 38.688 3.635 14.215 3.274 29.589-1.094 46.111-5.072 19.182-13.438 34.731-25.101 46.635zM625.434 400.584l-64.146-16.961 100.565-127.406.618 4.299-37.037 140.068zm10.453-271.01L318.717 494.4l129.186 34.16 57.895-72.787 98.18 25.96-21.772 82.338 280.696 74.22c81.55 21.563 160.16-8.264 180.948-86.88l77.592-293.449-485.555-128.388z" opacity=".74"/>
            <path d="M953.405 540.14c-11.354 11.938-24.757 20.796-40.2 26.569-15.452 5.776-32.132 8.835-50.036 9.179-17.908.335-35.775-1.716-53.574-6.168-16.428-4.108-31.632-9.852-45.612-17.239-13.974-7.378-26.207-15.954-36.673-25.732-10.47-9.767-18.842-20.64-25.12-32.636-6.275-11.982-9.931-24.644-10.965-37.966l83.732-.986c1.053 11.77 5.917 22.47 14.611 32.115 8.682 9.635 20.22 16.253 34.593 19.848 14.714 3.68 28.423 3.065 41.113-1.846 12.691-4.917 20.898-14.834 24.632-29.765 2.268-9.068 1.944-17.24-.97-24.497-2.912-7.263-7.424-13.598-13.521-19.013-6.105-5.41-13.432-9.963-21.957-13.658a170.047 170.047 0 0 0-26.158-8.87c-13.008-3.252-28.126-5.704-45.348-7.373-17.238-1.667-32.866-2.077-46.892-1.232l53.192-175.63 222.875 55.735-15.81 63.223-146.357-36.601-15.375 48.402c5.757.206 12.046.918 18.827 2.146 6.789 1.23 12.916 2.528 18.397 3.898 18.147 4.538 34.744 10.871 49.812 18.992 15.068 8.127 27.469 17.832 37.195 29.12 9.716 11.3 16.46 23.95 20.245 37.959 3.765 13.998 3.605 29.198-.494 45.588-4.759 19.028-12.811 34.512-24.162 46.438zM627.052 401.612l-63.474-15.874 97.558-127.313.664 4.24-34.748 138.947zm6.87-267.992L325.765 498.587 453.6 530.556l56.17-72.74 97.152 24.295-20.426 81.679 277.757 69.46c80.696 20.18 157.842-10.388 177.344-88.376l72.798-291.099L633.922 133.62z" opacity=".72"/>
            <path d="M952.167 535.04c-11.046 11.952-24.151 20.887-39.306 26.8-15.163 5.92-31.572 9.169-49.22 9.751-17.653.575-35.294-1.21-52.9-5.367-16.247-3.837-31.31-9.307-45.185-16.417-13.87-7.102-26.037-15.41-36.478-24.931-10.444-9.51-18.833-20.142-25.173-31.91-6.336-11.756-10.097-24.219-11.282-37.37l82.545-2.111c1.184 11.617 6.113 22.124 14.805 31.538 8.68 9.404 20.137 15.787 34.354 19.144 14.553 3.437 28.062 2.644 40.513-2.382 12.452-5.031 20.42-14.942 23.917-29.749 2.123-8.991 1.702-17.062-1.26-24.194-2.962-7.138-7.49-13.337-13.568-18.606-6.087-5.264-13.367-9.663-21.818-13.198a167.235 167.235 0 0 0-25.902-8.41c-12.866-3.038-27.802-5.256-44.803-6.672-17.017-1.413-32.431-1.606-46.25-.58l50.266-174.282 220.44 52.053-14.803 62.692L846.3 306.656l-14.558 48.04c5.679.125 11.888.744 18.59 1.865 6.708 1.123 12.766 2.323 18.187 3.603 17.949 4.238 34.39 10.271 49.35 18.092 14.956 7.826 27.304 17.249 37.033 28.272 9.72 11.034 16.527 23.443 20.433 37.236 3.886 13.783 3.917 28.805.079 45.058-4.456 18.868-12.203 34.279-23.247 46.218zM628.673 402.575l-62.781-14.825 94.609-127.137.707 4.181-32.535 137.78zm3.447-264.926L332.817 502.496l126.437 29.857 54.48-72.645 96.09 22.69-19.125 80.993 274.722 64.872c79.814 18.847 155.498-12.409 173.76-89.741l68.161-288.656L632.12 137.65z" opacity=".7"/>
            <path d="M950.791 530.07c-10.744 11.955-23.554 20.957-38.42 27.002-14.876 6.05-31.012 9.478-48.401 10.287-17.395.802-34.807-.727-52.212-4.601-16.063-3.576-30.978-8.781-44.742-15.622-13.758-6.834-25.853-14.881-36.261-24.15-10.41-9.258-18.81-19.652-25.202-31.197-6.388-11.531-10.248-23.796-11.575-36.774l81.344-3.181c1.308 11.463 6.294 21.779 14.977 30.965 8.67 9.177 20.043 15.332 34.097 18.46 14.388 3.203 27.695 2.24 39.908-2.89 12.213-5.137 19.948-15.036 23.215-29.712 1.984-8.913 1.47-16.882-1.536-23.89-3.006-7.013-7.545-13.078-13.6-18.204-6.065-5.12-13.295-9.37-21.668-12.752a164.424 164.424 0 0 0-25.635-7.966c-12.72-2.831-27.47-4.824-44.247-5.998-16.791-1.17-31.988-1.156-45.598.04l47.434-172.873 217.934 48.509-13.832 62.141-143.112-31.855-13.768 47.661c5.6.049 11.728.578 18.348 1.597 6.627 1.02 12.613 2.125 17.972 3.318 17.745 3.95 34.026 9.693 48.866 17.222 14.84 7.534 27.125 16.681 36.85 27.444 9.716 10.774 16.577 22.944 20.594 36.521 3.998 13.567 4.21 28.41.625 44.52-4.163 18.703-11.613 34.033-22.355 45.977zM630.295 403.472l-62.067-13.815 91.718-126.878.748 4.122-30.399 136.571zm.181-261.816L339.864 506.131l125 27.823 52.822-72.502 94.997 21.145-17.87 80.282 271.599 60.454c78.907 17.563 153.134-14.325 170.196-90.979l63.687-286.122-469.819-104.575z" opacity=".68"/>
            <path d="M949.282 525.229c-10.448 11.951-22.965 21.011-37.546 27.176-14.588 6.169-30.45 9.765-47.579 10.79-17.134 1.018-34.312-.268-51.512-3.87-15.873-3.324-30.634-8.273-44.28-14.854-13.64-6.573-25.656-14.367-36.024-23.39-10.37-9.011-18.77-19.172-25.207-30.495-6.433-11.31-10.382-23.376-11.844-36.181l80.131-4.197c1.425 11.308 6.461 21.436 15.127 30.399 8.654 8.954 19.935 14.888 33.824 17.797 14.218 2.977 27.321 1.854 39.296-3.374 11.976-5.233 19.482-15.113 22.528-29.655 1.85-8.83 1.249-16.698-1.798-23.582-3.045-6.89-7.59-12.824-13.62-17.809-6.037-4.98-13.212-9.086-21.505-12.318a161.615 161.615 0 0 0-25.359-7.538c-12.57-2.632-27.13-4.41-43.678-5.352-16.563-.939-31.54-.729-44.939.63l44.7-171.408L995.354 273.1l-12.895 61.573-141.421-29.618-13.004 47.266c5.52-.025 11.565.418 18.102 1.34 6.542.922 12.455 1.936 17.75 3.045 17.536 3.672 33.65 9.135 48.365 16.381 14.714 7.252 26.931 16.13 36.643 26.637 9.703 10.518 16.609 22.454 20.73 35.816 4.1 13.351 4.486 28.013 1.143 43.976-3.881 18.531-11.042 33.773-21.486 45.713zM631.916 404.308l-61.334-12.845 88.889-126.54.786 4.063-28.34 135.322zm-2.926-258.669L346.9 509.493l123.523 25.869 51.2-72.314 93.874 19.66-16.66 79.547 268.39 56.209c77.975 16.33 150.751-16.136 166.658-92.089l59.374-283.505-464.269-97.23z" opacity=".66"/>
            <path d="M947.643 520.522c-10.156 11.937-22.385 21.045-36.68 27.32-14.304 6.278-29.891 10.03-46.757 11.26-16.87 1.221-33.812.168-50.8-3.173-15.68-3.083-30.28-7.786-43.803-14.114-13.517-6.32-25.446-13.868-35.765-22.65-10.322-8.771-18.718-18.702-25.191-29.806-6.469-11.091-10.5-22.961-12.089-35.592l78.907-5.158c1.535 11.152 6.615 21.093 15.257 29.838 8.63 8.736 19.815 14.455 33.533 17.153 14.044 2.762 26.942 1.487 38.681-3.828 11.74-5.321 19.021-15.176 21.854-29.58 1.72-8.747 1.038-16.51-2.044-23.273-3.08-6.768-7.627-12.571-13.626-17.42-6.006-4.844-13.124-8.808-21.332-11.896a158.809 158.809 0 0 0-25.074-7.126c-12.416-2.442-26.783-4.015-43.1-4.736-16.33-.718-31.085-.32-44.271 1.19l42.06-169.889 212.721 41.834-11.994 60.987-139.689-27.471-12.266 46.855c5.438-.094 11.4.268 17.852 1.095 6.457.828 12.295 1.756 17.525 2.784 17.321 3.406 33.262 8.6 47.845 15.571 14.582 6.978 26.722 15.593 36.413 25.85 9.683 10.268 16.625 21.971 20.84 35.119 4.195 13.137 4.744 27.616 1.635 43.427-3.61 18.355-10.489 33.502-20.642 45.429zM633.535 405.08l-60.583-11.914 86.121-126.124.821 4.003-26.359 134.035zm-5.875-255.487L353.918 512.586l122.01 23.994 49.61-72.081 92.726 18.235-15.495 78.79 265.102 52.135c77.02 15.147 148.353-17.844 163.147-93.074l55.223-280.808-458.581-90.184z" opacity=".64"/>
            <path d="M945.88 515.949c-9.87 11.916-21.815 21.062-35.827 27.435-14.019 6.377-29.332 10.276-45.932 11.697-16.606 1.414-33.307.583-50.08-2.508-15.48-2.853-29.917-7.318-43.309-13.402-13.386-6.077-25.223-13.385-35.488-21.933-10.267-8.536-18.65-18.241-25.151-29.129-6.498-10.875-10.602-22.55-12.31-35.006l77.673-6.066c1.638 10.997 6.754 20.754 15.366 29.284 8.6 8.523 19.683 14.034 33.227 16.53 13.866 2.556 26.558 1.137 38.062-4.257 11.505-5.4 18.567-15.223 21.195-29.485 1.596-8.66.836-16.32-2.276-22.962-3.11-6.647-7.655-12.323-13.62-17.038-5.97-4.71-13.027-8.539-21.148-11.488a156.005 156.005 0 0 0-24.78-6.73c-12.259-2.259-26.43-3.636-42.511-4.147-16.096-.509-30.627.065-43.6 1.72l39.52-168.319 210.023 38.703-11.127 60.385-137.918-25.415-11.555 46.43c5.355-.16 11.233.124 17.597.862 6.371.739 12.132 1.583 17.297 2.535 17.1 3.15 32.862 8.084 47.307 14.79 14.443 6.714 26.5 15.074 36.162 25.086 9.654 10.022 16.625 21.496 20.925 34.43 4.28 12.924 4.985 27.218 2.1 42.873-3.349 18.174-9.955 33.22-19.823 45.125zm-310.73-110.16l-59.814-11.022 83.416-125.634.854 3.944-24.456 132.712zm-8.667-252.275l-265.573 361.9 120.462 22.199 48.06-71.807 91.55 16.87-14.377 78.014 261.74 48.233c76.044 14.013 145.942-19.45 159.668-93.937l51.236-278.038-452.766-83.434z" opacity=".62"/>
            <path d="M943.996 511.511c-9.59 11.886-21.253 21.062-34.983 27.523-13.737 6.466-28.776 10.5-45.11 12.101-16.339 1.596-32.796.974-49.35-1.877-15.276-2.632-29.544-6.87-42.8-12.718-13.25-5.841-24.988-12.917-35.192-21.235-10.205-8.307-18.567-17.792-25.09-28.467-6.518-10.662-10.689-22.143-12.507-34.424l76.432-6.92c1.733 10.841 6.879 20.415 15.454 28.737 8.564 8.314 19.539 13.624 32.905 15.927 13.685 2.358 26.169.805 37.44-4.66 11.271-5.47 18.119-15.255 20.55-29.372 1.477-8.572.645-16.127-2.492-22.649-3.137-6.527-7.675-12.079-13.6-16.664-5.933-4.58-12.925-8.277-20.955-11.092a153.203 153.203 0 0 0-24.48-6.35c-12.097-2.084-26.07-3.274-41.913-3.587-15.857-.31-30.162.43-42.92 2.22l37.075-166.7 207.27 35.709-10.297 59.768-136.11-23.45-10.87 45.993c5.272-.222 11.064-.012 17.34.64 6.283.653 11.966 1.418 17.062 2.296 16.877 2.908 32.455 7.59 46.754 14.042 14.299 6.456 26.264 14.568 35.89 24.34 9.618 9.783 16.61 21.03 20.986 33.752 4.358 12.713 5.208 26.82 2.539 42.316-3.1 17.988-9.44 32.926-19.028 44.801zM636.76 406.438l-59.03-10.17 80.776-125.072.884 3.885-22.63 131.357zm-11.303-249.039L367.871 517.982l118.883 20.481 46.545-71.49 90.35 15.567-13.303 77.216 258.309 44.502c75.046 12.93 143.52-20.954 156.222-94.68l47.411-275.197-446.83-76.982z" opacity=".6"/>
            <path d="M941.997 507.21c-9.316 11.849-20.702 21.045-34.152 27.584-13.458 6.544-28.222 10.701-44.288 12.473-16.07 1.765-32.282 1.343-48.61-1.28-15.071-2.422-29.164-6.44-42.28-12.061-13.109-5.614-24.741-12.465-34.876-20.56-10.137-8.084-18.472-17.353-25.008-27.818-6.532-10.452-10.76-21.74-12.682-33.846l75.183-7.72c1.822 10.684 6.99 20.078 15.523 28.196 8.52 8.11 19.384 13.226 32.57 15.344 13.499 2.17 25.774.491 36.814-5.036 11.04-5.533 17.678-15.275 19.922-29.242 1.363-8.481.463-15.933-2.696-22.336-3.158-6.408-7.686-11.837-13.569-16.296-5.89-4.454-12.814-8.023-20.75-10.71a150.404 150.404 0 0 0-24.172-5.986c-11.933-1.917-25.703-2.93-41.307-3.055-15.617-.121-29.694.776-42.237 2.691l34.73-165.037 204.465 32.852-9.502 59.138-134.268-21.574-10.214 45.54c5.19-.28 10.895-.14 17.081.432 6.193.572 11.797 1.26 16.825 2.069 16.648 2.675 32.036 7.118 46.185 13.322 14.147 6.21 26.015 14.08 35.598 23.618 9.574 9.547 16.577 20.573 21.022 33.084 4.427 12.503 5.415 26.423 2.951 41.755-2.86 17.798-8.944 32.622-18.258 44.46zM638.363 407.025l-58.232-9.356 78.202-124.439.913 3.826-20.883 129.97zM624.58 161.247L374.794 520.292l117.275 18.843 45.068-71.132 89.127 14.32-12.276 76.402 254.814 40.943c74.03 11.895 141.091-22.358 152.812-95.307l43.751-272.29-440.785-70.824z" opacity=".58"/>
            <path d="M939.887 503.046c-9.048 11.803-20.162 21.01-33.334 27.619-13.18 6.612-27.67 10.883-43.467 12.813-15.802 1.924-31.764 1.69-47.865-.717-14.86-2.221-28.775-6.03-41.744-11.431-12.962-5.395-24.484-12.028-34.545-19.906-10.062-7.867-18.362-16.924-24.905-27.183-6.538-10.246-10.817-21.343-12.834-33.273l73.93-8.47c1.904 10.529 7.09 19.745 15.573 27.664 8.47 7.91 19.217 12.84 32.22 14.783 13.31 1.989 25.376.194 36.186-5.387 10.811-5.587 17.244-15.28 19.31-29.095 1.253-8.39.29-15.736-2.886-22.022-3.174-6.292-7.688-11.6-13.525-15.937-5.844-4.33-12.697-7.776-20.538-10.34a147.607 147.607 0 0 0-23.855-5.637c-11.767-1.759-25.333-2.604-40.694-2.551-15.375.056-29.222 1.1-41.55 3.132l32.481-163.332 201.613 30.133-8.742 58.493-132.395-19.788-9.584 45.078c5.106-.336 10.723-.262 16.82.233 6.101.495 11.625 1.112 16.582 1.853 16.417 2.454 31.61 6.667 45.602 12.633 13.99 5.97 25.755 13.608 35.287 22.917 9.523 9.318 16.531 20.125 21.036 32.427 4.487 12.294 5.603 26.027 3.336 41.191-2.63 17.605-8.467 32.309-17.513 44.1zm-299.93-95.492l-57.419-8.582 75.695-123.738.938 3.766-19.214 128.554zM623.85 165.052L381.675 522.351l115.638 17.283 43.63-70.737 87.883 13.135-11.294 75.57 251.258 37.552c72.998 10.91 138.658-23.663 149.442-95.817l40.252-269.325-434.635-64.96z" opacity=".56"/>
            <path d="M937.67 499.02c-8.786 11.75-19.631 20.96-32.528 27.627-12.904 6.67-27.123 11.045-42.65 13.122-15.531 2.072-31.242 2.014-47.112-.186-14.647-2.03-28.38-5.638-41.196-10.829-12.81-5.184-24.216-11.606-34.196-19.273-9.982-7.657-18.24-16.507-24.783-26.562-6.536-10.044-10.859-20.952-12.963-32.707l72.672-9.166c1.98 10.372 7.175 19.414 15.602 27.138 8.417 7.717 19.042 12.465 31.857 14.242 13.12 1.819 24.977-.085 35.56-5.712 10.582-5.633 16.817-15.272 18.71-28.932 1.15-8.295.129-15.536-3.06-21.707-3.187-6.176-7.682-11.368-13.47-15.584-5.795-4.212-12.573-7.539-20.315-9.983a144.813 144.813 0 0 0-23.534-5.306c-11.598-1.607-24.957-2.294-40.073-2.074-15.13.223-28.748 1.405-40.86 3.545l30.33-161.588 198.716 27.548-8.017 57.836-130.493-18.09-8.98 44.603c5.02-.386 10.55-.375 16.554.047 6.01.422 11.453.971 16.339 1.649 16.18 2.243 31.175 6.236 45.005 11.973 13.828 5.742 25.483 13.153 34.956 22.238 9.465 9.095 16.47 19.686 21.027 31.78 4.539 12.088 5.775 25.632 3.696 40.626-2.413 17.407-8.01 31.986-16.794 43.725zm-296.127-90.996l-56.595-7.845 73.255-122.974.96 3.708-17.62 127.111zm-18.282-239.21L388.507 524.162l113.977 15.8 42.23-70.303 86.62 12.008-10.359 74.721 247.65 34.33c71.948 9.975 136.22-24.87 146.11-96.214l36.917-266.303-428.39-59.387z" opacity=".54"/>
            <path d="M935.351 495.13c-8.53 11.69-19.111 20.895-31.736 27.61-12.631 6.721-26.578 11.188-41.834 13.402-15.261 2.208-30.72 2.317-46.355.313-14.43-1.85-27.976-5.266-40.636-10.254-12.655-4.982-23.939-11.2-33.832-18.663-9.895-7.452-18.107-16.1-24.64-25.956-6.529-9.844-10.887-20.564-13.071-32.144l71.411-9.813c2.048 10.217 7.247 19.086 15.614 26.621 8.355 7.528 18.855 12.103 31.48 13.721 12.926 1.657 24.574-.347 34.931-6.012 10.358-5.671 16.398-15.25 18.13-28.753 1.05-8.2-.025-15.336-3.221-21.393-3.196-6.062-7.669-11.14-13.404-15.24-5.743-4.096-12.444-7.308-20.085-9.639a142.021 142.021 0 0 0-23.205-4.988c-11.427-1.465-24.577-2.001-39.448-1.626-14.884.38-28.27 1.69-40.166 3.93l28.275-159.807 195.78 25.096-7.329 57.17-128.564-16.48-8.403 44.117c4.936-.434 10.377-.481 16.288-.128 5.917.353 11.277.838 16.091 1.455 15.941 2.043 30.733 5.827 44.395 11.343 13.661 5.522 25.2 12.714 34.608 21.58 9.401 8.878 16.396 19.258 20.996 31.147 4.583 11.882 5.93 25.237 4.03 40.059-2.205 17.206-7.57 31.654-16.1 43.333zm-292.234-86.692l-55.757-7.148 70.882-122.146.981 3.65-16.106 125.644zM622.814 172.53l-227.527 353.2 112.292 14.395 40.867-69.834 85.34 10.94-9.467 73.858 243.988 31.276c70.885 9.086 133.783-25.982 142.823-96.503l33.742-263.23-422.058-54.102z" opacity=".52"/>
            <path d="M932.935 491.379c-8.282 11.622-18.603 20.813-30.958 27.569-12.362 6.76-26.038 11.31-41.023 13.65-14.99 2.334-30.195 2.598-45.593.78-14.21-1.68-27.566-4.913-40.066-9.707-12.493-4.788-23.65-10.81-33.451-18.074-9.802-7.253-17.96-15.704-24.479-25.363-6.514-9.648-10.901-20.184-13.158-31.589l70.15-10.409c2.11 10.061 7.306 18.761 15.606 26.112 8.289 7.344 18.66 11.752 31.093 13.22 12.73 1.504 24.167-.591 34.302-6.288 10.135-5.701 15.987-15.216 17.563-28.558.957-8.102-.167-15.134-3.367-21.079-3.2-5.95-7.647-10.915-13.327-14.903-5.687-3.984-12.308-7.085-19.846-9.308a139.233 139.233 0 0 0-22.871-4.687c-11.254-1.33-24.193-1.725-38.817-1.204-14.636.526-27.791 1.955-39.47 4.286l26.317-157.99 192.805 22.776-6.674 56.492-126.61-14.957-7.854 43.622c4.852-.479 10.202-.58 16.02-.292 5.824.288 11.1.712 15.841 1.272 15.7 1.855 30.284 5.439 43.773 10.744 13.49 5.31 24.906 12.29 34.243 20.945 9.33 8.664 16.307 18.836 20.943 30.523 4.619 11.679 6.069 24.845 4.339 39.49-2.009 17.002-7.15 31.315-15.431 42.927zM644.68 408.795l-54.911-6.487 68.579-121.26.999 3.592-14.667 124.155zm-22.177-232.597L402.01 527.062l110.586 13.065 39.544-69.33 84.044 9.928-8.622 72.983 240.281 28.386c69.809 8.246 131.348-27 139.58-96.685L1038.15 225.3l-415.646-49.102z" opacity=".5"/>
            <path d="M930.425 487.763c-8.039 11.549-18.106 20.718-30.194 27.505-12.094 6.791-25.502 11.414-40.216 13.87-14.72 2.449-29.668 2.858-44.826 1.214-13.989-1.517-27.151-4.577-39.485-9.185-12.329-4.602-23.354-10.435-33.057-17.506-9.704-7.06-17.802-15.32-24.3-24.787-6.491-9.456-10.9-19.807-13.222-31.039l68.886-10.956c2.165 9.906 7.354 18.44 15.582 25.611 8.217 7.166 18.454 11.413 30.694 12.741 12.53 1.36 23.759-.82 33.673-6.54 9.915-5.725 15.583-15.17 17.013-28.35.868-8.003-.3-14.93-3.501-20.765-3.2-5.84-7.618-10.694-13.24-14.574-5.627-3.875-12.166-6.87-19.598-8.99a136.447 136.447 0 0 0-22.532-4.401c-11.078-1.202-23.805-1.466-38.18-.808-14.388.662-27.311 2.2-38.775 4.615l24.456-156.145 189.796 20.589-6.054 55.804-124.635-13.52-7.329 43.118c4.766-.52 10.027-.672 15.75-.445 5.73.228 10.922.595 15.589 1.101 15.454 1.677 29.828 5.07 43.14 10.172 13.312 5.108 24.601 11.883 33.86 20.331 9.253 8.459 16.206 18.427 20.87 29.913 4.647 11.478 6.191 24.454 4.622 38.921-1.822 16.796-6.75 30.968-14.787 42.506zM646.23 409.098l-54.054-5.864L658.52 282.92l1.015 3.534-13.304 122.645zM622.33 179.815L408.67 528.163l108.86 11.809 38.261-68.794 82.732 8.975-7.82 72.095 236.532 25.658c68.719 7.455 128.914-27.924 136.382-96.761l27.872-256.945-409.16-44.385z" opacity=".48"/>
            <path d="M927.826 484.283c-7.803 11.468-17.62 20.61-29.444 27.418-11.83 6.813-24.97 11.5-39.414 14.06-14.45 2.554-29.14 3.099-44.056 1.62-13.765-1.367-26.73-4.262-38.895-8.692-12.16-4.424-23.049-10.074-32.648-16.959-9.601-6.874-17.633-14.946-24.102-24.224-6.464-9.268-10.888-19.438-13.268-30.497l67.624-11.455c2.214 9.753 7.388 18.122 15.539 25.12 8.14 6.991 18.24 11.085 30.284 12.28 12.33 1.224 23.349-1.032 33.046-6.768 9.697-5.74 15.188-15.111 16.479-28.127.784-7.904-.425-14.726-3.622-20.452-3.197-5.73-7.581-10.479-13.14-14.254-5.567-3.77-12.02-6.663-19.345-8.685a133.665 133.665 0 0 0-22.189-4.13c-10.9-1.08-23.414-1.222-37.54-.438-14.138.788-26.828 2.427-38.077 4.917l22.689-154.269 186.757 18.529-5.468 55.109-122.64-12.168-6.83 42.606c4.68-.558 9.85-.758 15.479-.587 5.634.171 10.741.484 15.334.94 15.206 1.508 29.366 4.721 42.497 9.63 13.13 4.913 24.287 11.491 33.462 19.738 9.17 8.258 16.09 18.026 20.775 29.313 4.667 11.28 6.298 24.067 4.88 38.354-1.645 16.586-6.366 30.613-14.167 42.071zm-280.058-74.935l-53.188-5.277 64.176-119.316 1.028 3.477-12.016 121.116zM622.285 183.38l-207.02 345.657 107.118 10.627L559.4 471.44l81.408 8.077-7.064 71.196 232.744 23.091c67.62 6.709 126.488-28.758 133.232-96.737l25.174-253.742-402.608-39.944z" opacity=".46"/>
            <path d="M925.141 480.938c-7.573 11.382-17.144 20.486-28.708 27.308-11.57 6.826-24.444 11.567-38.618 14.222-14.178 2.65-28.612 3.32-43.281 1.994-13.54-1.223-26.306-3.962-38.298-8.222-11.986-4.254-22.734-9.73-32.226-16.434-9.492-6.694-17.453-14.583-23.887-23.676-6.43-9.083-10.862-19.075-13.292-29.961l66.362-11.908c2.257 9.6 7.412 17.808 15.48 24.637 8.057 6.823 18.017 10.77 29.863 11.84 12.128 1.096 22.938-1.228 32.42-6.972 9.482-5.75 14.8-15.042 15.961-27.891.705-7.803-.54-14.522-3.73-20.14-3.189-5.625-7.537-10.268-13.032-13.941-5.5-3.669-11.868-6.465-19.083-8.393a130.886 130.886 0 0 0-21.84-3.874c-10.721-.968-23.02-.995-36.896-.094-13.888.904-26.346 2.635-37.38 5.192l21.015-152.366 183.69 16.595-4.915 54.405-120.625-10.897-6.36 42.085c4.596-.592 9.675-.836 15.208-.718 5.538.118 10.56.38 15.077.788 14.957 1.352 28.899 4.393 41.844 9.116 12.945 4.729 23.964 11.117 33.05 19.169 9.08 8.062 15.962 17.635 20.66 28.725 4.68 11.084 6.39 23.682 5.115 37.786-1.48 16.375-6.002 30.253-13.574 41.625zm-275.85-71.393l-52.315-4.726 62.078-118.264 1.04 3.42-10.803 119.57zm-26.922-222.65L421.793 529.692l105.359 9.519 35.81-67.627 80.07 7.234-6.35 70.288 228.923 20.681c66.508 6.009 124.067-29.504 130.13-96.615l22.63-250.504-395.996-35.775z" opacity=".44"/>
            <path d="M922.375 477.725c-7.349 11.29-16.68 20.35-27.986 27.177-11.313 6.832-23.924 11.618-37.827 14.359-13.909 2.735-28.084 3.519-42.507 2.338-13.311-1.09-25.875-3.681-37.69-7.78-11.81-4.092-22.413-9.399-31.791-15.929-9.38-6.52-17.263-14.23-23.657-23.143-6.389-8.902-10.823-18.718-13.297-29.432L772.722 433c2.294 9.448 7.424 17.498 15.405 24.163 7.97 6.66 17.787 10.467 29.434 11.42 11.923.976 22.525-1.408 31.795-7.155 9.27-5.752 14.42-14.961 15.459-27.643.63-7.7-.646-14.316-3.824-19.83-3.178-5.518-7.487-10.06-12.915-13.635-5.434-3.57-11.711-6.273-18.815-8.112a128.11 128.11 0 0 0-21.488-3.633c-10.54-.863-22.624-.783-36.249.224-13.637 1.011-25.862 2.825-36.682 5.442l19.434-150.44 180.598 14.787-4.396 53.695-118.595-9.71-5.913 41.558c4.51-.624 9.499-.908 14.935-.84 5.442.07 10.378.285 14.819.65 14.705 1.203 28.427 4.083 41.182 8.63 12.755 4.55 23.631 10.756 32.622 18.618 8.984 7.872 15.823 17.254 20.526 28.15 4.687 10.891 6.466 23.3 5.326 37.22-1.323 16.16-5.657 29.886-13.005 41.165zM650.8 409.693l-51.434-4.211 60.047-117.162 1.048 3.364-9.661 118.009zm-28.22-219.34l-194.33 339.782 103.585 8.48 34.644-66.998 78.723 6.445-5.68 69.37 225.07 18.427c65.388 5.353 121.654-30.163 127.077-96.398l20.242-247.233-389.331-31.875z" opacity=".42"/>
            <path d="M919.532 474.644c-7.132 11.192-16.227 20.202-27.28 27.026-11.06 6.829-23.408 11.65-37.042 14.467-13.64 2.81-27.555 3.7-41.73 2.654-13.082-.966-25.44-3.418-37.076-7.362-11.63-3.938-22.084-9.084-31.344-15.445-9.26-6.352-17.062-13.89-23.41-22.626-6.342-8.724-10.771-18.366-13.283-28.91l63.846-12.674c2.325 9.296 7.424 17.191 15.313 23.698 7.878 6.5 17.549 10.174 28.995 11.018 11.717.865 22.112-1.573 31.172-7.315 9.061-5.747 14.05-14.87 14.974-27.382.56-7.599-.743-14.11-3.907-19.52-3.163-5.416-7.43-9.86-12.787-13.34-5.364-3.475-11.55-6.089-18.54-7.844a125.338 125.338 0 0 0-21.132-3.405c-10.36-.765-22.226-.587-35.6.518-13.386 1.108-25.379 2.997-35.986 5.666l17.945-148.49 177.484 13.098-3.91 52.979-116.55-8.602-5.492 41.024c4.425-.652 9.322-.972 14.662-.95 5.345.024 10.195.196 14.559.518 14.452 1.067 27.95 3.794 40.512 8.172 12.562 4.383 23.29 10.412 32.18 18.09 8.884 7.689 15.671 16.883 20.373 27.588 4.686 10.7 6.527 22.92 5.514 36.655-1.177 15.944-5.329 29.513-12.46 40.694zm-267.241-64.853l-50.547-3.73 58.085-116.013 1.055 3.308-8.593 116.435zM622.91 193.756L434.632 530.37l101.799 7.513 33.516-66.344 77.365 5.71-5.05 68.444 221.187 16.324c64.261 4.743 119.252-30.737 124.075-96.088l18.003-243.934-382.617-28.238z" opacity=".4"/>
            <path d="M916.615 471.693c-6.921 11.088-15.786 20.041-26.589 26.854-10.808 6.818-22.898 11.668-36.263 14.55-13.371 2.877-27.027 3.862-40.951 2.94-12.851-.849-25.003-3.17-36.455-6.967-11.447-3.792-21.748-8.783-30.886-14.982-9.138-6.19-16.852-13.56-23.147-22.122-6.29-8.551-10.708-18.022-13.25-28.397l62.593-12.99c2.35 9.145 7.413 16.889 15.205 23.241 7.782 6.347 17.303 9.893 28.547 10.637 11.51.761 21.698-1.724 30.553-7.455 8.854-5.736 13.686-14.767 14.503-27.11.495-7.494-.832-13.903-3.977-19.212-3.145-5.314-7.366-9.66-12.651-13.05-5.292-3.385-11.384-5.913-18.26-7.588a122.57 122.57 0 0 0-20.771-3.193c-10.177-.673-21.826-.406-34.95.788-13.133 1.197-24.895 3.152-35.29 5.865l16.547-146.52 174.35 11.53-3.457 52.257-114.491-7.572-5.096 40.484c4.34-.677 9.145-1.031 14.388-1.05 5.248-.019 10.01.113 14.298.397 14.196.939 27.469 3.522 39.834 7.74 12.365 4.223 22.942 10.083 31.726 17.583 8.777 7.51 15.508 16.52 20.201 27.038 4.678 10.51 6.574 22.542 5.678 36.09-1.04 15.728-5.018 29.136-11.939 40.214zm-262.848-61.852l-49.655-3.284 56.19-114.816 1.06 3.253-7.595 114.847zm-30.408-212.737L440.94 530.4l100 6.614 32.428-65.663 76 5.027-4.466 67.511 217.283 14.37c63.126 4.175 116.86-31.228 121.124-95.689l15.913-240.61-375.862-24.857z" opacity=".38"/>
            <path d="M913.628 468.869c-6.717 10.98-15.356 19.869-25.912 26.664-10.56 6.799-22.393 11.668-35.492 14.607-13.103 2.934-26.5 4.006-40.172 3.2-12.618-.742-24.561-2.94-35.827-6.598-11.261-3.653-21.405-8.496-30.416-14.539-9.011-6.033-16.633-13.24-22.87-21.633-6.232-8.381-10.634-17.683-13.2-27.89l61.345-13.265c2.368 8.997 7.391 16.592 15.083 22.795 7.68 6.198 17.05 9.623 28.09 10.273 11.303.665 21.285-1.859 29.936-7.572 8.651-5.719 13.332-14.656 14.048-26.827.436-7.39-.91-13.697-4.034-18.907-3.123-5.213-7.295-9.467-12.506-12.768-5.217-3.297-11.213-5.744-17.974-7.345a119.804 119.804 0 0 0-20.408-2.993c-9.993-.589-21.425-.239-34.296 1.034-12.883 1.277-24.413 3.29-34.596 6.041l15.235-144.533 171.198 10.08-3.033 51.53-112.423-6.62-4.724 39.939c4.255-.7 8.97-1.084 14.115-1.141 5.15-.057 9.826.038 14.035.285 13.94.821 26.984 3.27 39.15 7.335 12.165 4.072 22.586 9.769 31.258 17.097 8.666 7.337 15.334 16.168 20.013 26.499 4.663 10.325 6.606 22.17 5.82 35.529-.913 15.509-4.726 28.753-11.443 39.723zm-258.402-59.024l-48.757-2.87 54.362-113.578 1.063 3.198-6.668 113.25zm-31.302-209.45L447.168 530.239l98.193 5.781 31.377-64.956 74.625 4.393-3.92 66.573L860.8 554.591c61.985 3.65 114.481-31.64 118.224-95.204l13.969-237.263-369.068-21.73z" opacity=".36"/>
            <path d="M910.575 466.17c-6.52 10.866-14.938 19.686-25.25 26.454-10.318 6.774-21.895 11.654-34.728 14.642-12.837 2.982-25.973 4.131-39.393 3.433-12.385-.644-24.116-2.727-35.193-6.253-11.072-3.522-21.056-8.224-29.936-14.116-8.88-5.882-16.405-12.931-22.579-21.157-6.168-8.216-10.547-17.352-13.13-27.391l60.1-13.5c2.382 8.85 7.359 16.3 14.946 22.359 7.576 6.054 16.79 9.363 27.627 9.927 11.093.577 20.87-1.98 29.321-7.67 8.45-5.695 12.985-14.534 13.61-26.532.379-7.286-.983-13.492-4.081-18.603-3.098-5.116-7.22-9.278-12.353-12.495-5.14-3.213-11.039-5.582-17.682-7.113a117.044 117.044 0 0 0-20.043-2.808c-9.807-.51-21.021-.086-33.641 1.258-12.631 1.348-23.93 3.413-33.904 6.194l14.011-142.53 168.032 8.742-2.643 50.799-110.343-5.74-4.376 39.388c4.17-.719 8.793-1.13 13.84-1.223 5.054-.092 9.642-.03 13.773.184 13.682.712 26.496 3.033 38.458 6.956 11.962 3.927 22.223 9.469 30.78 16.629 8.55 7.17 15.148 15.826 19.806 25.973 4.642 10.142 6.625 21.8 5.94 34.97-.795 15.29-4.45 28.367-10.969 39.223zM656.67 409.805l-47.856-2.49 52.6-112.298 1.064 3.145-5.808 111.643zM624.6 203.63L453.318 529.888l96.377 5.014 30.363-64.226 73.246 3.81-3.415 65.628L859.3 551.01c60.838 3.165 112.115-31.975 115.375-94.638l12.168-233.897L624.6 203.63z" opacity=".34"/>
            <path d="M907.459 463.593c-6.328 10.748-14.53 19.492-24.603 26.228-10.078 6.74-21.403 11.624-33.97 14.652-12.572 3.022-25.449 4.24-38.614 3.64-12.151-.555-23.67-2.53-34.555-5.932-10.88-3.396-20.701-7.964-29.446-13.71-8.745-5.737-16.168-12.633-22.273-20.697-6.1-8.054-10.45-17.026-13.046-26.9l58.862-13.692c2.39 8.703 7.317 16.01 14.795 21.93 7.467 5.915 16.524 9.115 27.156 9.6 10.883.496 20.457-2.087 28.71-7.748 8.254-5.666 12.647-14.405 13.186-26.229.327-7.18-1.046-13.285-4.116-18.3-3.07-5.02-7.136-9.094-12.191-12.23-5.06-3.132-10.86-5.427-17.385-6.892a114.287 114.287 0 0 0-19.674-2.635c-9.622-.439-20.618.052-32.987 1.458-12.38 1.41-23.45 3.519-33.214 6.324l12.873-140.51 164.852 7.514-2.282 50.064-108.255-4.935-4.052 38.834c4.086-.735 8.617-1.171 13.567-1.295 4.956-.124 9.455-.094 13.509.091 13.423.612 26.004 2.815 37.76 6.602 11.755 3.79 21.853 9.183 30.288 16.182 8.43 7.008 14.954 15.492 19.584 25.46 4.615 9.96 6.631 21.433 6.04 34.413-.687 15.067-4.192 27.975-10.52 38.713zm-249.365-53.871l-46.95-2.14 50.903-110.98 1.062 3.091-5.015 110.029zm-32.709-202.914L459.388 529.355l94.553 4.31 29.388-63.473 71.859 3.275-2.948 64.68 205.446 9.364c59.687 2.72 109.763-32.234 112.578-93.99l10.508-230.514-355.387-16.2z" opacity=".32"/>
            <path d="M904.282 461.136c-6.142 10.625-14.134 19.288-23.97 25.985-9.842 6.7-20.917 11.58-33.22 14.638-12.308 3.054-24.925 4.332-37.836 3.821-11.915-.471-23.219-2.346-33.91-5.63-10.687-3.28-20.341-7.718-28.947-13.325-8.607-5.598-15.923-12.345-21.955-20.25-6.026-7.897-10.342-16.707-12.943-26.417l57.629-13.845c2.393 8.557 7.265 15.724 14.63 21.51 7.354 5.78 16.252 8.877 26.678 9.29 10.673.422 20.044-2.18 28.103-7.807 8.059-5.632 12.316-14.266 12.777-25.916.28-7.074-1.102-13.08-4.14-18-3.037-4.927-7.048-8.914-12.022-11.972-4.979-3.054-10.678-5.28-17.083-6.682a111.535 111.535 0 0 0-19.303-2.476c-9.436-.373-20.213.178-32.332 1.638-12.128 1.465-22.969 3.61-32.526 6.432l11.817-138.48 161.661 6.395-1.95 49.326-106.16-4.199-3.75 38.276c4-.75 8.44-1.207 13.293-1.359 4.857-.152 9.269-.15 13.244.008 13.163.52 25.51 2.614 37.057 6.271 11.547 3.663 21.477 8.912 29.787 15.754 8.304 6.851 14.749 15.169 19.345 24.958 4.58 9.783 6.623 21.072 6.118 33.86-.588 14.845-3.95 27.58-10.092 38.196zm-244.78-51.54l-46.042-1.82 49.271-109.624 1.059 3.038-4.289 108.406zM626.274 209.93L465.377 528.647l92.723 3.668 28.449-62.7 70.468 2.788-2.52 63.725 201.468 7.97c58.533 2.315 107.426-32.42 109.833-93.266l8.984-227.117-348.507-13.786z" opacity=".3"/>
            <path d="M901.05 458.796c-5.963 10.498-13.75 19.074-23.353 25.724-9.61 6.655-20.437 11.523-32.477 14.605-12.046 3.077-24.404 4.407-37.059 3.977-11.68-.396-22.767-2.179-33.262-5.352-10.49-3.169-19.975-7.485-28.438-12.958-8.465-5.463-15.67-12.066-21.624-19.817-5.948-7.741-10.224-16.393-12.825-25.94l56.402-13.961c2.391 8.413 7.204 15.443 14.452 21.098 7.238 5.651 15.975 8.65 26.194 8.997 10.461.355 19.631-2.26 27.499-7.847 7.868-5.592 11.994-14.118 12.383-25.593.237-6.968-1.149-12.874-4.152-17.703-3.003-4.834-6.955-8.738-11.846-11.721-4.895-2.979-10.492-5.138-16.776-6.483a108.787 108.787 0 0 0-18.93-2.329c-9.25-.313-19.808.29-31.677 1.797-11.878 1.512-22.49 3.684-31.84 6.519l10.842-136.437 158.46 5.38-1.649 48.585-104.057-3.533-3.471 37.714c3.916-.76 8.265-1.236 13.02-1.413 4.76-.178 9.082-.2 12.979-.068 12.902.438 25.014 2.43 36.349 5.966 11.335 3.54 21.095 8.654 29.275 15.344 8.174 6.7 14.534 14.854 19.09 24.468 4.542 9.608 6.604 20.713 6.176 33.309-.496 14.623-3.723 27.183-9.686 37.672zM660.89 409.43l-45.129-1.532 47.7-108.233 1.054 2.986-3.625 106.78zm-33.625-196.436l-155.98 314.776 90.887 3.085 27.545-61.906 69.073 2.345-2.13 62.769 197.48 6.704c57.374 1.947 105.104-32.537 107.138-92.47l7.595-223.706-341.608-11.597z" opacity=".28"/>
            <path d="M897.762 456.569c-5.789 10.367-13.373 18.851-22.748 25.449-9.38 6.602-19.963 11.452-31.742 14.549-11.785 3.093-23.884 4.467-36.283 4.11-11.443-.329-22.313-2.025-32.609-5.095-10.292-3.064-19.604-7.264-27.922-12.608-8.318-5.334-15.41-11.797-21.28-19.397-5.864-7.59-10.096-16.085-12.69-25.471l55.18-14.042c2.385 8.27 7.133 15.166 14.262 20.697 7.118 5.525 15.69 8.432 25.703 8.72 10.25.295 19.22-2.329 26.899-7.87 7.68-5.547 11.68-13.963 12.004-25.263.198-6.861-1.189-12.668-4.155-17.407-2.966-4.743-6.856-8.566-11.661-11.478-4.81-2.907-10.304-5.003-16.467-6.294a106.045 106.045 0 0 0-18.555-2.193c-9.061-.261-19.402.389-31.02 1.935-11.628 1.55-22.013 3.745-31.159 6.584l9.948-134.383 155.252 4.464-1.376 47.843-101.95-2.932-3.215 37.149c3.833-.77 8.09-1.26 12.747-1.46 4.662-.2 8.897-.244 12.714-.135 12.642.364 24.516 2.261 35.637 5.683 11.121 3.427 20.707 8.41 28.753 14.954 8.04 6.553 14.31 14.548 18.821 23.989 4.497 9.436 6.571 20.358 6.214 32.762-.414 14.399-3.513 26.782-9.302 37.14zm-235.498-47.341l-44.216-1.272 46.193-106.81 1.047 2.935-3.024 105.147zm-33.909-193.222L477.113 526.732l89.048 2.56 26.677-61.093 67.674 1.946-1.777 61.81 193.481 5.564c56.212 1.617 102.798-32.585 104.495-91.6l6.335-220.288-334.69-9.625z" opacity=".26"/>
            <path d="M894.424 454.452c-5.62 10.232-13.009 18.62-22.159 25.159-9.154 6.544-19.494 11.368-31.014 14.473-11.525 3.101-23.366 4.512-35.508 4.22-11.206-.268-21.857-1.886-31.952-4.857-10.091-2.967-19.229-7.056-27.398-12.276-8.169-5.21-15.142-11.538-20.924-18.99-5.777-7.443-9.96-15.785-12.542-25.011l53.967-14.087c2.372 8.13 7.053 14.894 14.058 20.303 6.995 5.405 15.402 8.225 25.207 8.46 10.038.24 18.809-2.384 26.303-7.876 7.494-5.496 11.373-13.8 11.64-24.924.162-6.755-1.223-12.464-4.148-17.114-2.926-4.654-6.753-8.399-11.47-11.241-4.724-2.838-10.113-4.876-16.153-6.117a103.307 103.307 0 0 0-18.178-2.069c-8.874-.213-18.996.476-30.365 2.054-11.379 1.582-21.537 3.793-30.48 6.631l9.13-132.322 152.038 3.648-1.13 47.098-99.84-2.395-2.978 36.58c3.75-.775 7.916-1.278 12.475-1.497 4.563-.22 8.71-.284 12.448-.194 12.38.297 24.015 2.107 34.92 5.422 10.905 3.32 20.313 8.178 28.221 14.58 7.903 6.412 14.08 14.251 18.539 23.522 4.445 9.267 6.526 20.007 6.233 32.218-.34 14.175-3.319 26.379-8.94 36.602zM663.62 408.987l-43.3-1.039 44.745-105.355 1.038 2.883-2.483 103.511zm-34.08-190.025L482.862 525.538l87.203 2.092 25.843-60.263 66.273 1.59-1.46 60.848 189.475 4.546c55.048 1.32 100.507-32.568 101.9-90.666l5.203-216.86-327.758-7.863z" opacity=".24"/>
            <path d="M891.038 452.441c-5.46 10.094-12.655 18.38-21.583 24.855-8.933 6.48-19.033 11.272-30.295 14.379-11.266 3.101-22.849 4.542-34.734 4.308-10.969-.215-21.4-1.76-31.293-4.64-9.888-2.876-18.848-6.86-26.865-11.96-8.017-5.093-14.868-11.288-20.557-18.597-5.685-7.299-9.813-15.49-12.38-24.557l52.761-14.098c2.355 7.99 6.965 14.625 13.843 19.918 6.869 5.287 15.109 8.026 24.706 8.214 9.825.193 18.398-2.429 25.71-7.866 7.312-5.441 11.073-13.63 11.288-24.577.131-6.648-1.247-12.26-4.13-16.823-2.882-4.567-6.643-8.235-11.273-11.012-4.634-2.772-9.917-4.753-15.833-5.948a100.575 100.575 0 0 0-17.8-1.957c-8.686-.17-18.59.552-29.71 2.154-11.13 1.607-21.064 3.826-29.804 6.66l8.388-130.254 148.816 2.924-.91 46.353-97.725-1.92-2.764 36.01c3.667-.779 7.743-1.293 12.204-1.528 4.465-.236 8.523-.317 12.182-.245 12.117.238 23.512 1.968 34.199 5.182 10.687 3.219 19.915 7.96 27.681 14.225 7.761 6.275 13.839 13.962 18.242 23.066 4.389 9.1 6.47 19.66 6.234 31.676-.275 13.951-3.139 25.973-8.598 36.058zm-226.081-43.73l-42.383-.832 43.356-103.872 1.028 2.832-2.001 101.872zm-34.142-186.847L488.528 524.195l85.356 1.677 25.044-59.415 64.869 1.274-1.177 59.885 185.461 3.644c53.882 1.059 98.233-32.489 99.356-89.667l4.194-213.426-320.816-6.303z" opacity=".22"/>
            <path d="M887.606 450.533c-5.303 9.952-12.311 18.132-21.021 24.538-8.714 6.41-18.576 11.165-29.582 14.265-11.01 3.096-22.335 4.558-33.963 4.376-10.73-.17-20.94-1.649-30.63-4.443-9.684-2.79-18.464-6.674-26.325-11.66-7.862-4.979-14.587-11.047-20.18-18.214-5.589-7.16-9.657-15.2-12.202-24.111l51.56-14.078c2.334 7.85 6.868 14.361 13.617 19.54 6.739 5.176 14.81 7.837 24.2 7.985 9.611.151 17.988-2.462 25.12-7.84 7.134-5.382 10.782-13.452 10.952-24.224.103-6.54-1.266-12.056-4.103-16.534a32.903 32.903 0 0 0-11.07-10.79c-4.543-2.708-9.718-4.637-15.51-5.79a97.848 97.848 0 0 0-17.421-1.854c-8.498-.134-18.183.616-29.056 2.236-10.883 1.625-20.591 3.847-29.13 6.669l7.717-128.177 145.591 2.29-.717 45.606-95.607-1.504-2.568 35.439c3.584-.782 7.569-1.303 11.932-1.553 4.367-.249 8.336-.345 11.917-.289 11.854.187 23.008 1.844 33.474 4.964 10.466 3.125 19.512 7.752 27.132 13.886 7.616 6.142 13.59 13.681 17.932 22.62 4.327 8.935 6.403 19.316 6.217 31.14-.216 13.725-2.974 25.564-8.276 35.507zm-221.33-42.131l-41.463-.653 42.024-102.36 1.017 2.782-1.577 100.23zM632.18 224.714L494.117 522.71l83.506 1.314 24.277-58.553 63.463.999-.927 58.92 181.442 2.854c52.714.83 95.975-32.35 96.86-88.606l3.304-209.987-313.863-4.938z" opacity=".2"/>
            <path d="M884.13 448.724c-5.151 9.807-11.977 17.877-20.471 24.208-8.5 6.334-18.127 11.046-28.877 14.133-10.755 3.084-21.824 4.562-33.193 4.423-10.494-.128-20.482-1.548-29.964-4.262-9.479-2.71-18.076-6.5-25.78-11.377-7.703-4.869-14.3-10.814-19.792-17.844-5.488-7.021-9.493-14.916-12.01-23.671l50.367-14.027c2.308 7.713 6.763 14.101 13.378 19.172 6.607 5.066 14.507 7.656 23.688 7.768 9.4.115 17.581-2.484 24.538-7.799 6.956-5.318 10.497-13.268 10.626-23.863.08-6.434-1.278-11.854-4.067-16.248-2.789-4.399-6.412-7.92-10.859-10.573-4.452-2.649-9.518-4.528-15.186-5.64a95.127 95.127 0 0 0-17.04-1.764c-8.309-.102-17.776.67-28.402 2.301-10.635 1.636-20.12 3.856-28.46 6.66l7.118-126.095 142.363 1.744-.55 44.858-93.486-1.145-2.394 34.864c3.502-.78 7.397-1.307 11.662-1.568 4.27-.26 8.15-.369 11.651-.326 11.592.142 22.503 1.733 32.747 4.765 10.244 3.037 19.104 7.556 26.576 13.563 7.467 6.014 13.333 13.408 17.608 22.185 4.261 8.773 6.325 18.976 6.183 30.605-.166 13.501-2.822 25.155-7.974 34.953zM667.58 408.06l-40.544-.496 40.749-100.825 1.003 2.734-1.208 98.587zm-33.953-180.547L499.63 521.09l81.654 1 23.542-57.674 62.056.76-.71 57.954 177.418 2.173c51.545.63 93.734-32.154 94.412-87.488l2.53-206.545-306.904-3.758z" opacity=".18"/>
            <path d="M880.614 447.01c-5.006 9.658-11.653 17.615-19.936 23.865-8.287 6.255-17.681 10.917-28.179 13.986-10.501 3.065-21.314 4.553-32.425 4.45-10.255-.094-20.02-1.459-29.296-4.099-9.27-2.636-17.684-6.336-25.226-11.108-7.543-4.763-14.006-10.589-19.395-17.484-5.384-6.888-9.321-14.638-11.807-23.24l49.181-13.946c2.278 7.577 6.65 13.845 13.13 18.81 6.472 4.962 14.2 7.484 23.173 7.566 9.186.085 17.174-2.496 23.957-7.743 6.783-5.251 10.22-13.08 10.315-23.497.058-6.327-1.284-11.652-4.022-15.965-2.739-4.316-6.29-7.768-10.643-10.363-4.359-2.59-9.316-4.422-14.858-5.5a92.413 92.413 0 0 0-16.657-1.681c-8.12-.075-17.37.713-27.75 2.35-10.389 1.64-19.652 3.853-27.794 6.636l6.587-124.01 139.132 1.28-.406 44.11-91.365-.84-2.236 34.289c3.42-.78 7.224-1.31 11.392-1.578 4.171-.27 7.964-.388 11.385-.357 11.329.104 21.996 1.636 32.017 4.586 10.02 2.954 18.691 7.371 26.01 13.254 7.316 5.892 13.07 13.144 17.274 21.761 4.19 8.613 6.237 18.64 6.131 30.075-.122 13.276-2.683 24.743-7.69 34.393zm-211.747-39.322l-39.624-.364 39.527-99.264.988 2.685-.89 96.943zm-33.71-177.426L505.064 519.343l79.801.734 22.838-56.782 60.648.557-.524 56.988 173.392 1.593c50.375.463 91.509-31.902 92.009-86.314l1.867-203.1-299.938-2.757z" opacity=".16"/>
            <path d="M877.058 445.386c-4.865 9.507-11.337 17.346-19.411 23.512-8.08 6.17-17.243 10.778-27.488 13.822-10.25 3.04-20.808 4.531-31.66 4.46-10.018-.066-19.559-1.382-28.625-3.953-9.062-2.567-17.289-6.182-24.668-10.853-7.38-4.663-13.707-10.373-18.988-17.137-5.276-6.756-9.141-14.365-11.59-22.814l48.002-13.838c2.244 7.443 6.53 13.592 12.872 18.457 6.334 4.86 13.889 7.319 22.653 7.376 8.972.06 16.768-2.499 23.38-7.674 6.611-5.18 9.949-12.884 10.016-23.125.04-6.22-1.284-11.45-3.97-15.683-2.685-4.236-6.162-7.62-10.421-10.159-4.264-2.535-9.11-4.323-14.526-5.367a89.705 89.705 0 0 0-16.274-1.61c-7.932-.052-16.965.746-27.099 2.383-10.142 1.64-19.184 3.839-27.13 6.596l6.121-121.92 135.899.893-.285 43.362-89.242-.587-2.098 33.713c3.338-.775 7.053-1.305 11.123-1.58 4.074-.276 7.778-.403 11.12-.381 11.065.073 21.489 1.55 31.283 4.424 9.794 2.878 18.276 7.197 25.44 12.96 7.16 5.773 12.798 12.887 16.926 21.347 4.114 8.455 6.138 18.306 6.065 29.547-.086 13.05-2.56 24.33-7.425 33.829zm-206.92-38.1l-38.704-.254 38.358-97.68.972 2.636-.626 95.299zm-33.374-174.322l-126.338 284.51 77.947.512 22.164-55.877 59.238.39-.368 56.02 169.363 1.112c49.204.323 89.3-31.6 89.651-85.088l1.312-199.655-292.969-1.924z" opacity=".14"/>
            <path d="M873.466 443.848c-4.729 9.354-11.03 17.072-18.9 23.149-7.873 6.081-16.81 10.629-26.804 13.643-10 3.01-20.302 4.498-30.897 4.452-9.779-.043-19.096-1.316-27.951-3.823-8.852-2.503-16.89-6.037-24.104-10.612-7.213-4.566-13.402-10.163-18.571-16.8-5.165-6.627-8.954-14.096-11.364-22.393l46.83-13.704c2.207 7.31 6.405 13.343 12.606 18.11 6.193 4.762 13.573 7.162 22.129 7.2 8.758.038 16.363-2.493 22.807-7.593 6.443-5.105 9.684-12.683 9.728-22.748.027-6.111-1.277-11.25-3.907-15.403-2.63-4.157-6.032-7.474-10.195-9.96-4.168-2.483-8.902-4.229-14.191-5.243a87.004 87.004 0 0 0-15.89-1.547c-7.743-.034-16.56.77-26.449 2.4-9.897 1.635-18.72 3.815-26.47 6.542l5.718-119.827 132.665.581-.187 42.613-87.118-.381-1.977 33.134c3.257-.768 6.882-1.298 10.855-1.577 3.976-.28 7.591-.413 10.854-.398 10.802.047 20.98 1.476 30.547 4.279 9.568 2.807 17.856 7.033 24.862 12.682 7.001 5.657 12.52 12.635 16.568 20.94 4.034 8.3 6.03 17.976 5.982 29.024-.056 12.825-2.446 23.915-7.176 33.26zm-202.074-36.99l-37.782-.166 37.238-96.076.955 2.588-.41 93.654zm-32.946-171.239L515.716 515.49l76.092.333 21.518-54.96 57.829.254-.242 55.053 165.333.725c48.033.21 87.107-31.25 87.337-83.815l.86-196.207-285.997-1.254z" opacity=".12"/>
            <path d="M869.84 442.393c-4.599 9.197-10.733 16.79-18.4 22.774-7.672 5.989-16.382 10.472-26.128 13.45-9.75 2.975-19.8 4.455-30.136 4.428-9.54-.026-18.632-1.26-27.276-3.707-8.64-2.444-16.488-5.902-23.533-10.384-7.045-4.473-13.093-9.961-18.147-16.472-5.05-6.502-8.76-13.833-11.124-21.98l45.665-13.545c2.165 7.177 6.27 13.098 12.328 17.77 6.05 4.668 13.254 7.013 21.601 7.035 8.545.022 15.96-2.478 22.238-7.5 6.277-5.026 9.427-12.476 9.453-22.364.016-6.004-1.265-11.05-3.838-15.126-2.574-4.079-5.898-7.332-9.964-9.768-4.07-2.431-8.691-4.139-13.853-5.126a84.31 84.31 0 0 0-15.505-1.492c-7.555-.02-16.154.786-25.8 2.405-9.653 1.622-18.256 3.78-25.814 6.472l5.377-117.732 129.43.34-.11 41.866-84.994-.224-1.873 32.556c3.176-.76 6.712-1.287 10.587-1.569 3.88-.281 7.406-.418 10.589-.41 10.538.028 20.471 1.414 29.81 4.151 9.338 2.741 17.432 6.879 24.276 12.416 6.84 5.545 12.237 12.392 16.2 20.544 3.949 8.147 5.914 17.65 5.885 28.503-.033 12.6-2.347 23.5-6.945 32.689zm-197.208-35.99l-36.862-.096 36.168-94.454.936 2.542-.242 92.009zM640.2 238.232L520.936 513.398l74.237.195 20.9-54.032 56.419.149-.143 54.086 161.301.424c46.863.124 84.93-30.85 85.066-82.493l.507-192.762-279.023-.734z" opacity=".1"/>
            <path d="M866.18 441.015c-4.472 9.039-10.443 16.504-17.911 22.391-7.472 5.891-15.96 10.306-25.458 13.244-9.502 2.934-19.298 4.4-29.377 4.387-9.301-.012-18.167-1.213-26.598-3.605-8.427-2.389-16.084-5.775-22.958-10.167-6.875-4.385-12.778-9.767-17.714-16.154-4.933-6.38-8.559-13.575-10.874-21.574l44.506-13.362c2.12 7.046 6.13 12.856 12.042 17.436 5.905 4.577 12.932 6.87 21.07 6.881 8.332.011 15.558-2.453 21.673-7.394 6.114-4.944 9.175-12.266 9.188-21.977.008-5.897-1.248-10.85-3.762-14.85-2.514-4.003-5.759-7.194-9.726-9.58-3.972-2.383-8.48-4.054-13.514-5.017a81.624 81.624 0 0 0-15.12-1.445c-7.365-.01-15.749.793-25.15 2.395-9.41 1.606-17.796 3.736-25.161 6.39l5.092-115.634 126.195.166-.055 41.117-82.869-.11-1.785 31.977c3.097-.75 6.544-1.273 10.321-1.554 3.782-.282 7.22-.42 10.323-.417 10.276.014 19.962 1.362 29.07 4.038 9.11 2.68 17.006 6.733 23.686 12.162 6.676 5.438 11.947 12.155 15.82 20.156 3.861 7.997 5.79 17.327 5.775 27.986-.016 12.375-2.258 23.082-6.73 32.114zm-192.324-35.09l-35.94-.047 35.144-92.812.915 2.495-.119 90.364zm-31.835-165.124L526.09 511.204l72.38.095 20.31-53.093 55.008.073-.07 53.12 157.268.206c45.691.06 82.768-30.41 82.834-81.13l.25-189.317-272.049-.357z" opacity=".08"/>
            <path d="M862.489 439.71c-4.35 8.878-10.162 16.212-17.433 21.999-7.275 5.79-15.54 10.132-24.793 13.025-9.257 2.889-18.8 4.337-28.62 4.332-9.063-.004-17.703-1.175-25.92-3.516-8.213-2.338-15.676-5.656-22.378-9.963-6.702-4.298-12.459-9.577-17.274-15.844-4.81-6.26-8.35-13.321-10.613-21.172l43.353-13.158c2.072 6.916 5.984 12.617 11.749 17.109 5.757 4.488 12.606 6.734 20.535 6.738 8.118.003 15.158-2.423 21.11-7.279 5.954-4.86 8.93-12.05 8.935-21.585.002-5.79-1.225-10.652-3.678-14.577-2.453-3.928-5.618-7.058-9.485-9.398-3.872-2.335-8.266-3.972-13.172-4.913a78.945 78.945 0 0 0-14.733-1.406c-7.176-.003-15.344.792-24.504 2.373-9.168 1.585-17.336 3.684-24.51 6.296l4.864-113.535 122.958.053-.018 40.37-80.744-.036-1.712 31.396c3.016-.74 6.374-1.255 10.055-1.535 3.685-.28 7.035-.419 10.058-.417 10.012.004 19.451 1.32 28.328 3.94 8.878 2.622 16.575 6.594 23.089 11.92 6.51 5.332 11.65 11.923 15.431 19.775 3.77 7.848 5.656 17.006 5.651 27.472-.005 12.15-2.18 22.664-6.53 31.535zm-187.422-34.286l-35.018-.015 34.163-91.155.894 2.449-.039 88.721zm-31.16-162.094L531.18 508.916l70.525.031 19.743-52.145 53.597.023-.022 52.154 153.236.067c44.52.02 80.619-29.928 80.64-79.725l.082-185.874-265.072-.117z" opacity=".06"/>
            <path d="M858.768 438.25c-4.23 8.684-9.887 15.86-16.964 21.522-7.082 5.666-15.128 9.915-24.136 12.749-9.011 2.829-18.303 4.249-27.865 4.249-8.824 0-17.237-1.141-25.238-3.428-7.998-2.283-15.266-5.525-21.794-9.733-6.528-4.201-12.135-9.362-16.826-15.489-4.687-6.12-8.136-13.024-10.343-20.7l42.207-12.887c2.02 6.763 5.832 12.336 11.447 16.727 5.607 4.387 12.277 6.58 19.998 6.58 7.904 0 14.757-2.375 20.551-7.127 5.795-4.755 8.69-11.79 8.69-21.114 0-5.662-1.197-10.417-3.587-14.254-2.39-3.84-5.473-6.9-9.24-9.187-3.77-2.283-8.05-3.881-12.827-4.8a76.54 76.54 0 0 0-14.346-1.368c-6.988 0-14.94.781-23.858 2.331-8.926 1.554-16.879 3.61-23.863 6.168l4.688-111.037h119.722v39.48h-78.62l-1.652 30.705c2.936-.725 6.205-1.23 9.79-1.505 3.586-.275 6.848-.413 9.792-.413 9.749 0 18.94 1.283 27.585 3.84 8.645 2.562 16.141 6.444 22.485 11.649 6.341 5.212 11.35 11.655 15.034 19.333 3.674 7.673 5.514 16.63 5.514 26.865 0 11.882-2.113 22.166-6.344 30.843zM676.264 404.8h-34.097l33.225-89.162.872 2.394V404.8zm-30.409-158.512L536.206 506.074h68.67l19.2-51.005h52.188v51.005h149.204c43.348 0 78.485-29.304 78.485-78.004V246.288H645.855z" opacity=".04"/>
            <path d="M855.503 437.215c-4.13 8.54-9.654 15.596-16.565 21.164-6.914 5.572-14.771 9.75-23.567 12.537-8.8 2.782-17.872 4.178-27.209 4.178-8.616 0-16.831-1.122-24.645-3.37-7.809-2.245-14.906-5.433-21.28-9.572a64.637 64.637 0 0 1-16.43-15.23c-4.577-6.018-7.945-12.807-10.1-20.356l41.214-12.672c1.972 6.65 5.694 12.13 11.177 16.448 5.475 4.314 11.988 6.471 19.527 6.471 7.718 0 14.41-2.336 20.068-7.008 5.658-4.676 8.485-11.593 8.485-20.762 0-5.568-1.168-10.244-3.502-14.017-2.335-3.777-5.344-6.786-9.023-9.034-3.682-2.245-7.86-3.817-12.525-4.72a74.233 74.233 0 0 0-14.008-1.345c-6.823 0-14.589.768-23.297 2.292-8.715 1.528-16.48 3.55-23.3 6.065l4.576-109.188h116.905v38.823h-76.769l-1.614 30.194c2.867-.713 6.06-1.21 9.559-1.48 3.503-.271 6.688-.407 9.563-.407 9.519 0 18.493 1.262 26.935 3.777 8.441 2.519 15.761 6.336 21.956 11.454 6.191 5.126 11.082 11.461 14.68 19.01 3.587 7.547 5.384 16.354 5.384 26.419 0 11.684-2.063 21.796-6.195 30.33zm-178.208-32.892h-33.294l32.443-87.677.851 2.355v85.322zm-29.692-155.87L540.535 503.91h67.052l18.75-50.155h50.958v50.155h145.692c42.328 0 76.637-28.816 76.637-76.705V248.452H647.603z" opacity=".02"/>
        </g>
    </g>
</svg>
