<svg xmlns="http://www.w3.org/2000/svg" width="651" height="525" viewBox="0 0 651 525">
    <g fill="none" fill-rule="evenodd" stroke="#CECACA" opacity=".24">
        <path d="M1.511 359.847L585.065.82l358.132 582.098-583.553 359.028z"/>
        <path d="M3.111 366.11L578.8 1.158 942.84 575.411 367.152 940.363z"/>
        <path d="M4.671 372.921L571.987 1.446l370.549 565.902L375.22 938.823z"/>
        <path d="M8.076 381.27L563.63 4.83l375.5 554.167-555.553 376.44z"/>
        <path d="M9.745 388.814L556.082 5.234 938.705 550.21l-546.337 383.58z"/>
        <path d="M11.502 396.543L548.35 5.717l389.852 535.509-536.848 390.826z"/>
        <path d="M15.236 405.306L539.58 9.428l394.89 523.035L410.126 928.34z"/>
        <path d="M17.297 412.998L531.883 10.225 933.65 523.527 419.066 926.3z"/>
        <path d="M19.506 420.488L524.39 11.16l408.307 503.623-504.883 409.328z"/>
        <path d="M23.738 428.501l492.627-413.13 412.1 491.398-492.627 413.13z"/>
        <path d="M26.288 435.204L509.658 16.66 927.16 498.824 443.79 917.369z"/>
        <path d="M28.966 441.355L503.5 18.065l422.233 473.352L451.2 914.707z"/>
        <path d="M31.786 446.871L497.98 19.625l426.18 465.033-466.195 427.245z"/>
        <path d="M34.692 451.65L493.195 21.265l429.313 457.359-458.503 430.386z"/>
        <path d="M39.546 456.306l448.982-430.2L917.654 473.97 468.672 904.168z"/>
        <path d="M42.605 459.405L485.423 27.912 915.84 469.625 473.021 901.118z"/>
        <path d="M45.683 461.596L483.226 29.728l430.79 436.451-437.543 431.868z"/>
        <path d="M48.795 462.86l433.16-431.269 430.193 432.08-433.16 431.269z"/>
        <path d="M51.897 463.174L481.635 33.436 910.3 462.102 480.563 891.84z"/>
        <path d="M56.866 463.168L481.628 38.406 905.331 462.11 480.569 886.871z"/>
        <path d="M59.984 461.62L483.17 40.283l420.287 422.13L480.271 883.75z"/>
        <path d="M63.092 459.176L485.609 42.139l415.996 421.463L479.088 880.64z"/>
        <path d="M66.233 455.89L488.889 44.042l410.819 421.602L477.052 877.49z"/>
        <path d="M69.39 451.807L492.963 45.953 897.806 468.47 474.23 874.325z"/>
        <path d="M74.464 447.71L497.05 51.037l395.682 421.53L470.147 869.24z"/>
        <path d="M77.758 442.306L502.446 53.1l388.236 423.628-424.688 389.207z"/>
        <path d="M81.124 436.352l427.27-381.129L888.57 481.427l-427.27 381.129z"/>
        <path d="M86.458 430.755l427.52-370.184 369.26 426.452-427.52 370.185z"/>
        <path d="M90.06 424.06L520.665 62.946l360.214 429.528L450.275 853.59z"/>
        <path d="M93.771 417.129L527.588 65.416l350.835 432.735-433.816 351.712z"/>
        <path d="M99.458 411.004L533.699 71.117l339.039 433.158-434.242 339.887z"/>
        <path d="M103.424 403.996l437.273-330.14 329.317 436.182L432.741 840.18z"/>
        <path d="M107.477 397.082L547.604 76.67l319.613 439.029L427.091 836.11z"/>
        <path d="M111.632 390.383l442.66-310.788L864.307 521.15 421.646 831.94z"/>
        <path d="M115.827 383.982l444.86-301.435 300.682 443.75-444.86 301.435z"/>
        <path d="M121.863 379.113L565.541 88.596l289.792 442.57-443.678 290.517z"/>
        <path d="M126.084 373.638L571.007 91.584l281.35 443.812L407.433 817.45z"/>
        <path d="M130.238 368.704L575.932 94.493l273.526 444.581-445.693 274.211z"/>
        <path d="M134.327 364.396L580.231 97.347l266.382 444.791L400.71 809.187z"/>
        <path d="M138.278 360.742L583.876 100.05 843.92 544.535 398.32 805.228z"/>
        <path d="M143.863 359.072l441.67-253.435 252.802 440.568-441.67 253.435z"/>
        <path d="M147.5 356.886l440.211-248.851 248.23 439.112-440.21 248.851z"/>
        <path d="M150.925 355.433l438.231-245.228 244.617 437.138L395.54 792.571z"/>
        <path d="M154.16 354.746l435.677-242.549 241.944 434.59-435.677 242.548z"/>
        <path d="M157.168 354.792l432.618-240.847 240.245 431.539L397.413 786.33z"/>
        <path d="M161.745 356.872l425.95-238.355 237.76 424.886-425.95 238.356z"/>
        <path d="M164.374 358.357l421.83-238.461 237.865 420.778-421.83 238.46z"/>
        <path d="M166.81 360.492l417.255-239.424L822.89 537.28 405.637 776.705z"/>
        <path d="M169.118 363.261L581.29 122.124l240.536 411.144-412.173 241.137z"/>
        <path d="M171.29 366.583l406.675-243.555 242.948 405.66-406.675 243.555z"/>
        <path d="M175.181 371.616l397.742-244.71 244.099 396.751-397.743 244.709z"/>
        <path d="M177.25 375.86l391.426-248.141 247.521 390.45-391.427 248.14z"/>
        <path d="M179.284 380.447l384.801-251.965 251.337 383.84L430.62 764.289z"/>
        <path d="M181.359 385.325L559.204 129.3 814.59 506.2 436.746 762.227z"/>
        <path d="M183.464 390.382l370.679-260.251 259.601 369.753-370.679 260.252z"/>
        <path d="M187.48 396.559l360.475-262.426 261.77 359.574-360.473 262.426z"/>
        <path d="M189.781 401.706l353.023-266.532 265.867 352.142-353.023 266.532z"/>
        <path d="M192.164 406.77l345.573-270.485 269.81 344.71L461.974 751.48z"/>
        <path d="M196.517 412.56l335.42-271.937 271.257 334.581-335.418 271.937z"/>
        <path d="M199.151 417.193L527.297 142l274.505 327.326L473.656 744.52z"/>
        <path d="M201.872 421.499l321.115-278.05 277.356 320.313-321.116 278.05z"/>
        <path d="M206.554 426.187L518.286 148.12l277.373 310.954L483.927 737.14z"/>
        <path d="M209.48 429.634l305.353-279.841 279.143 304.59-305.353 279.842z"/>
        <path d="M212.452 432.57L511.89 151.493l280.375 298.692-299.439 281.077z"/>
        <path d="M215.5 434.974L509.481 153.29l280.981 293.25-293.982 281.683z"/>
        <path d="M218.56 436.79l289.1-281.705 281.002 288.378-289.1 281.706z"/>
        <path d="M223.514 438.647L505.79 160.033l277.918 281.57-282.276 278.615z"/>
        <path d="M226.634 439.243l278.553-277.337 276.645 277.858L503.279 717.1z"/>
        <path d="M229.733 439.217l275.474-275.474 274.787 274.786-275.475 275.475z"/>
        <path d="M234.702 439.212L505.2 168.713l269.823 269.823-270.498 270.498z"/>
    </g>
</svg>
