<svg xmlns="http://www.w3.org/2000/svg" width="583" height="883" viewBox="0 0 583 883">
    <g fill="none" fill-rule="evenodd" stroke="#18B397" opacity=".15">
        <path d="M1.38 438.883L599.39-5.266l444.148 598.01-598.01 444.148z"/>
        <path d="M4.163 445.92L592.282-3.278 1041.48 584.84l-588.118 449.198z"/>
        <path d="M7.484 453.804L584.36-.421l454.224 576.874-576.874 454.225z"/>
        <path d="M10.368 461.874L576.218 1.669l460.206 565.85-565.851 460.206z"/>
        <path d="M13.859 470.495l553.697-465.8 465.8 553.696-553.696 465.801z"/>
        <path d="M16.981 479.047L558.934 7.026l472.021 541.952L489.003 1021z"/>
        <path d="M20.753 487.84L550.1 10.33l477.51 529.347-529.348 477.51z"/>
        <path d="M24.19 496.3L541.57 12.977l483.325 517.382-517.383 483.325z"/>
        <path d="M28.275 504.695L533.137 16.593l488.102 504.861-504.862 488.102z"/>
        <path d="M32.022 512.51L525.253 19.551l492.958 493.231-493.231 492.958z"/>
        <path d="M36.382 519.975L517.745 23.44l496.536 481.363-481.363 496.536z"/>
        <path d="M40.366 526.648l470.637-500.01 500.01 470.638-470.638 500.01z"/>
        <path d="M44.901 532.737L504.874 30.699l502.038 459.972L546.939 992.71z"/>
        <path d="M49.006 537.864L499.678 34.022l503.842 450.672-450.672 503.842z"/>
        <path d="M53.59 542.23L495.27 38.127l504.104 441.68-441.681 504.104z"/>
        <path d="M57.688 545.523l434.22-504.078 504.079 434.221-434.221 504.078z"/>
        <path d="M62.198 547.948L489.442 45.477l502.47 427.244L564.67 975.19z"/>
        <path d="M66.186 549.247l421.89-500.561 500.56 421.89-421.89 500.56z"/>
        <path d="M70.544 549.639L487.64 52.562l497.077 417.097-417.097 497.077z"/>
        <path d="M74.366 548.914L488.298 55.609 981.603 469.54 567.671 962.846z"/>
        <path d="M78.55 547.313L489.857 59.307l488.006 411.308L566.555 958.62z"/>
        <path d="M82.215 544.659l410.228-482.46 482.459 410.229-410.228 482.459z"/>
        <path d="M86.26 541.224L495.837 65.757l475.466 409.575L561.728 950.8z"/>
        <path d="M89.834 536.854L500.138 68.562l468.293 410.304-410.304 468.292z"/>
        <path d="M93.83 531.853L505.096 72.066l459.786 411.266-411.265 459.787z"/>
        <path d="M97.414 526.078l413.39-451.195 451.194 413.39-413.39 451.194z"/>
        <path d="M101.469 519.873L516.965 78.447 958.39 493.942 542.895 935.37z"/>
        <path d="M105.175 513.087l418.51-431.701 431.7 418.51-418.509 431.7z"/>
        <path d="M109.392 506.106L530.623 85.109l420.997 421.23-421.23 420.998z"/>
        <path d="M113.306 498.76l424.596-410.5 410.501 424.595-424.596 410.501z"/>
        <path d="M117.751 491.47L545.149 92.205l399.263 427.398-427.398 399.263z"/>
        <path d="M121.912 484.04l430.6-388.433 388.433 430.6-430.6 388.433z"/>
        <path d="M126.593 476.915l433-377.128 377.127 433-433 377.127z"/>
        <path d="M130.98 469.864l435.597-366.448 366.449 435.597-435.598 366.449z"/>
        <path d="M135.845 463.353l437.2-355.574 355.574 437.2-437.2 355.574z"/>
        <path d="M140.38 457.103l438.848-345.545 345.545 438.848-438.848 345.545z"/>
        <path d="M145.329 451.588L584.699 116l335.587 439.37-439.37 335.588z"/>
        <path d="M149.892 446.487l439.842-326.675L916.41 559.654 476.568 886.329z"/>
        <path d="M154.795 442.27l439.111-318.063 318.064 439.11L472.86 881.382z"/>
        <path d="M159.26 438.574l438.277-310.656 310.656 438.278-438.278 310.656z"/>
        <path d="M163.993 435.859l436.216-303.716 303.715 436.216L467.71 872.074z"/>
        <path d="M168.243 433.72L602.28 135.645 900.357 569.68 466.32 867.758z"/>
        <path d="M172.713 432.603l430.64-293 293 430.64-430.64 293z"/>
        <path d="M176.681 432.075l427.135-289.251 289.252 427.135-427.135 289.25z"/>
        <path d="M180.848 432.552l422.446-286.076L889.37 568.92 466.924 854.997z"/>
        <path d="M184.522 433.585l417.675-284.18 284.18 417.674-417.675 284.18z"/>
        <path d="M188.404 435.557L600.179 152.77l282.787 411.774-411.774 282.788z"/>
        <path d="M191.829 438.011l405.83-282.56 282.56 405.83-405.83 282.56z"/>
        <path d="M195.498 441.297l398.83-282.695 282.695 398.83-398.83 282.695z"/>
        <path d="M198.767 444.954l391.839-283.823 283.823 391.84-391.84 283.822z"/>
        <path d="M202.33 449.293l383.892-285.12 285.12 383.89-383.891 285.12z"/>
        <path d="M205.561 453.867l376.022-287.202 287.202 376.023-376.022 287.201z"/>
        <path d="M209.14 458.944l367.321-289.225L865.686 537.04 498.365 826.265z"/>
        <path d="M212.443 464.097l358.798-291.809 291.81 358.798-358.798 291.81z"/>
        <path d="M216.139 469.557l349.598-294.1 294.1 349.597-349.597 294.1z"/>
        <path d="M219.605 474.925l340.7-296.737 296.736 340.7-340.699 296.736z"/>
        <path d="M223.482 480.396l331.305-298.86 298.86 331.304L522.343 811.7z"/>
        <path d="M227.152 485.611l322.356-301.135L850.643 506.83 528.288 807.967z"/>
        <path d="M231.229 490.736L544.338 188.02 847.053 501.13l-313.11 302.714z"/>
        <path d="M235.096 495.451l304.462-304.293L843.851 495.62 539.39 799.913z"/>
        <path d="M239.341 499.906L535.056 194.87l305.036 295.715L544.377 795.62z"/>
        <path d="M243.355 503.828l287.715-305.67 305.67 287.714-287.714 305.671z"/>
        <path d="M247.705 507.352l279.794-305.381L832.88 481.764 553.086 787.146z"/>
        <path d="M251.791 510.254l272.744-304.922 304.921 272.743-272.743 304.922z"/>
        <path d="M256.165 512.663L522.08 209.167l303.495 265.914-265.913 303.495z"/>
        <path d="M260.245 514.396l260.037-301.87 301.87 260.036-260.036 301.87z"/>
        <path d="M264.571 515.587L519.043 216.31l299.278 254.472L563.85 770.059z"/>
        <path d="M268.584 516.092l249.892-296.49 296.49 249.892-249.892 296.49z"/>
        <path d="M272.815 516.05L518.47 223.29l292.76 245.654-245.655 292.76z"/>
        <path d="M276.731 515.345l242.38-288.858 288.858 242.38-242.38 288.858z"/>
    </g>
</svg>
