<svg xmlns="http://www.w3.org/2000/svg" width="83" height="30" viewBox="0 0 83 30">
    <g fill="#A0A7AF" fill-rule="nonzero">
        <path d="M28.911 6.222v5.311c0 .178.133.311.311.311h1.534a.318.318 0 0 0 .31-.31V6.2L34.912.644c.133-.222 0-.488-.267-.488h-1.71a.327.327 0 0 0-.267.155L30 4.156 27.333.31a.327.327 0 0 0-.266-.155h-1.711c-.267 0-.4.266-.267.488l3.822 5.578zM42.222 12c3.334 0 6-2.644 6-5.978a5.994 5.994 0 0 0-6-6.022c-3.333 0-5.978 2.689-5.978 6.022A5.937 5.937 0 0 0 42.222 12zm0-9.822c2.111 0 3.845 1.755 3.845 3.844 0 2.111-1.734 3.822-3.845 3.822A3.822 3.822 0 0 1 38.4 6.022c.022-2.11 1.733-3.844 3.822-3.844zM55.133 12c2.645 0 4.645-2.044 4.645-4.578V.49a.318.318 0 0 0-.311-.311h-1.578a.318.318 0 0 0-.311.31v6.845c0 1.4-.978 2.511-2.445 2.511-1.466 0-2.422-1.11-2.422-2.533V.49A.304.304 0 0 0 52.4.178h-1.578a.318.318 0 0 0-.31.31v6.934c0 2.534 2 4.578 4.621 4.578zM9.067 26.778c-.111-.111-.29-.111-.423 0-.71.578-1.555.955-2.555.955-2.133 0-3.733-1.777-3.733-3.844 0-2.111 1.577-3.889 3.71-3.889.934 0 1.867.378 2.578.978.134.133.312.133.423 0l1.022-1.045a.306.306 0 0 0-.022-.466C8.933 18.444 7.71 17.91 6.022 17.91a5.98 5.98 0 0 0-6.022 6c0 3.333 2.689 5.978 6.022 5.978 1.49 0 2.911-.511 4.045-1.622.11-.111.155-.334.022-.445l-1.022-1.044zM17.356 17.889c-3.334 0-5.978 2.689-5.978 6.022a5.937 5.937 0 0 0 5.978 5.978c3.333 0 6-2.645 6-5.978 0-3.333-2.645-6.022-6-6.022zm0 9.844a3.822 3.822 0 0 1-3.823-3.822c0-2.111 1.711-3.844 3.823-3.844 2.11 0 3.844 1.755 3.844 3.844 0 2.111-1.733 3.822-3.844 3.822zM35.089 18.067h-1.533a.318.318 0 0 0-.312.31v6.89h-.022l-6.933-7.378h-.422a.304.304 0 0 0-.311.311v11.222c0 .178.155.311.31.311h1.512a.318.318 0 0 0 .31-.31v-7.179h.023l6.978 7.667h.4a.304.304 0 0 0 .311-.311V18.378c.022-.156-.133-.311-.311-.311zM82.511 27.733h-4.244v-9.355a.318.318 0 0 0-.311-.311h-1.534a.318.318 0 0 0-.31.31v11.045c0 .178.132.311.31.311h6.111a.318.318 0 0 0 .311-.31v-1.379c-.022-.155-.155-.31-.333-.31zM58.844 21.644c0-1.977-1.644-3.577-3.644-3.577h-4.756a.318.318 0 0 0-.31.31v11.045c0 .178.133.311.31.311h1.534a.318.318 0 0 0 .31-.31v-4.245h1.845l2.223 4.422c.044.067.11.156.266.156h1.756c.289 0 .4-.267.289-.49l-2.29-4.244c1.445-.578 2.467-1.844 2.467-3.378zm-3.822 1.734h-2.71v-3.311h2.71c.89 0 1.645.733 1.645 1.622a1.665 1.665 0 0 1-1.645 1.689zM67.133 17.889c-3.333 0-5.977 2.689-5.977 6.022a5.937 5.937 0 0 0 5.977 5.978c3.334 0 6-2.645 6-5.978a5.994 5.994 0 0 0-6-6.022zm0 9.844a3.822 3.822 0 0 1-3.822-3.822c0-2.111 1.711-3.844 3.822-3.844 2.111 0 3.845 1.755 3.845 3.844 0 2.111-1.734 3.822-3.845 3.822z"/>
        <path d="M82.756 15.711v-1.378a.304.304 0 0 0-.312-.31H.556a.318.318 0 0 0-.312.31v1.378c0 .178.134.311.312.311H41.133V29.4c0 .178.156.311.311.311H43a.318.318 0 0 0 .311-.311V16.044H82.444c.178 0 .312-.155.312-.333z"/>
    </g>
</svg>
