<svg xmlns="http://www.w3.org/2000/svg" width="83" height="72" viewBox="0 0 83 72">
    <g fill="none" fill-rule="evenodd">
        <path fill="#FFF" d="M38.25 6.75h36V54h-36z"/>
        <path fill="#3B9988" d="M72.191 44.063c-.946 1.956-2.212 3.572-3.796 4.847-1.585 1.276-3.386 2.233-5.402 2.87a20.586 20.586 0 0 1-6.236.958c-1.975 0-3.858-.257-5.65-.772-1.789-.514-3.416-1.244-4.877-2.192a14.81 14.81 0 0 1-3.765-3.488 13.946 13.946 0 0 1-2.315-4.661l9.446-2.902a7.344 7.344 0 0 0 2.562 3.766c1.255.988 2.748 1.482 4.476 1.482 1.769 0 3.302-.535 4.6-1.605 1.296-1.07 1.944-2.654 1.944-4.754 0-1.275-.268-2.346-.803-3.21a6.216 6.216 0 0 0-2.068-2.069c-.844-.514-1.801-.874-2.87-1.08a17.029 17.029 0 0 0-3.211-.309c-1.564 0-3.344.176-5.34.525-1.998.35-3.777.813-5.34 1.39l1.048-25.005H71.39v8.89H53.794l-.37 6.915a13.4 13.4 0 0 1 2.19-.34 28.69 28.69 0 0 1 2.192-.092c2.182 0 4.24.289 6.174.865 1.935.577 3.613 1.45 5.033 2.623 1.419 1.174 2.54 2.624 3.364 4.353.822 1.728 1.234 3.745 1.234 6.05 0 2.676-.473 4.991-1.42 6.945zm-40.845-7.532h-7.632l7.437-20.078.195.54V36.53zM24.54.837L0 59.337h15.368l4.298-11.486h11.68v11.486h33.393c9.701 0 17.565-6.6 17.565-17.566V.837H24.54z"/>
        <path fill="#000" fill-opacity=".87" d="M4.491 66.069a1.547 1.547 0 0 0-.578-.446 1.622 1.622 0 0 0-1.034-.136.903.903 0 0 0-.318.114.793.793 0 0 0-.235.222.588.588 0 0 0-.095.346c0 .12.025.222.075.302.05.08.124.15.22.21.098.062.213.116.347.166.135.05.284.103.452.156.242.08.492.17.754.266.26.098.5.226.713.387.214.16.392.36.533.597.14.24.211.535.211.89 0 .409-.075.762-.226 1.06a2.11 2.11 0 0 1-.608.738c-.255.195-.546.34-.874.432-.329.094-.667.141-1.015.141a4.198 4.198 0 0 1-1.477-.266 3.125 3.125 0 0 1-1.186-.759l1.126-1.145c.174.214.404.394.688.538.284.144.568.215.85.215.126 0 .25-.012.37-.04a.899.899 0 0 0 .317-.131.646.646 0 0 0 .217-.24c.053-.1.08-.22.08-.361a.575.575 0 0 0-.1-.343.992.992 0 0 0-.287-.256 2.306 2.306 0 0 0-.462-.21 25.97 25.97 0 0 0-.628-.207 6.014 6.014 0 0 1-.669-.261c-.217-.1-.41-.23-.582-.387a1.788 1.788 0 0 1-.412-.572 1.948 1.948 0 0 1-.156-.82c0-.394.081-.733.24-1.014.163-.282.373-.512.634-.693.262-.181.556-.313.885-.396a3.694 3.694 0 0 1 2.225.095c.418.147.785.364 1.1.652L4.491 66.07zM16.479 68.319v3.015H14.76v-3.015l-2.673-4.1h2.08l1.517 2.633 1.517-2.632h2.01zM30.054 66.069a1.547 1.547 0 0 0-.578-.446 1.622 1.622 0 0 0-1.035-.136.903.903 0 0 0-.317.114.793.793 0 0 0-.235.222.588.588 0 0 0-.096.346c0 .12.025.222.076.302.05.08.124.15.22.21.098.062.213.116.346.166.135.05.285.103.453.156.242.08.492.17.754.266.26.098.499.226.712.387.215.16.393.36.534.597.14.24.21.535.21.89 0 .409-.075.762-.225 1.06a2.11 2.11 0 0 1-.608.738c-.256.195-.546.34-.874.432-.33.094-.668.141-1.015.141a4.198 4.198 0 0 1-1.478-.266 3.125 3.125 0 0 1-1.185-.759l1.126-1.145c.174.214.403.394.687.538.285.144.569.215.85.215.126 0 .251-.012.37-.04a.899.899 0 0 0 .317-.131.646.646 0 0 0 .217-.24c.054-.1.08-.22.08-.361a.575.575 0 0 0-.1-.343.992.992 0 0 0-.286-.256 2.306 2.306 0 0 0-.462-.21 25.97 25.97 0 0 0-.628-.207 6.014 6.014 0 0 1-.67-.261c-.216-.1-.41-.23-.581-.387a1.788 1.788 0 0 1-.412-.572 1.948 1.948 0 0 1-.156-.82c0-.394.08-.733.24-1.014.162-.282.373-.512.634-.693.262-.181.555-.313.884-.396a3.694 3.694 0 0 1 2.225.095c.419.147.786.364 1.1.652l-1.094 1.156zM41.378 65.687v5.646H39.66v-5.646h-2.009V64.22h5.737v1.467zM49.89 71.333V64.22h4.782v1.446h-3.124v1.347H54.5v1.376h-2.953v1.477h3.305v1.467zM67.805 71.333l.04-5.034h-.03l-1.848 5.034H64.76L62.963 66.3h-.03l.04 5.034h-1.618V64.22H63.8l1.619 4.561h.04l1.55-4.56h2.484v7.112zM80.335 66.069a1.547 1.547 0 0 0-.577-.446 1.622 1.622 0 0 0-1.035-.136.903.903 0 0 0-.317.114.793.793 0 0 0-.236.222.588.588 0 0 0-.095.346c0 .12.025.222.075.302.05.08.124.15.22.21.098.062.213.116.347.166.135.05.285.103.452.156.242.08.492.17.755.266.26.098.498.226.712.387.214.16.393.36.533.597.14.24.211.535.211.89 0 .409-.075.762-.226 1.06a2.11 2.11 0 0 1-.608.738c-.255.195-.545.34-.874.432-.329.094-.667.141-1.014.141a4.198 4.198 0 0 1-1.478-.266 3.125 3.125 0 0 1-1.186-.759l1.127-1.145c.174.214.403.394.687.538.285.144.568.215.85.215.126 0 .25-.012.37-.04a.899.899 0 0 0 .317-.131.646.646 0 0 0 .217-.24c.053-.1.08-.22.08-.361a.575.575 0 0 0-.1-.343.992.992 0 0 0-.287-.256 2.306 2.306 0 0 0-.462-.21 25.97 25.97 0 0 0-.628-.207 6.014 6.014 0 0 1-.669-.261c-.216-.1-.41-.23-.581-.387a1.788 1.788 0 0 1-.412-.572 1.948 1.948 0 0 1-.157-.82c0-.394.081-.733.241-1.014.162-.282.373-.512.633-.693.262-.181.556-.313.885-.396a3.694 3.694 0 0 1 2.225.095c.418.147.786.364 1.1.652l-1.095 1.156z"/>
    </g>
</svg>
