<svg xmlns="http://www.w3.org/2000/svg" width="86" height="30" viewBox="0 0 86 30">
    <g fill="none" fill-rule="evenodd">
        <path fill="#A0A7AF" d="M37.157 18.636v-7.508c0-.591.468-1.059 1.06-1.059h2.698c3.03 0 5.122 2.077 5.122 4.785v.028c0 2.709-2.092 4.812-5.122 4.812h-2.698c-.592 0-1.06-.467-1.06-1.058zm2.12-.853h1.638c1.735 0 2.906-1.169 2.906-2.874v-.027c0-1.705-1.17-2.901-2.906-2.901h-1.638v5.802zm10.28 1.911h5.412a.94.94 0 0 0 .95-.935.951.951 0 0 0-.95-.948h-4.365v-2.022h3.676a.94.94 0 0 0 .95-.935.951.951 0 0 0-.95-.948h-3.676v-1.953H54.9a.94.94 0 0 0 .95-.935.951.951 0 0 0-.95-.949h-5.342c-.593 0-1.06.468-1.06 1.06v7.507c0 .59.467 1.058 1.06 1.058zm8.078-.907c0-.151.055-.303.124-.454l3.36-7.576c.234-.523.66-.839 1.239-.839h.124c.578 0 .991.316 1.225.839l3.36 7.576c.069.151.11.289.11.426 0 .564-.44 1.018-1.005 1.018-.496 0-.826-.289-1.02-.729l-.646-1.512h-4.241l-.675 1.58c-.179.413-.537.66-.977.66a.975.975 0 0 1-.978-.99zm3.415-3.121h2.67l-1.335-3.177-1.335 3.177zm8.367 2.97c0 .59.468 1.058 1.06 1.058h4.984a.957.957 0 0 0 .964-.962.957.957 0 0 0-.964-.963h-3.924v-6.723c0-.592-.468-1.06-1.06-1.06-.592 0-1.06.468-1.06 1.06v7.59zm12.524 1.196c2.08 0 3.539-1.073 3.539-2.984v-.027c0-1.678-1.102-2.38-3.057-2.888-1.666-.426-2.079-.632-2.079-1.265v-.027c0-.468.427-.84 1.24-.84.66 0 1.321.235 2.023.647.166.096.33.151.537.151.551 0 .992-.426.992-.976a.965.965 0 0 0-.468-.839c-.868-.55-1.887-.852-3.057-.852-1.969 0-3.373 1.155-3.373 2.901v.028c0 1.91 1.253 2.447 3.194 2.942 1.61.413 1.941.688 1.941 1.224v.027c0 .564-.523.908-1.39.908-.937 0-1.735-.33-2.465-.866a1.02 1.02 0 0 0-.606-.193.975.975 0 0 0-.991.976c0 .33.165.633.4.798a6.227 6.227 0 0 0 3.62 1.155z"/>
        <g>
            <rect width="28" height="28" x="1" y="1" stroke="#A0A7AF" stroke-width="2" rx="8"/>
            <g fill="#A0A7AF">
                <path d="M19.706 15.86c0 1.604-.45 2.919-1.348 3.945-.898 1.026-2.127 1.538-3.684 1.538h-3.02V8.073h3.02c.846 0 1.594.153 2.246.455l.297-.73a.53.53 0 1 1 .177.08l-.344.713c.494.25.93.59 1.308 1.022.899 1.025 1.348 2.333 1.348 3.921v2.326zm.272-7.549c-1.338-1.354-3.106-2.03-5.304-2.03H9.375v16.844h5.299c2.198 0 3.966-.673 5.304-2.019s2.007-3.094 2.007-5.246v-2.302c0-2.144-.669-3.893-2.007-5.247z"/>
                <path d="M18.009 7.572a.53.53 0 0 1-.615.307l-1.328 2.748 1.15-2.829a.53.53 0 1 1 .793-.226m1.037-.079a6.894 6.894 0 0 0-2.156-.952c-.896-.238-1.66-.26-2.505-.284a16.82 16.82 0 0 0-1.617.031c.339.102 2.063.655 2.885 2.378.373.781.423 1.513.412 1.966a4.788 4.788 0 0 1 2.303-.962 4.836 4.836 0 0 1 2.96.582c-.315-.696-.983-1.877-2.282-2.759"/>
            </g>
        </g>
    </g>
</svg>
