<svg xmlns="http://www.w3.org/2000/svg" width="84" height="30" viewBox="0 0 84 30">
    <g fill="#A0A7AF" fill-rule="evenodd">
        <path d="M62.148 9.773c.003-2.133-.457-3.672-1.554-4.99-1.167-1.402-2.664-2.124-4.488-2.226-1.891-.105-3.588.335-4.977 1.674-2.065 1.992-2.672 5.265-1.503 7.984 1.087 2.533 3.427 3.999 6.188 3.89 1.1-.044 2.154-.254 3.103-.835 2.213-1.355 3.182-3.394 3.231-5.497M57.498.088c.548.137 1.1.22 1.61.411 2.508.942 4.257 2.679 5.192 5.186.78 2.09.847 4.243.273 6.393-.738 2.768-2.408 4.797-5.052 5.936-1.69.727-3.47.921-5.307.666-1.37-.19-2.644-.598-3.817-1.342-1.505-.954-2.588-2.256-3.29-3.88-.972-2.254-1.078-4.592-.471-6.935.673-2.597 2.252-4.534 4.676-5.708.66-.32 1.423-.428 2.14-.627.087-.023 1.074-.109 2.14-.174.722-.044 1.942.025 1.905.074M32.242 9.3V1.581c0-.82.56-1.389 1.376-1.39h10.514c.775.001 1.24.436 1.276 1.178.039.802-.423 1.385-1.194 1.416-.903.036-1.807.016-2.711.014a1234.66 1234.66 0 0 1-6.008-.022c-.274-.002-.374.106-.372.37.011 1.32.017 2.641.022 3.962.003.766 0 .767.785.767 1.836 0 3.672-.007 5.508.003 1.09.006 1.769 1.104 1.242 2.019-.265.461-.696.702-1.245.698-2.002-.016-4.003-.035-6.005-.033-.1 0-.284.183-.286.282-.018 1.571-.014 3.143-.014 4.714 0 .226.11.314.34.313 2.822-.01 5.645-.016 8.468-.024.92-.003 1.472.491 1.471 1.323 0 .873-.538 1.378-1.472 1.378h-10.14c-.943-.001-1.555-.624-1.555-1.572.002-2.559 0-5.118 0-7.677M82.97 1.59v15.621c0 1.071-1.094 1.522-1.674 1.234-.554-.275-.863-.701-.863-1.315-.002-2.085.006-4.17.026-6.255.004-.305-.131-.404-.393-.403-2.725.006-5.45.015-8.175.023-.995.003-.998.003-1 1-.002 1.89.009 3.782-.004 5.673-.006 1.03-1.011 1.68-1.929 1.249-.56-.263-.799-.752-.802-1.356-.006-.931 0-1.863 0-2.795 0-4.185-.005-8.37.007-12.556.001-.31.065-.646.2-.92.262-.533.984-.756 1.642-.573.492.136.882.636.883 1.193.002 2.03 0 4.059-.026 6.088-.004.4.216.38.479.38l8.26-.001c.152 0 .305 0 .458.004.317.01.471-.1.396-.45-.04-.187-.021-.387-.022-.58-.003-1.753.004-3.505-.01-5.257-.01-1.102.601-1.27 1.238-1.276.695-.007 1.31.264 1.31 1.273M7.94 4.837l-.11.013c-.106.31-.195.625-.318.927-.82 1.999-1.644 3.995-2.474 5.989-.125.3-.017.372.262.37 1.084-.008 2.169-.011 3.253-.012.625-.001 1.25 0 1.876.01.288.005.437-.055.285-.382-.14-.302-.25-.616-.376-.924-.6-1.475-1.203-2.948-1.8-4.425-.209-.518-.4-1.043-.599-1.566M7.894.197C8.54.128 8.917.445 9.141.986c.719 1.728 1.427 3.46 2.15 5.185.563 1.341 1.151 2.672 1.71 4.014.614 1.472 1.203 2.954 1.81 4.429.28.68.606 1.341.862 2.03.296.792-.07 1.534-.844 1.818-.76.277-1.489-.076-1.805-.875-.342-.863-.713-1.715-1.019-2.591-.161-.462-.463-.398-.82-.395-1.906.014-3.812.007-5.717.004-.417-.001-.836-.054-1.248-.016-.154.015-.358.19-.424.343-.388.888-.718 1.802-1.122 2.682a1.823 1.823 0 0 1-.668.755c-.547.334-1.09.238-1.54-.161-.45-.4-.6-1.122-.335-1.773.486-1.194.993-2.38 1.488-3.57.765-1.843 1.525-3.688 2.294-5.53.881-2.108 1.761-4.216 2.66-6.317.244-.57.67-.92 1.321-.821M20.807 6.238h.002c0 1.014.007 2.028-.005 3.042-.003.29.106.403.39.4 1-.013 2.001.012 3-.035.434-.021.897-.11 1.287-.294 1.574-.747 2.204-2.279 1.726-4.193a3.179 3.179 0 0 0-3.235-2.365c-.915.033-1.834.005-2.75-.009-.3-.004-.425.096-.42.411.013 1.014.005 2.029.005 3.043M18.042 9.31V1.637c0-.965.487-1.446 1.458-1.446 1.613 0 3.226.026 4.838-.006 3.104-.061 5.648 2.5 5.745 5.624.036 1.138-.048 2.248-.58 3.287-.553 1.083-1.345 1.92-2.429 2.492-.982.52-2.026.736-3.124.737-.903.002-1.807.003-2.71-.017-.33-.008-.439.105-.435.435.016 1.46.017 2.919.01 4.378-.003.785-.37 1.249-1.077 1.418-.555.133-1.277-.203-1.564-.788-.11-.223-.126-.508-.127-.766-.009-2.558-.005-5.116-.005-7.674M47.867 25.83c0-.987.002-1.974-.002-2.961-.002-.371.128-.676.491-.784.349-.104.7-.08.89.319.105.217.239.248.42.075.777-.746 2.774-.713 3.564.3.18.233.332.176.509-.01.887-.935 2.778-1.065 3.772-.313.757.573 1.06 1.357 1.09 2.242.05 1.417.031 2.837.036 4.255.001.398-.348.743-.744.755-.463.014-.783-.282-.788-.778-.012-1.182-.005-2.364-.006-3.546 0-.195.004-.39-.01-.585-.061-.926-.654-1.502-1.519-1.483-.827.018-1.542.706-1.554 1.552-.02 1.307-.007 2.615-.007 3.922 0 .578-.303.936-.779.92-.474-.017-.76-.408-.752-.96.019-1.265.034-2.53.017-3.796-.014-1.03-.6-1.642-1.5-1.64-.902.003-1.618.746-1.627 1.717-.01 1.266-.001 2.531-.001 3.797 0 .576-.277.897-.757.881-.467-.015-.749-.378-.744-.917.009-.987.003-1.974.003-2.961h-.002zM35.295 28.397c1.355-.008 2.414-1.135 2.402-2.556-.013-1.43-1.11-2.554-2.482-2.541-1.302.011-2.382 1.19-2.361 2.578.022 1.45 1.065 2.527 2.44 2.52m2.268.25c-.116.056-.191.07-.23.115-1.384 1.645-4.73 1.328-5.685-1.452-.76-2.212.198-4.534 2.538-5.182 1.699-.47 3.413.02 4.465 1.816.352.6.501 1.256.507 1.95.008 1 .028 2.002.026 3.003 0 .41-.372.797-.744.818-.432.025-.778-.288-.837-.757l-.04-.312M7.754 25.837c-.126 1.494 1.223 2.585 2.401 2.58 1.378-.005 2.428-1.186 2.418-2.537-.01-1.55-1.075-2.565-2.416-2.58-1.188-.012-2.497 1.013-2.403 2.537m6.216.397c-.145 2.265-1.979 3.61-4.014 3.51-2.234-.108-3.752-1.874-3.656-4.074.1-2.296 1.87-3.757 4.032-3.692 2.15.064 3.901 1.872 3.638 4.256M68.896 25.858c0-.987.001-1.974 0-2.961-.001-.565.246-.858.731-.862.498-.004.742.265.745.84.004.583.004 1.167-.008 1.751-.007.316.098.436.44.427 1.098-.025 2.197-.015 3.295-.01.445.001.506-.066.49-.503a28.667 28.667 0 0 1-.022-1.75c.01-.492.307-.769.756-.757.453.011.714.289.715.791.005 2.03.004 4.06 0 6.09 0 .49-.271.774-.724.786-.394.01-.734-.3-.745-.739-.016-.68-.014-1.363.013-2.043.02-.502-.037-.554-.558-.549a93.477 93.477 0 0 1-3.25-.019c-.332-.008-.414.128-.41.416.008.695.012 1.39.008 2.085-.003.559-.26.842-.748.848-.43.006-.73-.357-.729-.88.002-.987 0-1.974 0-2.96M22.465 25.875c0 1 .003 2.001-.001 3.002-.002.514-.25.81-.678.828-.437.017-.778-.299-.787-.79-.012-.68.002-1.361.03-2.041.02-.47-.046-.508-.52-.497a71.28 71.28 0 0 1-3.168-.012c-.488-.011-.546.027-.537.529.01.653.01 1.306.006 1.959-.002.526-.308.866-.756.853-.452-.013-.734-.356-.731-.888.009-1.764.018-3.53.024-5.294.002-.236-.029-.473-.02-.708.02-.519.3-.795.772-.786.448.008.705.285.71.795.006.584.013 1.169-.016 1.75-.02.383.14.475.492.473 1.138-.008 2.276.007 3.414.022.38.005.328-.27.327-.493 0-.582-.031-1.166-.03-1.749 0-.34.12-.641.474-.755.328-.106.654-.066.85.25.095.155.136.364.139.55.013 1 .006 2 .006 3.002M65.704 29.042c-.629.24-1.17.534-1.747.65-1.11.225-2.117-.064-2.957-.858-.62-.586-.927-1.32-.949-2.153a135.827 135.827 0 0 1-.03-3.92c.001-.478.295-.735.774-.733.416.002.727.298.73.743.01 1.167.005 2.334.004 3.502 0 .903.353 1.592 1.21 1.959.824.352 1.858.15 2.48-.458.316-.308.48-.672.476-1.115-.01-1.237-.011-2.473-.026-3.71-.006-.558.287-.912.788-.919.511-.007.76.272.76.87.002 1.946 0 3.892 0 5.838 0 .552-.2.864-.613.948-.388.079-.64-.1-.883-.623-.016-.035-.053-.06-.017-.02"/>
        <path d="M.016 25.881c0-1.014-.003-2.03.002-3.044.003-.547.23-.816.667-.822.45-.005.757.331.761.853.004.57.002 1.14-.009 1.71-.006.332.064.49.473.481.421-.009.675-.15.94-.464.662-.786 1.366-1.537 2.063-2.292.371-.403.947-.377 1.216.036.208.319.148.597-.108.864-.722.751-1.43 1.517-2.16 2.26-.227.232-.232.372.004.611.8.81 1.577 1.645 2.355 2.477.3.32.291.64.004.916-.335.323-.797.328-1.113-.009-.846-.901-1.68-1.815-2.53-2.712-.133-.14-.323-.28-.505-.31-.572-.092-.637-.007-.63.58.008.625.007 1.25 0 1.876-.006.5-.302.831-.733.84-.432.008-.693-.3-.696-.849-.005-1-.001-2.001-.001-3.002M82.86 23.136c.206.39.498 1.53-.06 2.138-.24.164-.435.357-.67.447-.707.273-1.43.505-2.147.752-.289.1-.588.174-.864.3-.333.15-.593.4-.561.798.033.411.318.668.698.73 1.076.176 2.057.177 3.059-.449a.764.764 0 0 1 .568-.2c.483.033.878.98-.083 1.481-.694.19-1.398.442-2.123.563-.909.153-1.811.027-2.608-.48-.626-.4-1.05-.929-1.014-1.744.028-.65.35-1.091.85-1.447.673-.48 1.458-.657 2.245-.836.337-.076.676-.165.995-.295a.775.775 0 0 0 .508-.747c.006-.363-.222-.562-.518-.683-.937-.385-1.79-.168-2.593.385-.168.115-.346.24-.537.291-.295.08-.54-.03-.7-.315-.161-.288-.107-.533.111-.756.63-.645 1.401-.974 2.294-1.048 1.01-.084 1.974-.008 2.788.695.079.068.248.198.362.42M23.788 25.85c-.08-1.624.92-3.283 2.715-3.736 1.414-.358 2.734-.1 3.766 1.05.296.33.308.576.035.876-.28.307-.597.348-.923.11-.279-.205-.523-.473-.827-.621a2.294 2.294 0 0 0-3.258 1.628c-.2 1.02-.062 1.966.797 2.69.856.72 2.15.761 3.043.078.282-.215.603-.31.88-.097.165.128.26.407.285.63.015.136-.132.328-.256.437-.762.67-1.672.915-2.667.839-2.14-.163-3.585-1.733-3.59-3.884M43.183 24.562c-.691 1.544-1.374 3.092-2.066 4.636-.218.486-.564.612-1.01.395-.443-.215-.547-.58-.328-1.041.662-1.39 1.316-2.783 1.972-4.176.283-.602.564-1.207.847-1.81.143-.306.335-.532.72-.529.385.005.57.24.712.545.935 2.014 1.872 4.027 2.805 6.042.214.462.115.762-.301.969-.427.212-.773.105-.983-.368-.69-1.559-1.36-3.127-2.038-4.69-.027-.06-.076-.11-.139-.198-.077.088-.156.147-.191.225z"/>
    </g>
</svg>
