<svg xmlns="http://www.w3.org/2000/svg" width="133" height="23" viewBox="0 0 133 23">
    <g fill="#A0A7AF" fill-rule="evenodd">
        <path d="M36.164 3.398h-5.042v10.484h-3.994V3.398h-5.04V.094h14.076v3.304zM20.224.094v13.788h-3.99l-6.258-7.81v7.81H5.988V.094h3.988V.12l.09-.026 6.168 7.722V.094h3.99zM.152 13.882h3.994V.094H.152v13.788zm38.008 6.472l1.172-2.616h12.234l-1.168 2.616H38.16zm50.894-9.586h4.958V8.244h-5.068c-1.43 0-1.56.826-1.56 1.26 0 .414.07 1.264 1.67 1.264zM84.444.146l8.986.026c1.246 0 2.294.482 3.15 1.444.856.964 1.288 2.096 1.288 3.582v8.684H88.87c-4.736 0-5.366-3.076-5.366-3.988 0-2.044.866-4.602 5.646-4.602h4.862v-.9c0-.784-.37-1.238-1.294-1.238h-8.274V.146zM66.888.094v3.32h-9.452v7.266h9.452v3.202h-9.062c-2.156 0-4.488-2.204-4.488-4.808V4.89c0-2.782 2.21-4.796 4.522-4.796h9.028zm46.428 0v3.32h-9.454v7.266h9.454v3.202h-9.062c-2.158 0-4.49-2.204-4.49-4.808V4.89c0-2.782 2.212-4.796 4.52-4.796h9.032zm-61.804 0v3.304h-9.41v2.298h6.15l-1.17 2.614h-4.98v2.458h9.41v3.114h-9.016c-2.144 0-4.472-2.176-4.472-4.76V4.868c0-2.768 2.2-4.774 4.5-4.774h8.988zm74.304 13.788h-4.234V8.34L115.176.128h4.61l3.862 5.378 3.94-5.378h4.698l-6.47 8.214v5.586-.046zm-48.222 0l-2.642-4.46H72.62l-.004 4.46h-3.828l.01-13.754h8.478c4.372 0 5.258 2.77 5.258 4.478 0 3.442-2.274 4.22-3.332 4.6l2.874 4.676h-4.482zM77 3.398h-4.458v3.114H77c1.076 0 1.642-.832 1.642-1.566 0-.686-.432-1.548-1.642-1.548zM95.812 20.318c0-1.53 1.18-2.5 2.632-2.5 1.022 0 1.664.508 2.028 1.08l-.858.464a1.433 1.433 0 0 0-1.17-.632c-.904 0-1.554.674-1.554 1.588 0 .916.65 1.588 1.554 1.588.434 0 .84-.186 1.042-.372v-.578h-1.304v-.9h2.352v1.86c-.506.55-1.2.904-2.09.904-1.452 0-2.632-.978-2.632-2.502M105.366 19.448c0-.4-.316-.644-.734-.644h-1.11v1.302h1.11c.418 0 .734-.244.734-.658m-.104 3.284l-.968-1.716h-.772v1.716h-1.048v-4.836h2.308c1.028 0 1.666.66 1.666 1.56 0 .846-.556 1.312-1.088 1.434l1.114 1.842h-1.212M112.49 20.318c0-.904-.586-1.588-1.496-1.588-.916 0-1.5.684-1.5 1.588 0 .9.584 1.588 1.5 1.588.91 0 1.496-.688 1.496-1.588m-4.078 0c0-1.456 1.088-2.5 2.582-2.5 1.486 0 2.572 1.044 2.572 2.5 0 1.458-1.086 2.502-2.572 2.502-1.494 0-2.582-1.044-2.582-2.502M115.506 20.796v-2.9h1.064v2.872c0 .674.402 1.138 1.164 1.138.762 0 1.152-.464 1.152-1.138v-2.872h1.076v2.9c0 1.196-.722 2.024-2.228 2.024-1.5 0-2.228-.828-2.228-2.024M124.794 19.456c0-.408-.316-.652-.728-.652h-1.116v1.294h1.116c.412 0 .728-.244.728-.642m-2.892 3.276v-4.836h2.312c1.072 0 1.652.712 1.652 1.56 0 .84-.59 1.55-1.652 1.55h-1.264v1.726h-1.048"/>
    </g>
</svg>
