<svg xmlns="http://www.w3.org/2000/svg" width="148" height="30" viewBox="0 0 148 30">
    <g fill="none" fill-rule="evenodd">
        <path fill="#A0A7AF" d="M0 0h19.2v30l-9.619-7.826L0 30z"/>
        <path fill="#F9F9FA" d="M6.37 10.706l-1.086 1.045A3.992 3.992 0 0 1 5 10.319c0-1.144.496-2.066 1.487-2.767.83-.59 2.25-.885 4.261-.885.342 0 .641.007.9.02.714.047 1.08.07 1.1.07h.484c-.36.562-.54 1.701-.54 3.417l.007.36.028.795c0 .955.117 1.932.352 2.933.093.387.183.636.27.747.088.11.24.166.457.166.235 0 .502-.076.802-.228a.536.536 0 0 1 .049.193c0 .116-.09.215-.27.298l-.325.159-1.702.74a14.778 14.778 0 0 1-.685-3.666l-.526.367H8.825c-.424 1.079-1.005 1.849-1.743 2.31l1.432.07-.747.788-2.76-.097.92-.83.692.041c.313-.23.58-.554.802-.972.221-.417.551-1.225.99-2.424l.207-.574c.424-1.158.828-2 1.21-2.529.383-.528.904-.962 1.564-1.304-.724-.133-1.488-.2-2.29-.2-2.043 0-3.064.69-3.064 2.068 0 .47.11.911.332 1.321zm5.291 1.584a25.395 25.395 0 0 1-.096-1.95c0-.254.004-.461.013-.623l.056-.802c.037-.549.087-.969.152-1.26-.904.554-1.646 1.684-2.227 3.39-.167.494-.263.777-.291.851l-.16.394h2.553z"/>
        <path fill="#A0A7AF" d="M29.707 6.28h-2.14L27.16 7.5h-1.298l2.205-5.924h1.131L31.416 7.5h-1.298l-.411-1.22zm-1.81-.99h1.48l-.744-2.217-.737 2.218zm8.971.237c-.046.637-.281 1.139-.706 1.505-.424.366-.984.55-1.678.55-.76 0-1.357-.256-1.793-.768-.435-.511-.653-1.213-.653-2.105v-.362c0-.57.1-1.072.301-1.506.201-.434.488-.767.861-.999.373-.232.806-.348 1.3-.348.684 0 1.234.183 1.652.55.418.366.66.88.724 1.542h-1.22c-.03-.383-.137-.66-.32-.833-.183-.172-.462-.258-.836-.258-.407 0-.711.146-.913.438-.203.291-.306.743-.312 1.357v.447c0 .64.097 1.108.291 1.404.194.296.5.443.918.443.377 0 .658-.086.844-.258.186-.172.292-.439.32-.8h1.22zm6.002-.855c0 .583-.103 1.095-.31 1.534-.206.44-.5.779-.885 1.017a2.448 2.448 0 0 1-1.32.358c-.491 0-.93-.118-1.314-.354a2.352 2.352 0 0 1-.895-1.01c-.212-.439-.32-.943-.322-1.512v-.293c0-.584.105-1.097.315-1.54.21-.444.508-.784.892-1.022a2.451 2.451 0 0 1 1.316-.356c.494 0 .932.119 1.316.356.384.238.681.578.891 1.022.21.443.316.955.316 1.536v.264zm-1.237-.269c0-.62-.112-1.093-.334-1.416-.222-.322-.54-.484-.952-.484-.41 0-.726.16-.948.478-.223.32-.335.786-.338 1.402v.289c0 .605.111 1.074.334 1.408.222.334.542.5.96.5.41 0 .724-.16.944-.482.22-.321.33-.79.334-1.406v-.289zm2.404-2.827h1.22v4.943h2.373V1.576h1.225v4.943h.81l-.082 2.41h-1.14V7.5h-4.406V1.576zM52.045 7.5h-1.221V1.576h1.22V7.5zm4.882-1.22h-2.14L54.38 7.5h-1.298l2.205-5.924h1.131L58.636 7.5h-1.298l-.41-1.22zm-1.81-.99h1.48l-.744-2.217-.737 2.218zm4.353-3.714h1.22v4.943h2.373V1.576h1.225v4.943h.81l-.082 2.41h-1.14V7.5H59.47V1.576zM67.477 7.5h-1.22V1.576h1.22V7.5zm4.203 0V5.364h-.993L69.618 7.5H68.3l1.265-2.527c-.61-.336-.915-.858-.915-1.566 0-.58.19-1.03.57-1.347.38-.318.91-.48 1.59-.484h2.096V7.5H71.68zm-1.81-4.004c0 .331.08.571.242.72.161.15.403.224.726.224h.842V2.564h-.842c-.646 0-.968.31-.968.932zm12.28 5.46h-1.128V7.5H77.45v1.453h-1.156l-.065-2.434h.447c.242-.2.428-.495.56-.885.131-.389.22-.871.266-1.446l.171-2.612h3.882v4.943h.692l-.098 2.438zM78.075 6.52h2.258V2.564h-1.501l-.102 1.559c-.081 1.044-.3 1.843-.655 2.396zm8.708-1.587H84.44V6.52h2.75V7.5h-3.97V1.576h3.962v.988H84.44v1.412h2.344v.956zm2.677.48V7.5H88.24V1.576h2.311c.445 0 .836.08 1.174.244a1.8 1.8 0 0 1 .78.693c.181.3.272.641.272 1.024 0 .58-.199 1.038-.596 1.373-.398.335-.948.503-1.65.503h-1.07zm0-.988h1.09c.323 0 .57-.076.739-.228.17-.152.254-.369.254-.651 0-.29-.086-.525-.256-.704-.171-.18-.407-.271-.708-.277h-1.12v1.86zm9.277.663h-.704V7.5h-1.221V5.087h-.72L94.803 7.5H93.28l1.847-3.178-1.757-2.746h1.517l1.319 2.388h.606V1.576h1.22v2.388h.595l1.286-2.388h1.513l-1.725 2.742 1.819 3.182h-1.526l-1.257-2.413zm6.994 1.192h-2.14l-.407 1.221h-1.298l2.205-5.924h1.131l2.218 5.924h-1.298l-.411-1.22zm-1.81-.988h1.48l-.744-2.218-.737 2.218zm4.406 2.209V1.576h2.075c.719 0 1.264.137 1.636.413.371.275.557.678.557 1.21a1.293 1.293 0 0 1-.846 1.253c.303.076.543.23.718.46.175.23.262.513.262.846 0 .57-.181 1.001-.545 1.294-.363.293-.882.443-1.554.448h-2.303zm1.22-2.58v1.6h1.046c.288 0 .512-.07.673-.206.162-.137.243-.326.243-.568 0-.542-.281-.818-.843-.826h-1.119zm0-.862h.904c.615-.011.923-.257.923-.737 0-.268-.078-.462-.234-.58-.156-.118-.402-.177-.738-.177h-.855v1.494zm9.253 3.442h-1.22V4.96H115.2V7.5h-1.22V1.576h1.22v2.4h2.38v-2.4h1.22V7.5zm4.952-5.924h1.224V7.5h-1.224V3.565L121.38 7.5h-1.22V1.576h1.22v3.942l2.373-3.942zm4.805 2.042l1.11-2.042h1.404l-1.725 2.937 1.77 2.987h-1.42l-1.14-2.075-1.139 2.075h-1.42l1.77-2.987-1.725-2.937h1.404l1.11 2.042zm-98.33 8.946h-2.645v1.148h.952c.697 0 1.25.169 1.658.506.409.338.613.793.613 1.365 0 .576-.203 1.037-.609 1.386-.405.349-.944.526-1.617.531h-2.23v-5.924h3.878v.988zm-2.645 2.132v1.823h.973c.311 0 .56-.085.746-.256.186-.17.279-.4.279-.688 0-.268-.089-.48-.267-.636-.177-.156-.42-.237-.73-.243h-1.001zm6.482-.321l1.078-2.8h1.318l-2.07 4.887-.168.322c-.306.534-.776.801-1.408.801l-.427-.016-.012-.98c.065.01.17.016.317.016.171 0 .309-.03.413-.09.105-.06.192-.17.263-.33l.15-.386-2.079-4.223h1.314l1.31 2.799zm5.492-.757l1.111-2.042h1.404l-1.725 2.937 1.77 2.987h-1.42l-1.14-2.075-1.139 2.075h-1.42l1.77-2.987-1.725-2.937h1.404l1.11 2.042zm7.394-1.054h-2.658V17.5h-1.22v-5.924h3.878v.988zm3.6 3.715h-2.14l-.407 1.221h-1.298l2.205-5.924h1.132L52.26 17.5h-1.298l-.41-1.22zm-1.81-.988h1.48l-.744-2.218-.736 2.218zm9.293-3.715V17.5h-1.225v-4.936H55.23l-.097 2.092c-.041.705-.13 1.26-.269 1.666-.138.406-.34.703-.606.891-.266.189-.63.284-1.09.287h-.318v-.98l.203-.021c.307-.04.526-.218.658-.531.131-.313.215-.871.25-1.674l.102-2.718h3.97zm5.74.988H61.96V17.5h-1.22v-4.936h-1.79v-.988h4.825v.988zm4.594 2.368h-2.343v1.587h2.75v.981h-3.971v-5.924h3.963v.988h-2.742v1.412h2.343v.956zm2.678.48V17.5h-1.221v-5.924h2.311c.445 0 .836.08 1.174.244a1.8 1.8 0 0 1 .78.693c.18.3.272.641.272 1.024 0 .58-.199 1.038-.596 1.373-.398.335-.948.503-1.65.503h-1.07zm0-.988h1.09c.323 0 .57-.076.739-.228.17-.152.254-.369.254-.651 0-.29-.086-.525-.256-.704-.171-.18-.407-.271-.708-.277h-1.12v1.86zM76.83 17.5h-1.22v-5.924h1.22V17.5zm1.465 0v-5.924h2.075c.719 0 1.264.137 1.636.413.371.275.557.678.557 1.21a1.293 1.293 0 0 1-.846 1.253c.304.076.543.23.718.46.175.23.263.513.263.846 0 .57-.182 1.001-.546 1.294-.363.293-.881.443-1.554.448h-2.303zm1.22-2.58v1.6h1.046c.288 0 .512-.07.674-.206.161-.137.242-.326.242-.568 0-.542-.28-.818-.842-.826h-1.12zm0-.862h.904c.616-.011.924-.257.924-.737 0-.268-.078-.462-.234-.58-.156-.118-.403-.177-.739-.177h-.854v1.494zm11.055-1.494h-1.814V17.5h-1.221v-4.936h-1.79v-.988h4.825v.988zm3.886 3.715h-2.14L91.91 17.5h-1.298l2.205-5.924h1.131l2.218 5.924h-1.298l-.411-1.22zm-1.81-.988h1.48l-.744-2.218-.737 2.218zm10.159.988h-2.14l-.407 1.221H98.96l2.205-5.924h1.131l2.218 5.924h-1.298l-.411-1.22zm-1.81-.988h1.48l-.744-2.218-.737 2.218zm6.627-.916l1.079-2.8h1.318l-2.071 4.887-.167.322c-.306.534-.776.801-1.408.801l-.427-.016-.012-.98c.065.01.17.016.317.016.171 0 .309-.03.413-.09.105-.06.192-.17.263-.33l.15-.386-2.08-4.223h1.315l1.31 2.799zm8.533 4.582h-1.127V17.5h-3.573v1.453H110.3l-.065-2.434h.448c.241-.2.428-.495.56-.885.131-.389.22-.871.266-1.446l.17-2.612h3.883v4.943h.691l-.097 2.438zm-4.073-2.438h2.258v-3.955h-1.501l-.102 1.559c-.082 1.044-.3 1.843-.655 2.396zm8.695-4.943h1.225V17.5h-1.225v-3.935l-2.372 3.935h-1.221v-5.924h1.22v3.942l2.373-3.942zm6.958.988h-1.815V17.5H124.7v-4.936h-1.79v-.988h4.826v.988zm5.781 2.108c0 .583-.103 1.095-.309 1.534-.206.44-.501.779-.885 1.017a2.448 2.448 0 0 1-1.32.358c-.491 0-.93-.118-1.315-.354a2.352 2.352 0 0 1-.895-1.01c-.211-.439-.319-.943-.321-1.512v-.293c0-.584.105-1.097.315-1.54.21-.444.507-.784.891-1.022a2.451 2.451 0 0 1 1.316-.356c.494 0 .933.119 1.317.356.384.238.68.578.89 1.022.211.443.316.955.316 1.536v.264zm-1.237-.269c0-.62-.11-1.093-.333-1.416-.223-.322-.54-.484-.953-.484-.41 0-.725.16-.948.478-.222.32-.335.786-.337 1.402v.289c0 .605.11 1.074.333 1.408.223.334.543.5.96.5.41 0 .725-.16.945-.482.22-.321.33-.79.333-1.406v-.289zm3.678 1.01V17.5h-1.22v-5.924h2.31c.446 0 .837.08 1.175.244a1.8 1.8 0 0 1 .779.693c.182.3.273.641.273 1.024 0 .58-.2 1.038-.597 1.373-.397.335-.947.503-1.65.503h-1.07zm0-.99h1.09c.324 0 .57-.075.74-.227.169-.152.254-.369.254-.651 0-.29-.086-.525-.257-.704-.17-.18-.407-.271-.708-.277h-1.119v1.86zm5.786 3.077h-1.22v-5.924h1.22V17.5zm1.465 0v-5.924h2.075c.719 0 1.264.137 1.636.413.371.275.557.678.557 1.21a1.293 1.293 0 0 1-.846 1.253c.304.076.543.23.718.46.175.23.262.513.262.846 0 .57-.181 1.001-.545 1.294-.363.293-.882.443-1.554.448h-2.303zm1.22-2.58v1.6h1.046c.288 0 .512-.07.674-.206.16-.137.242-.326.242-.568 0-.542-.281-.818-.843-.826h-1.119zm0-.862h.904c.615-.011.923-.257.923-.737 0-.268-.078-.462-.234-.58-.156-.118-.402-.177-.738-.177h-.855v1.494zM28.584 24.375l1.078-2.8h1.319l-2.071 4.887-.167.322c-.307.534-.776.801-1.408.801l-.427-.016-.013-.98c.065.01.171.016.318.016.17 0 .308-.03.413-.09.104-.06.192-.17.262-.33l.15-.386-2.079-4.223h1.315l1.31 2.799zm5.306.704h-.704V27.5h-1.221v-5.924h1.22v2.372h.558l1.449-2.372h1.489l-1.827 2.803 2.018 3.121h-1.456l-1.526-2.421zm5.004.334V27.5h-1.22v-5.924h2.31c.446 0 .837.08 1.175.244a1.8 1.8 0 0 1 .779.693c.182.3.272.641.272 1.024 0 .58-.198 1.038-.596 1.373-.397.335-.947.503-1.65.503h-1.07zm0-.99h1.09c.324 0 .57-.075.74-.227.169-.152.254-.369.254-.651 0-.29-.086-.525-.257-.704-.17-.18-.407-.271-.708-.277h-1.119v1.86zm7.108 1.856h-2.14l-.407 1.221h-1.298l2.206-5.924h1.13l2.218 5.924h-1.298l-.41-1.22zm-1.81-.988h1.48l-.744-2.218-.736 2.218zm5.704 2.209h-1.22v-5.924h1.22V27.5zm-2.169-6.828c0-.146.053-.269.157-.368a.564.564 0 0 1 .405-.149c.168 0 .304.051.407.153a.494.494 0 0 1 .154.364.487.487 0 0 1-.154.362.558.558 0 0 1-.407.15.577.577 0 0 1-.4-.144.473.473 0 0 1-.162-.368zm1.982 0c0-.144.054-.266.16-.366.108-.1.241-.15.402-.15.157 0 .29.049.4.148.11.099.165.222.165.368a.49.49 0 0 1-.157.364.561.561 0 0 1-.408.153.554.554 0 0 1-.407-.153.494.494 0 0 1-.155-.364zm6.473 6.828h-1.22v-2.54h-2.38v2.54H51.36v-5.924h1.22v2.4h2.38v-2.4h1.221V27.5zm4.952-5.924h1.225V27.5h-1.225v-3.935L58.762 27.5h-1.22v-5.924h1.22v3.942l2.372-3.942z"/>
    </g>
</svg>
