<svg xmlns="http://www.w3.org/2000/svg" width="354" height="354" viewBox="0 0 354 354">
    <g fill="none" fill-rule="evenodd" stroke="#18B397">
        <path d="M1.539 151.245L203.002 1.617 352.63 203.079 151.168 352.708z"/>
        <path d="M2.48 153.616L200.607 2.288l151.328 198.128-198.128 151.327z"/>
        <path d="M3.602 156.273L197.937 3.255 350.955 197.59 156.62 350.608z"/>
        <path d="M4.577 158.99L195.195 3.962l155.03 190.619-190.619 155.03z"/>
        <path d="M5.757 161.896L192.277 4.985l156.911 186.52-186.52 156.91z"/>
        <path d="M6.813 164.776L189.373 5.772l159.004 182.56-182.56 159.004z"/>
        <path d="M8.088 167.738L186.398 6.89 347.246 185.2l-178.31 160.848z"/>
        <path d="M9.248 170.587L183.524 7.783 346.33 182.06 172.052 344.864z"/>
        <path d="M10.629 173.414L180.684 9.004l164.41 170.055-170.056 164.41z"/>
        <path d="M11.894 176.047L178.028 10.005 344.07 176.139 177.936 342.18z"/>
        <path d="M13.367 178.56L175.5 11.319 342.743 173.45 180.61 340.694z"/>
        <path d="M14.713 180.808L173.23 12.398l168.41 158.517-158.518 168.41z"/>
        <path d="M16.244 182.859l154.921-169.09 169.09 154.922-154.922 169.09z"/>
        <path d="M17.63 184.585L169.416 14.892l169.693 151.785L187.323 336.37z"/>
        <path d="M19.178 186.055L167.932 16.278l169.777 148.754-148.754 169.777z"/>
        <path d="M20.562 187.163L166.8 17.398l169.765 146.238-146.238 169.765z"/>
        <path d="M22.086 187.98L165.97 18.76l169.22 143.885-143.885 169.219z"/>
        <path d="M23.432 188.416L165.51 19.844l168.572 142.078-142.078 168.572z"/>
        <path d="M24.904 188.547l140.46-167.394 167.395 140.46L192.3 329.008z"/>
        <path d="M26.195 188.303l139.391-166.12 166.12 139.391-139.391 166.12z"/>
        <path d="M27.608 187.762l138.504-164.33 164.331 138.503L191.94 326.266z"/>
        <path d="M28.847 186.868L166.983 24.41l162.46 138.137-138.137 162.459z"/>
        <path d="M30.213 185.711l137.913-160.1 160.1 137.913-137.913 160.1z"/>
        <path d="M31.421 184.238l138.156-157.68 157.68 138.155-138.155 157.68z"/>
        <path d="M32.77 182.555L171.247 27.742l154.812 138.475L187.583 321.03z"/>
        <path d="M33.982 180.61L173.168 28.694l151.916 139.187-139.187 151.915z"/>
        <path d="M35.352 178.52L175.244 29.898 323.865 169.79 183.974 318.411z"/>
        <path d="M36.604 176.234L177.506 30.891 322.85 171.793 181.948 317.137z"/>
        <path d="M38.029 173.884L179.843 32.148l141.735 141.815-141.814 141.735z"/>
        <path d="M39.35 171.41L182.293 33.214l138.198 142.943-142.943 138.198z"/>
        <path d="M40.851 168.956l143.882-134.41 134.41 143.881-143.882 134.41z"/>
        <path d="M42.257 166.454l144.955-130.76 130.76 144.955-144.955 130.76z"/>
        <path d="M43.837 164.056l145.758-126.95 126.95 145.758-145.758 126.95z"/>
        <path d="M45.319 161.682L191.947 38.33 315.299 184.96 168.67 308.31z"/>
        <path d="M46.96 159.49L194.125 39.805 313.81 186.966 166.648 306.654z"/>
        <path d="M48.492 157.387L196.205 41.08l116.308 147.714L164.799 305.1z"/>
        <path d="M50.162 155.531L198.046 42.58l112.952 147.883-147.884 112.952z"/>
        <path d="M51.703 153.814L199.74 43.866l109.95 148.037-148.038 109.949z"/>
        <path d="M53.358 152.396L201.144 45.35 308.19 193.135 160.404 300.181z"/>
        <path d="M54.866 151.152l147.5-104.55 104.55 147.5-147.5 104.55z"/>
        <path d="M56.464 150.238l146.8-102.21 102.21 146.8-146.8 102.21z"/>
        <path d="M57.9 149.52L203.96 49.21 304.27 195.274 158.208 295.58z"/>
        <path d="M59.408 149.144l144.913-98.597 98.597 144.913-144.913 98.596z"/>
        <path d="M60.748 148.967l143.728-97.331 97.331 143.728-143.728 97.33z"/>
        <path d="M62.156 149.127L204.3 52.868l96.259 142.145-142.145 96.26z"/>
        <path d="M63.397 149.476L203.93 53.859l95.617 140.533-140.533 95.617z"/>
        <path d="M64.709 150.14l138.543-95.145 95.144 138.542-138.542 95.145z"/>
        <path d="M65.866 150.966l136.537-95.064 95.065 136.537-136.538 95.064z"/>
        <path d="M67.106 152.071l134.176-95.104 95.105 134.175-134.176 95.105z"/>
        <path d="M68.21 153.302L200.03 57.82l95.48 131.818-131.818 95.481z"/>
        <path d="M69.415 154.762l129.139-95.913 95.912 129.139L165.328 283.9z"/>
        <path d="M70.507 156.3l126.486-96.608 96.609 126.486-126.486 96.608z"/>
        <path d="M71.717 158.008L195.27 60.724l97.284 123.553L169 281.561z"/>
        <path d="M72.834 159.742l120.68-98.149 98.15 120.68-120.681 98.15z"/>
        <path d="M74.083 161.579l117.58-98.915 98.913 117.58-117.579 98.914z"/>
        <path d="M75.254 163.384l114.581-99.796 99.797 114.581-114.582 99.796z"/>
        <path d="M76.565 165.224L187.98 64.719l100.505 111.416L177.07 276.64z"/>
        <path d="M77.805 166.977l108.4-101.266 101.266 108.401L179.07 275.377z"/>
        <path d="M79.182 168.7L184.467 66.91l101.79 105.285-105.285 101.79z"/>
        <path d="M80.488 170.285L182.86 67.969l102.315 102.372-102.372 102.316z"/>
        <path d="M81.922 171.783l99.425-102.559 102.559 99.425-99.425 102.558z"/>
        <path d="M83.277 173.1l96.73-102.767 102.767 96.73-96.73 102.767z"/>
        <path d="M84.747 174.284l94.06-102.663 102.664 94.06-94.061 102.664z"/>
        <path d="M86.126 175.259l91.685-102.502 102.503 91.685-91.686 102.502z"/>
        <path d="M87.604 176.067l89.383-102.016 102.016 89.384L189.62 265.45z"/>
        <path d="M88.982 176.649l87.402-101.464 101.464 87.403-87.403 101.463z"/>
        <path d="M90.442 177.049l85.526-100.585 100.585 85.526-85.526 100.585z"/>
        <path d="M91.798 177.217l83.98-99.641 99.642 83.98-83.981 99.642z"/>
        <path d="M93.227 177.202l82.551-98.38 98.381 82.55-82.551 98.381z"/>
        <path d="M94.55 176.963l81.445-97.062 97.062 81.445-81.445 97.063z"/>
    </g>
</svg>
