<svg xmlns="http://www.w3.org/2000/svg" width="614" height="614" viewBox="0 0 614 614">
    <g fill="none" fill-rule="evenodd" stroke="#F9D104">
        <path d="M76.582 1.997l534.17 75.118-75.119 534.17-534.17-75.119z"/>
        <path d="M83.621.808L612.42 83.707l-82.9 528.798L.722 529.606z"/>
        <path d="M90.135.572L612.958 89.94l-89.366 522.823L.768 523.396z"/>
        <path d="M95.695.624l517.69 94.428-94.428 517.69-517.69-94.427z"/>
        <path d="M100.346 1.8L612.51 99.42l-97.62 512.166-512.165-97.62z"/>
        <path d="M103.783 3.372l507.634 99.041-99.041 507.635L4.74 511.006z"/>
        <path d="M106.155 6.109l502.832 98.39-98.39 502.832L7.764 508.94z"/>
        <path d="M107.292 9.238l499.04 95.955-95.955 499.04-499.04-95.955z"/>
        <path d="M107.468 13.47l494.94 91.613-91.614 494.94-494.94-91.614z"/>
        <path d="M106.633 17.995l491.723 85.81-85.81 491.724-491.724-85.81z"/>
        <path d="M105.167 23.454l488.038 78.599-78.598 488.038-488.039-78.599z"/>
        <path d="M103.09 29.013l485.03 70.522-70.522 485.03-485.03-70.522z"/>
        <path d="M100.848 35.234l481.36 61.77-61.77 481.36-481.36-61.77z"/>
        <path d="M98.462 41.266l478.186 52.913-52.913 478.185-478.186-52.913z"/>
        <path d="M96.391 47.602l474.232 44.216-44.216 474.231-474.231-44.215z"/>
        <path d="M94.604 53.4l470.69 36.192-36.191 470.69-470.69-36.192z"/>
        <path d="M93.522 59.125l466.361 29.093L530.79 554.58 64.428 525.486z"/>
        <path d="M93.029 63.98l462.466 23.308-23.308 462.466-462.466-23.307z"/>
        <path d="M93.485 68.452l457.854 19-19 457.853-457.853-18.999z"/>
        <path d="M94.685 71.84l453.733 16.377-16.377 453.732-453.733-16.377z"/>
        <path d="M96.92 74.69l448.962 15.467-15.467 448.962-448.961-15.467z"/>
        <path d="M99.913 76.422l444.703 16.294-16.294 444.703L83.62 521.125z"/>
        <path d="M103.879 77.667l439.81 18.719-18.718 439.81-439.81-18.718z"/>
        <path d="M108.484 77.947l435.39 22.611-22.611 435.39-435.39-22.611z"/>
        <path d="M113.87 77.97l430.3 27.675-27.676 430.3-430.3-27.676z"/>
        <path d="M119.658 77.323l425.62 33.68-33.68 425.62-425.62-33.68z"/>
        <path d="M125.917 76.755l420.25 40.208-40.208 420.25-420.25-40.208z"/>
        <path d="M132.248 75.862l415.274 47.001-47.001 415.275-415.275-47.002z"/>
        <path d="M138.66 75.386l409.66 53.59-53.591 409.659-409.659-53.59z"/>
        <path d="M144.765 74.89l404.51 59.762-59.762 404.51L85.003 479.4z"/>
        <path d="M150.555 75.076l398.857 65.064-65.063 398.857-398.857-65.063z"/>
        <path d="M155.688 75.452l393.807 69.394L480.1 538.653 86.294 469.259z"/>
        <path d="M160.188 76.661l388.424 72.381-72.382 388.424-388.423-72.381z"/>
        <path d="M163.801 78.161l383.767 74.068L473.5 535.996 89.733 461.928z"/>
        <path d="M166.62 80.543l378.893 74.201-74.2 378.893L92.42 459.436z"/>
        <path d="M168.498 83.227l374.786 72.97-72.97 374.786-374.786-72.97z"/>
        <path d="M169.62 86.754l370.466 70.258-70.259 370.467L99.361 457.22z"/>
        <path d="M169.932 90.521l366.84 66.38-66.38 366.841-366.84-66.38z"/>
        <path d="M169.706 95.017l362.9 61.35-61.35 362.902-362.9-61.351z"/>
        <path d="M168.95 99.623l359.503 55.567-55.568 359.503-359.503-55.567z"/>
        <path d="M167.99 104.768l355.65 49.153-49.153 355.65-355.65-49.153z"/>
        <path d="M166.848 109.823l352.188 42.535L476.5 504.545l-352.188-42.534z"/>
        <path d="M165.863 115.164l348.165 35.9-35.899 348.164-348.165-35.899z"/>
        <path d="M165.026 120.166l344.448 29.64-29.64 344.449-344.448-29.64z"/>
        <path d="M164.654 125.173l340.149 23.949-23.949 340.149-340.149-23.95z"/>
        <path d="M164.675 129.597l336.152 19.128L481.7 484.878l-336.152-19.129z"/>
        <path d="M165.36 133.783l331.617 15.313-15.313 331.618L150.046 465.4z"/>
        <path d="M166.573 137.21l327.424 12.683-12.682 327.424-327.425-12.682z"/>
        <path d="M168.528 140.262l322.755 11.271-11.271 322.754-322.755-11.27z"/>
        <path d="M171.036 142.505l318.45 11.12-11.121 318.45-318.45-11.12z"/>
    </g>
</svg>
