<svg xmlns="http://www.w3.org/2000/svg" width="528" height="528" viewBox="0 0 528 528">
    <g fill="none" fill-rule="evenodd" stroke="#F45858">
        <path d="M1.188 92.13l91.354 434.458 434.462-91.355L435.65.775 1.188 92.129z"/>
        <path d="M3.456 91.775L92.49 524.516l432.745-89.034L436.2 2.74 3.456 91.775z"/>
        <path d="M6.235 91.094L91.98 521.847l430.757-85.744L436.992 5.35 6.235 91.094z"/>
        <path d="M9.204 89.733L90.92 519.074l429.344-81.716L438.55 8.017 9.204 89.733z"/>
        <path d="M12.65 88.14l76.847 427.6 427.602-76.849-76.847-427.599L12.65 88.14z"/>
        <path d="M16.254 85.973L87.63 512.33l426.362-71.378-71.377-426.358L16.254 85.973z"/>
        <path d="M20.284 83.698l65.243 424.713 424.716-65.243-65.242-424.713L20.284 83.698z"/>
        <path d="M24.426 80.977l58.68 423.488 423.491-58.681-58.68-423.488L24.426 80.977z"/>
        <path d="M28.923 78.292l51.67 421.787 421.79-51.67-51.67-421.788-421.79 51.671z"/>
        <path d="M33.463 75.298l44.435 420.435 420.438-44.435-44.434-420.436L33.463 75.298z"/>
        <path d="M38.267 72.487L75.26 491.041l418.558-36.993-36.992-418.554L38.267 72.487z"/>
        <path d="M43.028 69.5l29.543 416.975L489.55 456.93 460.006 39.956 43.028 69.5z"/>
        <path d="M47.94 66.834l22.138 414.84 414.844-22.138-22.138-414.84L47.941 66.833z"/>
        <path d="M52.707 64.11L67.651 477.1l412.996-14.945-14.944-412.992L52.707 64.109z"/>
        <path d="M57.502 61.822l8.036 410.598 410.601-8.038-8.036-410.597-410.6 8.037z"/>
        <path d="M62.041 59.57l1.544 408.504 408.505-1.545-1.543-408.503-408.506 1.545z"/>
        <path d="M66.484 57.847l-4.448 405.898 405.9 4.446 4.448-405.897-405.9-4.447z"/>
        <path d="M70.566 56.227l-9.854 403.629 403.632 9.851 9.853-403.628-403.631-9.852z"/>
        <path d="M74.437 55.196l-14.58 400.902 400.904 14.58 14.581-400.902-400.905-14.58z"/>
        <path d="M77.859 54.31L59.267 452.87l398.561 18.59L476.42 72.9 77.859 54.31z"/>
        <path d="M80.981 54.048l-21.8 395.813 395.815 21.798 21.8-395.812L80.981 54.048z"/>
        <path d="M83.59 53.953l-24.21 393.49 393.494 24.208 24.21-393.49L83.59 53.953z"/>
        <path d="M85.845 54.493l-25.748 390.81 390.814 25.746 25.747-390.81L85.845 54.493z"/>
        <path d="M87.558 55.204L61.103 443.782l388.58 26.453 26.455-388.578-388.58-26.453z"/>
        <path d="M88.9 56.545l-26.279 386.01 386.012 26.277 26.28-386.01L88.9 56.546z"/>
        <path d="M89.71 58.048L64.418 441.936l383.891 25.29 25.292-383.888L89.71 58.048z"/>
        <path d="M90.175 60.16L66.708 441.585l381.43 23.466 23.467-381.427-381.43-23.466z"/>
        <path d="M90.15 62.413L69.256 441.801l379.39 20.894 20.896-379.388-379.39-20.894z"/>
        <path d="M89.845 65.24L72.26 442.222l376.986 17.584 17.585-376.984L89.845 65.24z"/>
        <path d="M89.125 68.175L75.488 443.133l374.96 13.636L464.087 81.81 89.126 68.175z"/>
        <path d="M88.217 71.63l-9.094 372.528 372.53 9.092 9.094-372.527-372.53-9.093z"/>
        <path d="M86.991 75.147l-4.06 370.426 370.43 4.058 4.06-370.426-370.43-4.058z"/>
        <path d="M85.688 79.112l1.39 367.881 367.883-1.39-1.39-367.882-367.883 1.391z"/>
        <path d="M84.174 83.074l7.156 365.622 365.625-7.158-7.156-365.621-365.625 7.157z"/>
        <path d="M82.701 87.395l13.131 362.892 362.895-13.133-13.132-362.891L82.701 87.395z"/>
        <path d="M81.125 91.63l19.233 360.422 360.424-19.235L441.55 72.396 81.125 91.63z"/>
        <path d="M79.7 96.117l25.327 357.478 357.48-25.328L437.18 70.788 79.7 96.117z"/>
        <path d="M78.265 100.423l31.357 354.794L464.42 423.86 433.062 69.065 78.265 100.423z"/>
        <path d="M77.078 104.862l37.166 351.66 351.664-37.166-37.166-351.66-351.664 37.166z"/>
        <path d="M75.958 109.018l42.73 348.812 348.816-42.73-42.73-348.814-348.816 42.732z"/>
        <path d="M75.158 113.186l47.883 345.564 345.566-47.884-47.883-345.563-345.566 47.883z"/>
        <path d="M74.48 116.972l52.634 342.644 342.647-52.636-52.635-342.644-342.647 52.636z"/>
        <path d="M74.168 120.659l56.817 339.387 339.39-56.818-56.817-339.387-339.39 56.818z"/>
        <path d="M74.012 123.875l60.477 336.514 336.517-60.478L410.53 63.397 74.012 123.875z"/>
        <path d="M74.25 126.9l63.45 333.371 333.373-63.45-63.45-333.371L74.25 126.9z"/>
        <path d="M74.656 129.39l65.82 330.661 330.664-65.82-65.82-330.662-330.664 65.82z"/>
        <path d="M75.467 131.625l67.43 327.736 327.738-67.43-67.43-327.736-327.738 67.43z"/>
        <path d="M76.448 133.287l68.397 325.279 325.28-68.398L401.73 64.89 76.448 133.287z"/>
        <path d="M77.83 134.666l68.58 322.638 322.64-68.58-68.579-322.638-322.64 68.58z"/>
        <path d="M467.974 387.823l.49-.104-.386.593-.104-.49zM79.378 135.467l68.119 320.475 320.477-68.12-68.119-320.474-320.477 68.12z"/>
        <path d="M81.314 135.993l66.895 318.134 318.137-66.895L399.45 69.098 81.314 135.993z"/>
        <path d="M83.404 135.97l65.066 316.253 316.256-65.068L399.66 70.902 83.404 135.969z"/>
        <path d="M85.863 135.712l62.538 314.173 314.175-62.538-62.538-314.173-314.175 62.538z"/>
        <path d="M88.458 134.964l59.48 312.51 312.512-59.48-59.48-312.51-312.512 59.48z"/>
        <path d="M91.394 134.055l55.822 310.605 310.608-55.822-55.821-310.605-310.609 55.822z"/>
        <path d="M94.44 132.736l51.74 309.062 309.065-51.74-51.74-309.062-309.064 51.74z"/>
        <path d="M97.789 131.35l47.194 307.223 307.226-47.195-47.194-307.223L97.789 131.35z"/>
        <path d="M101.21 129.65l42.357 305.686 305.687-42.358-42.357-305.685L101.21 129.65z"/>
        <path d="M104.879 127.989l37.216 303.801 303.804-37.217-37.217-303.801-303.803 37.217z"/>
        <path d="M108.57 126.116l31.934 302.166 302.169-31.935L410.738 94.18l-302.169 31.935z"/>
        <path d="M112.44 124.388l26.527 300.148 300.15-26.528L412.59 97.86l-300.15 26.528z"/>
        <path d="M116.268 122.546l21.138 298.344 298.346-21.139-21.138-298.343-298.346 21.138z"/>
        <path d="M120.194 120.947l15.804 296.141 296.144-15.804-15.804-296.142-296.144 15.805z"/>
        <path d="M124.005 119.317L134.65 413.46l294.144-10.644-10.643-294.142-294.145 10.644z"/>
        <path d="M127.825 118.012l5.71 291.752 291.755-5.711-5.71-291.752-291.755 5.71z"/>
        <path d="M131.453 116.743l1.094 289.576 289.577-1.095-1.093-289.576-289.578 1.095z"/>
        <path d="M135.001 115.86l-3.146 287.035 287.039 3.145 3.146-287.036L135 115.859z"/>
        <path d="M138.284 115.058l-6.95 284.736 284.737 6.95 6.951-284.736-284.738-6.95z"/>
        <path d="M141.41 114.68l-10.26 282.113 282.114 10.26 10.26-282.113-282.114-10.26z"/>
        <path d="M144.212 114.414l-13.05 279.759 279.76 13.049 13.05-279.76-279.76-13.048z"/>
        <path d="M146.796 114.59l-15.264 277.125 277.127 15.262 15.263-277.124-277.126-15.262z"/>
        <path d="M149.015 114.89L132.11 389.675l274.789 16.905 16.906-274.787-274.789-16.905z"/>
        <path d="M150.983 115.635l-17.933 272.2 272.201 17.932 17.933-272.2-272.201-17.932z"/>
        <path d="M152.57 116.503l-18.376 269.924 269.927 18.375 18.376-269.924-269.926-18.375z"/>
        <path d="M153.901 117.808l-18.206 267.416 267.418 18.204 18.206-267.415L153.9 117.808z"/>
        <path d="M154.862 119.225L137.39 384.442l265.219 17.472 17.473-265.217-265.219-17.472z"/>
        <path d="M155.588 121.06l-16.167 262.783 262.785 16.167 16.167-262.783-262.785-16.167z"/>
        <path d="M155.981 122.99l-14.355 260.64 260.642 14.354 14.355-260.64-260.642-14.354z"/>
        <path d="M156.187 125.307l-12.046 258.245 258.246 12.045 12.046-258.244-258.246-12.046z"/>
        <path d="M156.116 127.693l-9.315 256.108 256.11 9.314 9.315-256.108-256.11-9.314z"/>
        <path d="M155.925 130.426l-6.193 253.695 253.697 6.192 6.193-253.695-253.697-6.192z"/>
        <path d="M155.528 133.19l-2.756 251.506 251.507 2.756 2.756-251.506-251.507-2.755z"/>
        <path d="M155.089 136.25l.94 249.014 249.016-.941-.94-249.014-249.016.941z"/>
        <path d="M154.52 139.295l4.828 246.716 246.718-4.83-4.829-246.715-246.718 4.83z"/>
        <path d="M153.99 142.57l8.832 244.1 244.103-8.833-8.833-244.1-244.103 8.833z"/>
        <path d="M153.402 145.773l12.896 241.662 241.665-12.896-12.897-241.663-241.664 12.897z"/>
        <path d="M152.93 149.13l16.926 238.908 238.91-16.927-16.927-238.908-238.91 16.928z"/>
        <path d="M152.464 152.353L173.35 388.68l236.33-20.888-20.888-236.328-236.33 20.888z"/>
        <path d="M152.175 155.649l24.672 233.45L410.3 364.428l-24.672-233.451-233.453 24.673z"/>
        <path d="M151.943 158.742l28.269 230.766 230.769-28.27-28.27-230.766-230.768 28.27z"/>
        <path d="M151.933 161.829l31.568 227.82 227.821-31.568-31.567-227.82-227.822 31.568z"/>
        <path d="M152.014 164.65l34.578 225.094 225.096-34.579-34.578-225.094-225.096 34.578z"/>
        <path d="M152.347 167.392l37.19 222.15 222.152-37.19-37.19-222.15-222.152 37.19z"/>
        <path d="M152.789 169.814l39.44 219.462 219.464-39.442-39.44-219.461-219.464 39.441z"/>
        <path d="M153.496 172.102l41.224 216.599 216.601-41.225-41.225-216.6-216.6 41.226z"/>
        <path d="M154.318 174.032l42.602 214.022 214.023-42.603-42.602-214.021-214.023 42.602z"/>
        <path d="M155.407 175.79l43.475 211.307L410.19 343.62l-43.475-211.306-211.308 43.475z"/>
        <path d="M156.61 177.174l43.925 208.895 208.896-43.925-43.924-208.895-208.897 43.925z"/>
        <path d="M158.073 178.372l206.368-43.865 43.865 206.368-206.369 43.865z"/>
        <path d="M159.641 179.2l204.147-43.393 43.393 204.145-204.148 43.393z"/>
    </g>
</svg>
