<svg xmlns="http://www.w3.org/2000/svg" width="585" height="534" viewBox="0 0 585 534">
    <g fill="none" fill-rule="evenodd" stroke="#21B69A">
        <path d="M239.634 444.88c-48.636-28.458-97.276-56.912-145.913-85.37-8.304-4.857-8.315-4.87-3.49-13.117C145.534 251.85 200.9 157.345 256.014 62.691c3.426-5.885 6.647-7.037 12.67-4.384 33.135 14.6 65.942 29.805 96.205 49.93a63.598 63.598 0 0 1 5.264 3.901c13.085 10.818 12.658 17.34.703 29.56-10.23 10.456-20.309 21.486-28.153 33.734-13.341 20.835-10.181 37.593 7.847 54.493 12.785 11.984 28.166 17.801 45.464 18.814 11.867.698 19.448-6.138 25.595-15.082 11.81-17.188 18.014-36.797 24.027-56.474 2.497-8.165 6.362-11.19 14.832-10.002 4.935.693 10.202 2.106 14.368 4.715 28.377 17.755 56.469 35.967 84.734 53.898 5.376 3.411 5.509 6.885 2.094 11.87-10.51 15.344-20.526 31.027-31.102 46.321-11.167 16.15-21.93 32.365-26.942 51.773-5.526 21.395 7.258 33.794 24.432 39.433 15.152 4.976 30.248 10.472 44.652 17.264 11.247 5.302 13.295 10.797 9.683 22.515-3.742 12.147-7.727 24.59-14.05 35.484-10.813 18.633-31.726 19.32-46.213 2.811-10.268-11.7-20.76-23.076-34.656-30.775-14.734-8.165-23.584-7.424-36.225 3.842-17.735 15.804-27.033 36.75-35.587 58.2-5.543 13.905-11.174 27.797-17.434 41.386-4.237 9.195-4.76 8.96-13.305 3.96-48.429-28.33-96.858-56.662-145.283-84.998z"/>
        <path d="M238.946 444.382c-49.124-27.607-98.252-55.21-147.377-82.816-8.388-4.712-8.399-4.725-3.719-13.054C141.5 253.02 195.21 157.564 248.667 61.965c3.323-5.944 6.523-7.152 12.592-4.605 33.384 14.022 66.45 28.653 97.06 48.247a63.598 63.598 0 0 1 5.33 3.81c13.272 10.588 12.958 17.117 1.219 29.543-10.046 10.632-19.932 21.836-27.562 34.22-12.976 21.063-9.525 37.764 8.796 54.347 12.991 11.76 28.471 17.308 45.784 18.02 11.877.49 19.339-6.476 25.328-15.526 11.51-17.392 17.37-37.105 23.04-56.884 2.355-8.208 6.166-11.3 14.656-10.259 4.946.607 10.237 1.928 14.448 4.464 28.682 17.258 57.086 34.978 85.66 52.414 5.434 3.317 5.628 6.788 2.3 11.832-10.24 15.524-19.982 31.379-30.29 46.856-10.885 16.34-21.364 32.742-26.037 52.233-5.152 21.489 7.846 33.663 25.116 39.002 15.236 4.712 30.426 9.944 44.945 16.484 11.338 5.105 13.482 10.563 10.074 22.343-3.53 12.21-7.298 24.72-13.43 35.723-10.486 18.818-31.384 19.87-46.156 3.616-10.471-11.52-21.159-22.711-35.187-30.168-14.874-7.906-23.71-7.01-36.153 4.473-17.457 16.11-26.389 37.215-34.567 58.812-5.3 13.999-10.688 27.986-16.712 41.682-4.075 9.268-4.602 9.042-13.233 4.192-48.915-27.482-97.83-54.967-146.742-82.454z" opacity=".98"/>
        <path d="M238.294 443.838c-49.596-26.75-99.196-53.494-148.793-80.242-8.469-4.567-8.48-4.58-3.945-12.989 51.981-96.41 104.026-192.783 155.813-289.297 3.22-6 6.399-7.264 12.51-4.823 33.623 13.44 66.939 27.494 97.884 46.553a63.597 63.597 0 0 1 5.396 3.717c13.454 10.356 13.254 16.89 1.731 29.518-9.859 10.804-19.549 22.178-26.962 34.692-12.609 21.287-8.868 37.924 9.738 54.187 13.194 11.532 28.768 16.81 46.091 17.221 11.884.284 19.223-6.81 25.054-15.963 11.206-17.59 16.723-37.401 22.049-57.276 2.211-8.247 5.968-11.405 14.475-10.511 4.955.52 10.269 1.75 14.523 4.212 28.978 16.757 57.686 33.98 86.558 50.918 5.491 3.221 5.745 6.689 2.505 11.79-9.97 15.7-19.434 31.721-29.471 47.374-10.6 16.528-20.792 33.109-25.125 52.679-4.779 21.574 8.429 33.52 25.79 38.559 15.315 4.446 30.593 9.414 45.224 15.7 11.425 4.908 13.663 10.328 10.46 22.165-3.316 12.27-6.866 24.843-12.806 35.951-10.159 18.998-31.035 20.412-46.087 4.417-10.67-11.336-21.55-22.34-35.706-29.551-15.01-7.647-23.829-6.598-36.07 5.1-17.174 16.411-25.738 37.668-33.54 59.404-5.056 14.088-10.2 28.168-15.984 41.966-3.914 9.338-4.445 9.12-13.16 4.422-49.384-26.629-98.77-53.26-148.152-79.893z" opacity=".96"/>
        <path d="M237.676 443.246c-50.052-25.886-100.108-51.768-150.161-77.653-8.546-4.42-8.558-4.432-4.17-12.918 50.305-97.296 100.673-194.556 150.782-291.953 3.114-6.055 6.271-7.374 12.425-5.038 33.85 12.855 67.404 26.33 98.674 44.851a63.597 63.597 0 0 1 5.46 3.622c13.631 10.122 13.544 16.658 2.242 29.484-9.67 10.974-19.162 22.514-26.358 35.154-12.238 21.502-8.21 38.072 10.675 54.01 13.392 11.302 29.055 16.31 46.383 16.421 11.886.078 19.102-7.142 24.774-16.395 10.9-17.78 16.073-37.685 21.053-57.649 2.068-8.284 5.77-11.507 14.291-10.76 4.964.434 10.298 1.571 14.594 3.96 29.263 16.252 58.265 32.976 87.426 49.411 5.547 3.126 5.86 6.589 2.71 11.745-9.697 15.87-18.882 32.053-28.647 47.878-10.311 16.71-20.216 33.463-24.21 53.106-4.403 21.654 9.01 33.37 26.454 38.106 15.39 4.181 30.752 8.883 45.49 14.916 11.508 4.709 13.84 10.089 10.843 21.98-3.104 12.325-6.436 24.958-12.183 36.167-9.828 19.171-30.676 20.947-46.004 5.214-10.864-11.15-21.933-21.963-36.212-28.928-15.14-7.386-23.939-6.185-35.976 5.724-16.887 16.706-25.082 38.107-32.506 59.975-4.812 14.175-9.711 28.34-15.256 42.237-3.751 9.404-4.285 9.196-13.08 4.649-49.838-25.77-99.678-51.541-149.513-77.316z" opacity=".94"/>
        <path d="M237.086 442.604c-50.49-25.02-100.985-50.035-151.477-75.053-8.62-4.271-8.632-4.284-4.391-12.845 48.62-98.148 97.304-196.262 145.726-294.508 3.01-6.108 6.144-7.48 12.336-5.251 34.067 12.27 67.848 25.164 99.433 43.143a63.597 63.597 0 0 1 5.522 3.528c13.804 9.885 13.829 16.422 2.75 29.44-9.48 11.14-18.771 22.841-25.748 35.604-11.866 21.71-7.552 38.208 11.604 53.818 13.585 11.07 29.332 15.807 46.659 15.619 11.886-.127 18.976-7.471 24.488-16.82 10.591-17.965 15.42-37.956 20.056-58.003 1.925-8.319 5.57-11.605 14.104-11.005 4.97.348 10.323 1.394 14.66 3.707 29.539 15.746 58.825 31.968 88.265 47.898 5.599 3.03 5.972 6.486 2.911 11.696-9.421 16.035-18.327 32.374-27.817 48.365-10.022 16.884-19.636 33.807-23.29 53.515-4.03 21.726 9.582 33.21 27.106 37.645 15.46 3.915 30.9 8.351 45.74 14.129 11.588 4.51 14.012 9.85 11.22 21.79-2.89 12.376-6.005 25.065-11.557 36.372-9.496 19.337-30.31 21.472-45.907 6.006-11.055-10.96-22.309-21.582-36.705-28.3-15.265-7.123-24.043-5.77-35.872 6.343-16.598 16.995-24.422 38.535-31.468 60.527-4.567 14.255-9.221 28.504-14.525 42.494-3.59 9.467-4.127 9.269-12.999 4.873a1626870.19 1626870.19 0 0 1-150.824-74.727z" opacity=".92"/>
        <path d="M236.523 441.91c-50.913-24.15-101.829-48.297-152.742-72.446-8.692-4.122-8.704-4.135-4.61-12.767 46.93-98.967 93.924-197.902 140.655-296.963 2.905-6.159 6.015-7.585 12.245-5.462 34.272 11.684 68.27 23.997 100.158 41.432a63.597 63.597 0 0 1 5.581 3.433c13.971 9.647 14.109 16.182 3.254 29.39-9.288 11.299-18.376 23.158-25.134 36.039-11.491 21.91-6.895 38.331 12.526 53.61 13.772 10.835 29.598 15.302 46.92 14.817 11.882-.33 18.844-7.795 24.195-17.236 10.282-18.145 14.768-38.216 19.06-58.339 1.781-8.35 5.37-11.699 13.912-11.246 4.976.264 10.345 1.217 14.721 3.456 29.805 15.238 59.365 30.954 89.074 46.377 5.65 2.934 6.083 6.384 3.111 11.645-9.145 16.194-17.769 32.683-26.984 48.835-9.73 17.053-19.053 34.138-22.37 53.906-3.656 21.792 10.15 33.04 27.748 37.175 15.525 3.649 31.04 7.82 45.976 13.343 11.663 4.31 14.179 9.607 11.592 21.594-2.678 12.424-5.574 25.165-10.932 36.565-9.163 19.497-29.938 21.988-45.797 6.792-11.241-10.77-22.676-21.196-37.185-27.666-15.385-6.861-24.138-5.358-35.758 6.957-16.304 17.277-23.758 38.947-30.426 61.058-4.321 14.33-8.731 28.657-13.794 42.736-3.427 9.527-3.968 9.338-12.913 5.095a1626589.98 1626589.98 0 0 1-152.083-72.13z" opacity=".9"/>
        <path d="M235.981 441.16c-51.316-23.279-102.636-46.554-153.953-69.833-8.761-3.974-8.774-3.986-4.827-12.687 45.237-99.752 90.54-199.472 135.577-299.315 2.8-6.208 5.885-7.687 12.15-5.67 34.466 11.098 68.668 22.831 100.849 39.72a63.597 63.597 0 0 1 5.639 3.337c14.133 9.408 14.382 15.94 3.754 29.33-9.094 11.456-17.98 23.469-24.516 36.462-11.117 22.102-6.242 38.444 13.436 53.39 13.955 10.599 29.855 14.795 47.165 14.015 11.876-.532 18.71-8.114 23.9-17.646 9.97-18.317 14.114-38.461 18.062-58.654 1.64-8.38 5.17-11.789 13.72-11.481 4.979.178 10.364 1.04 14.777 3.204 30.06 14.728 59.883 29.939 89.85 44.853 5.7 2.837 6.191 6.28 3.31 11.59-8.868 16.348-17.21 32.982-26.149 49.287-9.438 17.217-18.469 34.458-21.448 54.28-3.285 21.852 10.712 32.863 28.377 36.697 15.585 3.384 31.168 7.29 46.197 12.558 11.734 4.11 14.34 9.364 11.958 21.393-2.466 12.469-5.145 25.257-10.308 36.746-8.83 19.65-29.56 22.496-45.675 7.572-11.423-10.577-23.033-20.807-37.65-27.03-15.5-6.597-24.226-4.946-35.635 7.566-16.007 17.552-23.09 39.346-29.381 61.567-4.077 14.402-8.242 28.802-13.065 42.965-3.263 9.584-3.808 9.404-12.824 5.314a1626870.19 1626870.19 0 0 1-153.29-69.53z" opacity=".88"/>
        <path d="M235.458 440.355c-51.702-22.409-103.408-44.813-155.111-67.221-8.828-3.825-8.84-3.837-5.042-12.603 43.545-100.503 87.156-200.975 130.499-301.565 2.694-6.254 5.753-7.785 12.052-5.875 34.649 10.515 69.044 21.668 101.506 38.01 1.95.983 3.86 2.065 5.695 3.241 14.29 9.168 14.649 15.695 4.25 29.263-8.9 11.608-17.581 23.769-23.898 36.871-10.74 22.287-5.59 38.544 14.338 53.155 14.132 10.361 30.1 14.289 47.395 13.216 11.864-.733 18.57-8.43 23.597-18.048 9.66-18.483 13.463-38.694 17.069-58.951 1.498-8.406 4.97-11.874 13.523-11.711 4.982.094 10.38.865 14.83 2.954 30.305 14.217 60.38 28.922 90.596 43.328 5.746 2.74 6.296 6.173 3.505 11.533-8.591 16.494-16.65 33.267-25.312 49.721-9.147 17.374-17.884 34.766-20.528 54.635-2.915 21.904 11.266 32.677 28.994 36.212 15.64 3.12 31.287 6.762 46.402 11.775 11.802 3.912 14.496 9.12 12.318 21.188-2.255 12.508-4.717 25.34-9.685 36.915-8.497 19.797-29.175 22.992-45.54 8.343-11.6-10.383-23.382-20.415-38.103-26.39-15.609-6.334-24.306-4.535-35.501 8.167-15.709 17.82-22.423 39.731-28.337 62.055-3.833 14.47-7.753 28.937-12.336 43.18-3.101 9.638-3.648 9.467-12.733 5.53-51.481-22.306-102.963-44.615-154.443-66.928z" opacity=".86"/>
        <path d="M234.95 439.491c-52.071-21.54-104.145-43.074-156.217-64.612-8.89-3.677-8.903-3.688-5.252-12.517 41.855-101.218 83.776-202.407 125.426-303.71 2.59-6.298 5.623-7.88 11.952-6.075 34.82 9.932 69.398 20.507 102.13 36.303 1.965.95 3.892 2 5.747 3.145 14.442 8.927 14.91 15.447 4.74 29.187-8.704 11.756-17.18 24.06-23.276 37.267-10.366 22.464-4.944 38.632 15.227 52.907 14.303 10.123 30.336 13.782 47.61 12.42 11.85-.932 18.425-8.74 23.29-18.44 9.35-18.643 12.813-38.915 16.08-59.23 1.356-8.43 4.77-11.956 13.324-11.936 4.983.01 10.394.69 14.877 2.705 30.54 13.708 60.858 27.906 91.31 41.804 5.792 2.643 6.398 6.067 3.697 11.472-8.312 16.637-16.09 33.542-24.475 50.14-8.853 17.524-17.298 35.06-19.608 54.97-2.548 21.95 11.811 32.484 29.596 35.72 15.69 2.859 31.396 6.238 46.593 10.997 11.866 3.714 14.647 8.876 12.671 20.978-2.045 12.545-4.292 25.416-9.065 37.072-8.163 19.937-28.785 23.478-45.394 9.105-11.772-10.186-23.72-20.02-38.54-25.746-15.712-6.073-24.378-4.128-35.359 8.76-15.407 18.081-21.753 40.101-27.292 62.521-3.59 14.532-7.268 29.063-11.611 43.38-2.94 9.689-3.49 9.528-12.639 5.744-51.848-21.441-103.696-42.884-155.542-64.33z" opacity=".84"/>
        <path d="M234.452 438.567c-52.422-20.672-104.846-41.34-157.268-62.01-8.95-3.529-8.963-3.54-5.459-12.428 40.169-101.9 80.404-203.77 120.368-305.75 2.484-6.34 5.49-7.972 11.85-6.273 34.98 9.353 69.728 19.352 102.717 34.603a63.598 63.598 0 0 1 5.8 3.05c14.587 8.686 15.164 15.197 5.223 29.104-8.508 11.898-16.778 24.342-22.654 37.648-9.992 22.632-4.303 38.708 16.102 52.647 14.47 9.884 30.56 13.277 47.81 11.628 11.833-1.129 18.278-9.045 22.982-18.825 9.038-18.795 12.164-39.122 15.093-59.488 1.216-8.451 4.572-12.033 13.125-12.156 4.982-.071 10.403.519 14.92 2.459 30.762 13.198 61.312 26.891 91.99 40.282 5.835 2.547 6.499 5.96 3.888 11.409-8.036 16.772-15.531 33.804-23.64 50.538-8.561 17.67-16.714 35.343-18.693 55.289-2.183 21.99 12.35 32.283 30.185 35.225 15.735 2.597 31.495 5.715 46.769 10.22 11.926 3.517 14.793 8.633 13.018 20.766-1.837 12.577-3.87 25.484-8.449 37.218-7.831 20.07-28.391 23.952-45.237 9.857-11.94-9.99-24.049-19.624-38.96-25.104-15.812-5.81-24.444-3.723-35.21 9.346-15.105 18.335-21.085 40.457-26.251 62.966-3.348 14.59-6.784 29.18-10.89 43.567-2.777 9.736-3.33 9.584-12.54 5.952a1626870.18 1626870.18 0 0 1-156.59-61.74z" opacity=".82"/>
        <path d="M233.96 437.582c-52.754-19.808-105.51-39.612-158.265-59.42-9.007-3.38-9.02-3.392-5.662-12.336 38.49-102.545 77.047-205.063 115.33-307.685 2.38-6.38 5.36-8.061 11.746-6.467 35.129 8.777 70.037 18.205 103.271 32.912a63.597 63.597 0 0 1 5.85 2.954c14.728 8.445 15.411 14.946 5.7 29.014-8.31 12.037-16.376 24.615-22.033 38.015-9.619 22.794-3.666 38.774 16.965 52.376 14.63 9.645 30.774 12.773 47.994 10.841 11.813-1.323 18.127-9.343 22.67-19.2 8.728-18.94 11.52-39.316 14.114-59.727 1.077-8.47 4.374-12.107 12.924-12.37 4.98-.153 10.41.347 14.958 2.213 30.975 12.691 61.745 25.881 92.64 38.766 5.875 2.45 6.595 5.852 4.074 11.344-7.76 16.902-14.974 34.055-22.806 50.92-8.27 17.807-16.132 35.612-17.784 55.588-1.821 22.022 12.878 32.076 30.76 34.724 15.775 2.338 31.584 5.198 46.93 9.452 11.983 3.32 14.933 8.388 13.357 20.549-1.63 12.605-3.45 25.543-7.836 37.35-7.5 20.196-27.995 24.416-45.069 10.6-12.102-9.793-24.368-19.227-39.368-24.46-15.904-5.551-24.501-3.322-35.051 9.922-14.802 18.58-20.417 40.798-25.214 63.388-3.107 14.642-6.304 29.287-10.172 43.74-2.617 9.78-3.173 9.637-12.442 6.158-52.527-19.718-105.056-39.438-157.581-59.16z" opacity=".8"/>
        <path d="M233.47 436.535c-53.068-18.95-106.14-37.895-159.208-56.844-9.06-3.234-9.074-3.245-5.862-12.243 36.821-103.156 73.71-206.286 110.323-309.516 2.276-6.418 5.228-8.147 11.639-6.656 35.266 8.206 70.323 17.066 103.792 31.232a63.598 63.598 0 0 1 5.896 2.858c14.864 8.205 15.653 14.694 6.17 28.918-8.114 12.17-15.974 24.877-21.412 38.368-9.248 22.946-3.037 38.828 17.812 52.093 14.785 9.407 30.978 12.272 48.164 10.061 11.79-1.514 17.973-9.636 22.355-19.565 8.42-19.08 10.881-39.498 13.143-59.949.94-8.487 4.177-12.176 12.721-12.578 4.977-.234 10.415.179 14.993 1.97 31.176 12.187 62.157 24.876 93.256 37.258 5.915 2.355 6.69 5.745 4.258 11.276-7.484 17.026-14.42 34.294-21.977 51.283-7.98 17.94-15.552 35.87-16.879 55.87-1.464 22.049 13.397 31.863 31.319 34.22 15.811 2.082 31.665 4.685 47.078 8.69 12.034 3.125 15.066 8.144 13.688 20.329-1.425 12.63-3.035 25.596-7.229 37.473-7.172 20.315-27.594 24.866-44.89 11.329-12.26-9.595-24.678-18.828-39.76-23.818-15.993-5.292-24.553-2.923-34.886 10.49-14.499 18.817-19.753 41.123-24.182 63.789-2.87 14.69-5.828 29.385-9.461 43.899-2.458 9.822-3.016 9.687-12.34 6.359-52.84-18.863-105.682-37.728-158.521-56.596z" opacity=".78"/>
        <path d="M232.978 435.425c-53.364-18.098-106.732-36.19-160.098-54.286-9.111-3.09-9.124-3.1-6.057-12.148 35.164-103.733 70.396-207.44 105.352-311.243 2.172-6.454 5.096-8.23 11.53-6.843 35.393 7.64 70.587 15.938 104.279 29.566a63.598 63.598 0 0 1 5.94 2.763c14.994 7.966 15.887 14.442 6.634 28.816-7.918 12.298-15.574 25.13-20.796 38.705-8.879 23.092-2.414 38.873 18.645 51.802 14.934 9.169 31.17 11.774 48.319 9.288 11.764-1.703 17.816-9.923 22.039-19.92 8.113-19.212 10.247-39.668 12.18-60.152.805-8.5 3.982-12.242 12.519-12.78 4.973-.314 10.416.012 15.022 1.73 31.368 11.686 62.547 23.877 93.841 35.759 5.952 2.26 6.78 5.636 4.438 11.206-7.21 17.144-13.868 34.52-21.153 51.63-7.692 18.064-14.975 36.113-15.981 56.132-1.111 22.069 13.905 31.644 31.862 33.714 15.843 1.829 31.736 4.177 47.211 7.934 12.084 2.932 15.195 7.902 14.013 20.107-1.223 12.652-2.625 25.642-6.628 37.585-6.846 20.427-27.193 25.305-44.704 12.046-12.411-9.397-24.975-18.43-40.136-23.178-16.075-5.035-24.596-2.53-34.713 11.047-14.195 19.048-19.092 41.435-23.157 64.168-2.634 14.735-5.356 29.476-8.757 44.046-2.3 9.86-2.86 9.734-12.237 6.555-53.136-18.014-106.273-36.03-159.407-54.05z" opacity=".76"/>
        <path d="M232.48 434.251c-53.643-17.253-107.29-34.5-160.935-51.751-9.159-2.945-9.172-2.956-6.248-12.051C98.818 266.174 132.41 161.923 165.72 57.58c2.07-6.487 4.966-8.31 11.421-7.024 35.51 7.08 70.83 14.821 104.733 27.915a63.598 63.598 0 0 1 5.984 2.67c15.117 7.728 16.112 14.189 7.087 28.707-7.723 12.422-15.175 25.373-20.182 39.03-8.513 23.228-1.8 38.905 19.46 51.5 15.077 8.931 31.353 11.28 48.46 8.524 11.736-1.888 17.658-10.203 21.722-20.266 7.809-19.338 9.619-39.824 11.23-60.337.669-8.512 3.787-12.303 12.314-12.976 4.967-.392 10.416-.153 15.048 1.492 31.548 11.19 62.916 22.887 94.394 34.273 5.987 2.166 6.869 5.53 4.614 11.135-6.938 17.255-13.321 34.735-20.335 51.957-7.405 18.184-14.402 36.345-15.093 56.378-.762 22.084 14.403 31.42 32.391 33.207 15.87 1.578 31.798 3.674 47.33 7.187 12.129 2.74 15.318 7.661 14.329 19.884-1.023 12.669-2.22 25.68-6.034 37.684-6.522 20.532-26.79 25.731-44.508 12.75-12.558-9.2-25.263-18.033-40.497-22.54-16.153-4.781-24.632-2.142-34.534 11.593-13.893 19.27-18.435 41.732-22.14 64.526-2.402 14.775-4.891 29.556-8.061 44.178-2.145 9.895-2.706 9.779-12.132 6.748-53.414-17.173-106.828-34.347-160.24-51.525z" opacity=".74"/>
        <path d="M231.972 433.013c-53.905-16.416-107.814-32.828-161.72-49.243-9.204-2.802-9.217-2.812-6.435-11.952 31.896-104.783 63.86-209.544 95.546-314.391 1.97-6.519 4.836-8.386 11.31-7.2 35.616 6.526 71.052 13.717 105.154 26.282a63.597 63.597 0 0 1 6.025 2.576c15.236 7.493 16.331 13.937 7.533 28.594-7.53 12.54-14.779 25.605-19.572 39.338-8.151 23.359-1.195 38.929 20.258 51.192 15.214 8.696 31.524 10.791 48.586 7.77 11.706-2.071 17.497-10.477 21.404-20.602 7.507-19.457 8.999-39.969 10.29-60.504.537-8.522 3.596-12.36 12.112-13.166 4.96-.47 10.412-.315 15.069 1.258 31.718 10.697 63.265 21.906 94.916 32.8 6.02 2.073 6.953 5.422 4.786 11.063-6.669 17.36-12.78 34.937-19.524 52.266-7.122 18.297-13.836 36.565-14.215 56.606-.418 22.093 14.89 31.193 32.904 32.7 15.892 1.33 31.85 3.18 47.436 6.45 12.17 2.552 15.435 7.422 14.636 19.658-.826 12.684-1.82 25.711-5.447 37.774-6.202 20.631-26.386 26.145-44.304 13.441-12.7-9.003-25.541-17.639-40.843-21.909-16.225-4.529-24.663-1.757-34.35 12.13-13.591 19.483-17.783 42.013-21.134 64.862-2.172 14.81-4.43 29.629-7.373 44.298-1.99 9.927-2.553 9.82-12.025 6.936-53.674-16.34-107.35-32.682-161.023-49.027z" opacity=".72"/>
        <path d="M231.45 431.71c-54.15-15.59-108.304-31.175-162.455-46.763-9.245-2.661-9.26-2.671-6.617-11.852 30.29-105.26 60.649-210.497 90.726-315.817 1.87-6.548 4.708-8.458 11.2-7.372 35.71 5.982 71.253 12.63 105.543 24.672a63.597 63.597 0 0 1 6.064 2.483c15.348 7.259 16.542 13.685 7.969 28.475-7.336 12.654-14.386 25.829-18.969 39.633-7.792 23.481-.599 38.943 21.04 50.876 15.345 8.463 31.685 10.308 48.699 7.026 11.672-2.25 17.334-10.743 21.086-20.926 7.209-19.57 8.387-40.103 9.364-60.655.407-8.529 3.406-12.414 11.909-13.35 4.952-.545 10.405-.473 15.086 1.028 31.878 10.211 63.593 20.935 95.406 31.345 6.051 1.98 7.036 5.315 4.956 10.988-6.403 17.46-12.244 35.129-18.723 52.558-6.841 18.404-13.275 36.773-13.347 56.817-.081 22.097 15.365 30.962 33.4 32.193 15.91 1.087 31.895 2.692 47.529 5.723 12.207 2.366 15.547 7.186 14.935 19.433-.632 12.694-1.427 25.736-4.869 37.852-5.886 20.724-25.984 26.546-44.093 14.118-12.837-8.808-25.808-17.246-41.174-21.282-16.292-4.28-24.686-1.38-34.16 12.654-13.292 19.688-17.139 42.28-20.14 65.178-1.944 14.841-3.976 29.692-6.694 44.405-1.839 9.956-2.403 9.857-11.918 7.119-53.918-15.517-107.837-31.036-161.753-46.559z" opacity=".7"/>
        <path d="M230.908 430.343C176.53 415.568 122.148 400.8 67.77 386.025c-9.284-2.521-9.298-2.531-6.794-11.751C89.68 268.572 118.455 162.89 146.947 57.13c1.77-6.575 4.58-8.528 11.087-7.54 35.797 5.445 71.435 11.558 105.902 23.084 2.07.693 4.116 1.49 6.1 2.392 15.456 7.027 16.746 13.435 8.397 28.352-7.146 12.763-13.996 26.042-18.371 39.914-7.44 23.595-.014 38.947 21.8 50.554 15.471 8.23 31.837 9.831 48.8 6.293 11.637-2.424 17.171-11.002 20.77-21.24 6.914-19.676 7.783-40.224 8.451-60.789.279-8.534 3.22-12.463 11.707-13.527 4.944-.62 10.397-.63 15.1.8 32.028 9.732 63.9 19.979 95.866 29.91 6.08 1.889 7.115 5.208 5.12 10.911-6.14 17.555-11.714 35.31-17.93 52.834-6.565 18.505-12.722 36.968-12.493 57.011.251 22.096 15.829 30.727 33.88 31.687 15.925.849 31.932 2.213 47.61 5.01 12.24 2.181 15.653 6.95 15.225 19.205-.441 12.703-1.04 25.755-4.3 37.922-5.574 20.81-25.582 26.933-43.876 14.778-12.967-8.615-26.064-16.857-41.489-20.661-16.354-4.035-24.704-1.01-33.966 13.165-12.994 19.887-16.502 42.533-19.158 65.474-1.722 14.869-3.53 29.749-6.027 44.5-1.688 9.984-2.254 9.893-11.809 7.298-54.145-14.706-108.291-29.413-162.435-44.124z" opacity=".68"/>
        <path d="M230.344 428.912c-54.59-13.972-109.184-27.939-163.774-41.91-9.321-2.384-9.335-2.394-6.967-11.65 27.144-106.113 54.358-212.207 81.29-318.375 1.673-6.6 4.453-8.595 10.974-7.703 35.873 4.917 71.598 10.504 106.23 21.52 2.081.663 4.138 1.43 6.136 2.303 15.557 6.798 16.942 13.187 8.812 28.225-6.956 12.867-13.61 26.245-17.78 40.18-7.09 23.702.56 38.943 22.544 50.227 15.59 8.002 31.977 9.361 48.886 5.574 11.6-2.596 17.007-11.254 20.454-21.545 6.624-19.775 7.19-40.333 7.555-60.906.153-8.537 3.035-12.51 11.506-13.698 4.935-.692 10.387-.783 15.11.578 32.169 9.258 64.188 19.034 96.298 28.493 6.106 1.8 7.19 5.103 5.28 10.835-5.88 17.644-11.193 35.478-17.15 53.093-6.292 18.599-12.176 37.15-11.652 57.188.577 22.09 16.28 30.49 34.343 31.185 15.936.613 31.962 1.742 47.679 4.307 12.272 2.001 15.754 6.72 15.506 18.98-.253 12.707-.66 25.766-3.74 37.98-5.267 20.89-25.182 27.307-43.654 15.423-13.092-8.423-26.31-16.47-41.788-20.048-16.413-3.793-24.717-.644-33.769 13.665-12.7 20.076-15.873 42.771-18.191 65.749-1.502 14.892-3.092 29.797-5.37 44.585-1.542 10.006-2.11 9.924-11.7 7.47a1626870.18 1626870.18 0 0 1-163.068-41.725z" opacity=".66"/>
        <path d="M229.752 427.416c-54.786-13.182-109.575-26.36-164.362-39.54-9.354-2.25-9.368-2.26-7.134-11.549 25.61-106.494 51.29-212.97 76.685-319.516 1.578-6.624 4.329-8.658 10.862-7.86 35.941 4.398 71.742 9.469 106.531 19.985 2.09.632 4.157 1.37 6.167 2.213 15.655 6.573 17.131 12.941 9.22 28.095-6.77 12.966-13.23 26.44-17.199 40.432-6.748 23.803 1.122 38.931 23.266 49.897 15.704 7.776 32.11 8.898 48.962 4.868 11.562-2.763 16.843-11.499 20.142-21.838 6.337-19.869 6.606-40.433 6.674-61.009.03-8.538 2.855-12.552 11.308-13.862 4.923-.764 10.374-.934 15.117.36 32.298 8.792 64.455 18.105 96.698 27.099 6.132 1.71 7.264 4.998 5.436 10.758-5.625 17.727-10.68 35.635-16.383 53.334-6.021 18.689-11.637 37.324-10.824 57.351.896 22.08 16.718 30.253 34.79 30.686 15.943.383 31.983 1.28 47.736 3.618 12.3 1.824 15.849 6.492 15.778 18.754-.07 12.71-.288 25.774-3.191 38.03-4.965 20.964-24.786 27.668-43.427 16.052-13.213-8.232-26.544-16.089-42.073-19.442-16.466-3.556-24.724-.288-33.568 14.15-12.409 20.257-15.254 42.996-17.24 66.005-1.288 14.913-2.662 29.84-4.726 44.658-1.397 10.027-1.966 9.953-11.592 7.638-54.551-13.12-109.103-26.241-163.653-39.367z" opacity=".64"/>
        <path d="M229.13 425.857c-54.967-12.408-109.937-24.81-164.904-37.216-9.385-2.118-9.4-2.127-7.297-11.447 24.104-106.845 48.278-213.673 72.166-320.567 1.485-6.645 4.206-8.718 10.75-8.012 36 3.89 71.869 8.455 106.803 18.478a63.598 63.598 0 0 1 6.198 2.126c15.745 6.352 17.311 12.698 9.615 27.963-6.587 13.06-12.856 26.623-16.626 40.67-6.412 23.896 1.67 38.912 23.968 49.564 15.812 7.554 32.232 8.444 49.026 4.175 11.521-2.926 16.679-11.734 19.83-22.12 6.057-19.956 6.036-40.522 5.814-61.096-.092-8.539 2.676-12.592 11.11-14.021 4.912-.833 10.36-1.08 15.12.146 32.42 8.336 64.705 17.194 97.072 25.732 6.155 1.624 7.333 4.895 5.587 10.68-5.374 17.804-10.175 35.782-15.628 53.56-5.757 18.772-11.11 37.484-10.013 57.498 1.207 22.064 17.144 30.014 35.22 30.191 15.946.159 31.998.83 47.781 2.945 12.324 1.65 15.94 6.267 16.042 18.529.11 12.71.076 25.775-2.654 38.071-4.668 21.032-24.392 28.015-43.196 16.663-13.327-8.045-26.769-15.712-42.343-18.846-16.514-3.323-24.725.062-33.365 14.624-12.121 20.43-14.646 43.206-16.307 66.24-1.076 14.93-2.24 29.875-4.095 44.72-1.255 10.047-1.824 9.981-11.482 7.802-54.731-12.348-109.463-24.698-164.192-37.052z" opacity=".62"/>
        <path d="M228.472 424.234c-55.133-11.648-110.269-23.29-165.402-34.938-9.413-1.988-9.427-1.997-7.453-11.345 22.627-107.167 45.326-214.318 67.738-321.531 1.393-6.666 4.085-8.776 10.638-8.16 36.05 3.393 71.979 7.463 107.048 17.004a63.598 63.598 0 0 1 6.226 2.04c15.832 6.134 17.485 12.458 10 27.827-6.405 13.15-12.487 26.798-16.064 40.896-6.08 23.981 2.208 38.885 24.65 49.228 15.915 7.335 32.346 7.999 49.079 3.5 11.48-3.085 16.515-11.964 19.524-22.392 5.78-20.038 5.475-40.602 4.97-61.171-.21-8.536 2.502-12.627 10.915-14.173 4.9-.9 10.345-1.222 15.122-.062 32.53 7.888 64.935 16.3 97.416 24.39 6.178 1.54 7.4 4.794 5.735 10.602-5.129 17.877-9.682 35.92-14.888 53.771-5.498 18.85-10.592 37.634-9.22 57.63 1.512 22.046 17.556 29.775 35.633 29.703 15.947-.06 32.007.388 47.818 2.285 12.346 1.48 16.024 6.047 16.296 18.306.285 12.707.43 25.772-2.13 38.105-4.377 21.094-24.003 28.349-42.96 17.257-13.438-7.86-26.984-15.341-42.6-18.26-16.559-3.095-24.722.402-33.16 15.082-11.839 20.595-14.049 43.405-15.392 66.46-.87 14.943-1.827 29.902-3.478 44.772-1.116 10.063-1.687 10.005-11.374 7.959a1626870.19 1626870.19 0 0 1-164.687-34.785z" opacity=".6"/>
        <path d="M227.775 422.55c-55.285-10.906-110.572-21.807-165.857-32.711-9.439-1.861-9.453-1.87-7.605-11.244 21.184-107.462 42.44-214.908 63.408-322.413 1.303-6.684 3.967-8.83 10.528-8.303 36.092 2.909 72.072 6.495 107.266 15.563a63.598 63.598 0 0 1 6.254 1.957c15.912 5.92 17.65 12.221 10.373 27.69-6.228 13.234-12.126 26.963-15.513 41.108-5.758 24.061 2.73 38.852 25.31 48.893 16.012 7.12 32.45 7.563 49.121 2.838 11.438-3.238 16.354-12.185 19.221-22.651 5.51-20.114 4.93-40.672 4.147-61.233-.324-8.533 2.333-12.66 10.724-14.318 4.888-.967 10.328-1.362 15.12-.266 32.634 7.45 65.148 15.425 97.735 23.078 6.198 1.456 7.465 4.694 5.877 10.524-4.888 17.944-9.198 36.047-14.164 53.967-5.244 18.92-10.084 37.772-8.444 57.749 1.808 22.023 17.955 29.535 36.029 29.22 15.946-.275 32.01-.042 47.845 1.642 12.364 1.314 16.104 5.831 16.54 18.086.456 12.702.778 25.763-1.616 38.13-4.093 21.15-23.62 28.668-42.726 17.833-13.542-7.68-27.187-14.978-42.841-17.686-16.599-2.872-24.714.735-32.954 15.527-11.56 20.752-13.464 43.59-14.497 66.66-.67 14.954-1.425 29.924-2.875 44.815-.981 10.077-1.552 10.027-11.266 8.111-55.047-10.853-110.095-21.707-165.14-32.566z" opacity=".58"/>
        <path d="M227.034 420.804c-55.422-10.182-110.847-20.357-166.27-30.537-9.463-1.738-9.477-1.746-7.752-11.143 19.776-107.73 39.623-215.446 59.182-323.216 1.216-6.7 3.851-8.881 10.418-8.44 36.127 2.436 72.152 5.55 107.46 14.158a63.598 63.598 0 0 1 6.28 1.874c15.988 5.712 17.809 11.99 10.734 27.552-6.054 13.315-11.771 27.12-14.973 41.308-5.442 24.134 3.24 38.812 25.948 48.557 16.104 6.91 32.546 7.137 49.154 2.195 11.394-3.388 16.193-12.398 18.923-22.901 5.247-20.185 4.396-40.733 3.345-61.282-.435-8.527 2.167-12.689 10.536-14.457 4.875-1.03 10.308-1.497 15.114-.464 32.73 7.022 65.345 14.57 98.03 21.797 6.216 1.375 7.525 4.596 6.013 10.446-4.652 18.007-8.724 36.164-13.455 54.147-4.996 18.988-9.59 37.901-7.687 57.855 2.096 21.998 18.34 29.298 36.408 28.747 15.94-.485 32.006-.462 47.862 1.015 12.38 1.152 16.179 5.62 16.776 17.867.621 12.695 1.115 25.751-1.117 38.148-3.817 21.203-23.243 28.975-42.49 18.391-13.64-7.501-27.38-14.62-43.068-17.123-16.635-2.655-24.703 1.058-32.748 15.956-11.288 20.902-12.892 43.762-13.623 66.845-.473 14.96-1.033 29.94-2.288 44.849-.85 10.089-1.421 10.046-11.159 8.258-55.184-10.132-110.37-20.265-165.553-30.402z" opacity=".56"/>
        <path d="M226.247 418.997c-55.547-9.475-111.097-18.945-166.645-28.419-9.484-1.617-9.499-1.625-7.893-11.043 18.403-107.973 36.878-215.933 55.065-323.943 1.13-6.715 3.738-8.93 10.31-8.571 36.155 1.975 72.216 4.632 107.632 12.789 2.127.49 4.24 1.088 6.302 1.794 16.06 5.508 17.96 11.762 11.084 27.413-5.884 13.39-11.425 27.267-14.446 41.495-5.135 24.202 3.733 38.768 26.563 48.223 16.19 6.704 32.635 6.723 49.179 1.57 11.35-3.533 16.033-12.603 18.63-23.14 4.989-20.25 3.877-40.786 2.564-61.32-.543-8.521 2.006-12.715 10.352-14.59 4.86-1.093 10.288-1.628 15.107-.656 32.815 6.605 65.525 13.738 98.299 20.548 6.233 1.295 7.583 4.5 6.146 10.369-4.423 18.064-8.264 36.272-12.766 54.314-4.754 19.05-9.106 38.02-6.95 57.948 2.375 21.969 18.711 29.062 36.77 28.28 15.934-.687 31.998-.869 47.872.407 12.394.994 16.249 5.413 17.002 17.652.783 12.686 1.442 25.735-.632 38.16-3.546 21.249-22.872 29.268-42.251 18.93-13.736-7.328-27.565-14.271-43.284-16.575-16.667-2.442-24.687 1.373-32.542 16.372-11.021 21.044-12.334 43.923-12.771 67.013-.283 14.966-.652 29.95-1.718 44.874-.72 10.1-1.293 10.064-11.053 8.4-55.308-9.43-110.618-18.86-165.926-28.294z" opacity=".54"/>
        <path d="M225.41 417.131c-55.66-8.789-111.323-17.572-166.984-26.36-9.503-1.5-9.518-1.508-8.028-10.945 17.07-108.192 34.21-216.371 51.063-324.598 1.047-6.728 3.627-8.975 10.203-8.698 36.177 1.53 72.268 3.74 107.782 11.46a63.598 63.598 0 0 1 6.323 1.717c16.127 5.308 18.105 11.539 11.422 27.274-5.718 13.462-11.088 27.406-13.933 41.67-4.836 24.263 4.211 38.719 27.157 47.891 16.271 6.504 32.715 6.32 49.194.963 11.305-3.673 15.876-12.8 18.343-23.368 4.738-20.31 3.374-40.83 1.807-61.347-.649-8.514 1.848-12.739 10.17-14.717 4.848-1.152 10.268-1.754 15.098-.842 32.895 6.2 65.69 12.929 98.546 19.334 6.248 1.218 7.638 4.405 6.273 10.292-4.2 18.117-7.815 36.37-12.094 54.467-4.518 19.107-8.636 38.13-6.235 58.03 2.647 21.937 19.069 28.828 37.117 27.824 15.924-.883 31.984-1.264 47.873-.184 12.405.841 16.314 5.212 17.218 17.44.94 12.676 1.76 25.716-.16 38.165-3.284 21.291-22.51 29.549-42.015 19.45-13.825-7.157-27.739-13.93-43.485-16.039-16.696-2.237-24.668 1.677-32.337 16.773-10.761 21.178-11.791 44.071-11.944 67.165-.098 14.968-.282 29.956-1.163 44.892-.596 10.107-1.169 10.078-10.949 8.535-55.42-8.746-110.842-17.493-166.262-26.244z" opacity=".52"/>
        <path d="M224.518 415.208c-55.761-8.124-111.525-16.242-167.286-24.364-9.52-1.386-9.536-1.394-8.16-10.848C64.849 271.607 80.697 163.23 96.255 54.81c.967-6.74 3.52-9.017 10.099-8.82 36.192 1.098 72.307 2.878 107.91 10.172 2.14.439 4.265.985 6.344 1.64 16.19 5.117 18.241 11.323 11.747 27.136-5.557 13.53-10.76 27.537-13.434 41.835-4.545 24.319 4.673 38.665 27.727 47.563 16.348 6.31 32.788 5.928 49.202.375 11.26-3.808 15.722-12.989 18.062-23.586 4.496-20.365 2.886-40.868 1.075-61.364-.75-8.505 1.696-12.76 9.994-14.837 4.833-1.21 10.246-1.877 15.086-1.023 32.967 5.807 65.84 12.143 98.77 18.155 6.262 1.144 7.69 4.314 6.395 10.216-3.982 18.167-7.38 36.462-11.442 54.608-4.29 19.16-8.18 38.23-5.541 58.1 2.908 21.905 19.411 28.6 37.447 27.38 15.911-1.074 31.967-1.646 47.866-.757 12.415.693 16.376 5.017 17.426 17.234 1.091 12.664 2.067 25.693.295 38.164-3.029 21.329-22.154 29.815-41.779 19.95-13.91-6.991-27.903-13.597-43.673-15.518-16.721-2.037-24.646 1.972-32.135 17.158-10.507 21.305-11.263 44.209-11.14 67.303.08 14.968.075 29.957-.627 44.903-.475 10.113-1.048 10.091-10.846 8.665a1626870.19 1626870.19 0 0 1-166.564-24.255z" opacity=".5"/>
        <path d="M223.569 413.227c-55.852-7.48-111.705-14.953-167.557-22.431-9.536-1.276-9.55-1.284-8.283-10.754C62.252 271.48 76.848 162.927 91.153 54.335c.89-6.751 3.416-9.058 9.997-8.935 36.202.679 72.335 2.042 108.02 8.925 2.144.414 4.277.935 6.363 1.567 16.247 4.929 18.37 11.111 12.06 26.998-5.401 13.594-10.442 27.66-12.95 41.987-4.266 24.37 5.118 38.609 28.273 47.24 16.42 6.12 32.854 5.55 49.203-.193 11.216-3.937 15.571-13.17 17.789-23.793 4.26-20.415 2.414-40.898.366-61.372-.848-8.496 1.549-12.779 9.822-14.951 4.82-1.266 10.224-1.996 15.074-1.197 33.031 5.425 65.975 11.382 98.972 17.013 6.276 1.072 7.74 4.225 6.513 10.142-3.772 18.211-6.959 36.545-10.811 54.737-4.068 19.208-7.738 38.321-4.87 58.16 3.16 21.87 19.74 28.373 37.76 26.945 15.898-1.258 31.946-2.015 47.855-1.309 12.422.55 16.433 4.828 17.624 17.032 1.237 12.65 2.363 25.667.735 38.157-2.782 21.363-21.809 30.07-41.546 20.432-13.989-6.83-28.058-13.275-43.85-15.013-16.743-1.844-24.621 2.256-31.934 17.527-10.26 21.425-10.753 44.336-10.363 67.427.254 14.966.422 29.955-.109 44.907-.358 10.119-.931 10.103-10.744 8.79-55.611-7.441-111.223-14.884-166.833-22.331z" opacity=".48"/>
        <path d="M222.558 411.19c-55.93-6.857-111.864-13.709-167.795-20.565-9.55-1.17-9.565-1.177-8.403-10.66 13.315-108.718 26.702-217.426 39.799-326.17.813-6.762 3.314-9.096 9.896-9.047 36.208.277 72.354 1.237 108.114 7.723 2.148.39 4.286.888 6.379 1.497 16.3 4.747 18.493 10.905 12.359 26.862-5.25 13.652-10.133 27.774-12.483 42.128-3.993 24.416 5.549 38.55 28.798 46.922 16.487 5.938 32.914 5.184 49.198-.74 11.171-4.062 15.424-13.341 17.523-23.989 4.033-20.461 1.959-40.923-.317-61.372-.943-8.487 1.407-12.796 9.655-15.06 4.805-1.32 10.201-2.109 15.06-1.364 33.09 5.057 66.098 10.647 99.155 15.91 6.287 1.002 7.786 4.14 6.626 10.07-3.57 18.252-6.552 36.62-10.202 54.853-3.854 19.252-7.311 38.405-4.223 58.21 3.405 21.834 20.055 28.152 38.058 26.524 15.884-1.434 31.922-2.37 47.838-1.841 12.427.411 16.485 4.644 17.812 16.835 1.377 12.635 2.648 25.639 1.16 38.146-2.545 21.393-21.474 30.31-41.317 20.893-14.064-6.674-28.204-12.961-44.013-14.524-16.764-1.658-24.596 2.53-31.738 17.881-10.021 21.538-10.259 44.453-9.612 67.538.42 14.963.755 29.949.39 44.906-.245 10.121-.818 10.113-10.646 8.909-55.69-6.823-111.381-13.646-167.07-20.474z" opacity=".46"/>
        <path d="M221.484 409.1c-56.002-6.258-112.005-12.511-168.006-18.768-9.562-1.068-9.577-1.076-8.517-10.57 12.152-108.855 24.375-217.7 36.308-326.578.741-6.77 3.217-9.13 9.799-9.152 36.208-.11 72.363.464 108.19 6.566 2.152.368 4.295.842 6.395 1.429 16.35 4.573 18.608 10.707 12.645 26.728-5.103 13.708-9.835 27.88-12.03 42.26-3.733 24.456 5.96 38.487 29.297 46.611 16.55 5.76 32.968 4.831 49.187-1.267 11.128-4.18 15.28-13.505 17.266-24.175 3.814-20.503 1.52-40.941-.973-61.365-1.034-8.476 1.27-12.81 9.493-15.162 4.79-1.371 10.178-2.218 15.044-1.526 33.142 4.703 66.208 9.94 99.32 14.85 6.298.934 7.83 4.055 6.733 9.997-3.374 18.29-6.16 36.688-9.615 54.96-3.648 19.292-6.9 38.481-3.6 58.252 3.638 21.796 20.355 27.935 38.34 26.115 15.867-1.604 31.894-2.711 47.815-2.353 12.431.279 16.534 4.468 17.991 16.643 1.513 12.62 2.923 25.61 1.568 38.133-2.316 21.418-21.148 30.538-41.09 21.333-14.135-6.523-28.341-12.659-44.167-14.053-16.78-1.478-24.567 2.793-31.545 18.22-9.79 21.644-9.782 44.56-8.888 67.637.58 14.958 1.075 29.939.87 44.9-.137 10.123-.71 10.12-10.55 9.021-55.76-6.226-111.52-12.453-167.28-18.685z" opacity=".44"/>
        <path d="M220.342 406.958c-56.063-5.683-112.127-11.362-168.19-17.044-9.572-.97-9.587-.977-8.624-10.483 11.034-108.973 22.14-217.937 32.955-326.933.672-6.776 3.123-9.162 9.705-9.25 36.205-.483 72.363-.28 108.251 5.455 2.156.345 4.304.798 6.41 1.362 16.396 4.405 18.717 10.516 12.919 26.598-4.962 13.76-9.55 27.98-11.597 42.38-3.481 24.494 6.354 38.425 29.774 46.309 16.608 5.59 33.016 4.493 49.172-1.771 11.084-4.295 15.14-13.662 17.016-24.351 3.604-20.542 1.101-40.955-1.602-61.352-1.12-8.465 1.138-12.823 9.337-15.26 4.776-1.42 10.155-2.321 15.028-1.679 33.188 4.363 66.307 9.26 99.467 13.83 6.307.87 7.87 3.975 6.835 9.928-3.187 18.323-5.783 36.749-9.05 55.055-3.45 19.329-6.505 38.55-3.002 58.286 3.86 21.757 20.64 27.725 38.605 25.72 15.85-1.766 31.865-3.038 47.788-2.843 12.433.151 16.58 4.298 18.161 16.458 1.642 12.604 3.185 25.578 1.96 38.114-2.097 21.441-20.834 30.753-40.87 21.754-14.201-6.378-28.47-12.368-44.308-13.599-16.795-1.306-24.537 3.044-31.357 18.543-9.567 21.743-9.324 44.658-8.194 67.724.733 14.95 1.382 29.926 1.332 44.888-.034 10.125-.607 10.128-10.458 9.13-55.82-5.654-111.643-11.31-167.463-16.969z" opacity=".42"/>
        <path d="M219.13 404.765c-56.116-5.134-112.234-10.262-168.35-15.394-9.58-.876-9.596-.883-8.726-10.397C52.018 269.898 62.055 160.83 71.8 51.734c.606-6.783 3.034-9.193 9.614-9.347 36.199-.837 72.357-.989 108.3 4.394 2.159.324 4.311.755 6.422 1.3 16.44 4.243 18.82 10.331 13.18 26.469-4.827 13.807-9.274 28.072-11.181 42.492-3.24 24.527 6.731 38.36 30.227 46.014 16.662 5.428 33.058 4.169 49.152-2.253 11.041-4.403 15.006-13.81 16.777-24.517 3.402-20.576.7-40.964-2.204-61.333-1.204-8.454 1.012-12.833 9.187-15.35 4.762-1.467 10.131-2.422 15.01-1.827 33.23 4.037 66.395 8.609 99.598 12.854 6.315.807 7.91 3.897 6.933 9.86-3.007 18.353-5.423 36.804-8.51 55.14-3.26 19.363-6.127 38.613-2.43 58.314 4.074 21.718 20.91 27.521 38.855 25.34 15.832-1.922 31.834-3.35 47.759-3.312 12.434.03 16.62 4.135 18.32 16.28 1.767 12.586 3.437 25.545 2.334 38.092-1.886 21.46-20.53 30.956-40.654 22.154-14.263-6.239-28.59-12.088-44.44-13.164-16.806-1.14-24.506 3.285-31.173 18.85-9.354 21.836-8.886 44.747-7.53 67.801.88 14.943 1.676 29.911 1.773 44.873.065 10.124-.508 10.133-10.368 9.232-55.873-5.106-111.748-10.213-167.621-15.325z" opacity=".4"/>
        <path d="M217.844 402.522c-56.161-4.608-112.324-9.211-168.485-13.819-9.589-.786-9.605-.793-8.824-10.315C49.48 269.224 58.495 160.066 67.22 50.884c.542-6.788 2.947-9.22 9.526-9.436 36.19-1.176 72.345-1.665 108.336 3.38 2.162.305 4.318.716 6.434 1.24 16.478 4.09 18.916 10.156 13.427 26.345-4.698 13.852-9.012 28.158-10.783 42.595-3.011 24.556 7.09 38.296 30.656 45.73 16.712 5.27 33.096 3.859 49.128-2.713 11-4.507 14.877-13.95 16.547-24.673 3.21-20.607.317-40.968-2.777-61.31-1.283-8.442.892-12.842 9.043-15.435 4.748-1.511 10.108-2.516 14.993-1.967 33.266 3.726 66.472 7.987 99.713 11.921 6.323.749 7.946 3.823 7.025 9.795-2.835 18.38-5.078 36.853-7.994 55.219-3.079 19.391-5.765 38.668-1.885 58.332 4.278 21.68 21.168 27.325 39.091 24.977 15.813-2.07 31.801-3.649 47.725-3.759 12.434-.087 16.659 3.98 18.473 16.107 1.884 12.57 3.675 25.512 2.69 38.07-1.685 21.477-20.241 31.146-40.446 22.532-14.32-6.104-28.7-11.82-44.56-12.747-16.817-.984-24.475 3.514-30.996 19.14-9.15 21.923-8.467 44.829-6.895 67.87 1.02 14.933 1.955 29.893 2.191 44.853.16 10.124-.412 10.138-10.28 9.329-55.919-4.583-111.84-9.168-167.758-13.757z" opacity=".38"/>
        <path d="M216.483 400.232c-56.2-4.11-112.402-8.214-168.602-12.322-9.595-.7-9.61-.708-8.915-10.236C46.94 268.434 54.986 159.2 62.741 49.945c.481-6.792 2.865-9.246 9.441-9.52 36.178-1.497 72.328-2.308 108.362 2.418 2.165.285 4.325.677 6.445 1.183 16.514 3.943 19.005 9.986 13.66 26.224-4.574 13.893-8.76 28.237-10.404 42.689-2.792 24.582 7.43 38.232 31.061 45.456 16.759 5.122 33.129 3.565 49.103-3.15 10.96-4.604 14.752-14.08 16.327-24.818 3.026-20.635-.048-40.97-3.322-61.283-1.358-8.43.778-12.85 8.906-15.515 4.734-1.553 10.085-2.606 14.974-2.1 33.298 3.43 66.54 7.396 99.816 11.035 6.328.692 7.979 3.752 7.11 9.732-2.67 18.405-4.75 36.897-7.502 55.287-2.907 19.418-5.421 38.718-1.366 58.347 4.47 21.64 21.41 27.136 39.311 24.628 15.794-2.21 31.767-3.93 47.69-4.182 12.432-.198 16.693 3.831 18.615 15.942 1.995 12.553 3.901 25.479 3.027 38.044-1.494 21.492-19.963 31.326-40.243 22.891-14.374-5.977-28.805-11.564-44.672-12.35-16.825-.835-24.442 3.73-30.824 19.414-8.954 22.003-8.069 44.902-6.292 67.928 1.152 14.924 2.22 29.875 2.59 44.833.25 10.121-.323 10.14-10.198 9.42-55.957-4.087-111.916-8.175-167.873-12.266z" opacity=".36"/>
        <path d="M215.043 397.895c-56.232-3.637-112.466-7.268-168.699-10.904-9.6-.62-9.616-.627-9-10.161 7.054-109.303 14.182-218.6 21.017-327.917.425-6.796 2.788-9.27 9.361-9.599 36.164-1.801 72.306-2.916 108.379 1.507 2.167.267 4.33.64 6.455 1.128 16.546 3.805 19.088 9.827 13.88 26.11-4.458 13.93-8.523 28.308-10.045 42.774-2.586 24.604 7.75 38.168 31.442 45.193 16.8 4.981 33.158 3.286 49.075-3.562 10.92-4.696 14.633-14.205 16.117-24.955 2.853-20.66-.392-40.968-3.837-61.253-1.428-8.419.67-12.856 8.775-15.59 4.721-1.593 10.063-2.69 14.956-2.226 33.326 3.15 66.6 6.837 99.905 10.196 6.335.639 8.01 3.685 7.193 9.672-2.517 18.427-4.44 36.935-7.038 55.348-2.743 19.442-5.095 38.762-.875 58.357 4.651 21.602 21.637 26.955 39.517 24.296 15.774-2.343 31.732-4.198 47.653-4.583 12.43-.302 16.724 3.691 18.748 15.785 2.1 12.536 4.115 25.445 3.347 38.018-1.313 21.503-19.699 31.492-40.05 23.228-14.423-5.856-28.9-11.321-44.774-11.974-16.83-.693-24.41 3.936-30.66 19.673-8.768 22.077-7.69 44.968-5.72 67.978 1.278 14.914 2.472 29.856 2.967 44.81.335 10.118-.238 10.142-10.118 9.504-55.99-3.615-111.981-7.232-167.97-10.853z" opacity=".34"/>
        <path d="M213.523 395.513c-56.26-3.191-112.52-6.377-168.78-9.567-9.606-.544-9.621-.55-9.081-10.09C41.85 266.502 48.112 157.153 54.08 47.785c.37-6.8 2.714-9.292 9.284-9.673 36.149-2.088 72.28-3.49 108.388.648 2.169.25 4.334.606 6.463 1.077 16.576 3.673 19.165 9.675 14.086 25.998-4.346 13.966-8.298 28.376-9.705 42.853-2.39 24.624 8.053 38.105 31.8 44.942 16.839 4.848 33.182 3.024 49.044-3.95 10.882-4.783 14.52-14.32 15.92-25.082 2.688-20.682-.717-40.964-4.323-61.221-1.495-8.407.568-12.86 8.651-15.658 4.708-1.63 10.041-2.77 14.938-2.345 33.35 2.886 66.653 6.31 99.983 9.404 6.34.589 8.04 3.621 7.27 9.615-2.372 18.446-4.148 36.97-6.6 55.402-2.589 19.463-4.788 38.8-.413 58.362 4.822 21.564 21.85 26.782 39.708 23.982 15.756-2.468 31.699-4.449 47.615-4.96 12.428-.401 16.754 3.558 18.873 15.636 2.2 12.518 4.317 25.411 3.648 37.99-1.142 21.512-19.448 31.647-39.864 23.545-14.47-5.742-28.99-11.093-44.868-11.62-16.835-.56-24.378 4.13-30.502 19.915-8.594 22.147-7.335 45.029-5.182 68.022 1.396 14.903 2.708 29.835 3.321 44.784.416 10.116-.157 10.145-10.041 9.585-56.017-3.172-112.035-6.345-168.052-9.522z" opacity=".32"/>
        <path d="M211.92 393.088c-56.282-2.773-112.565-5.54-168.847-8.312-9.61-.473-9.625-.48-9.156-10.022 5.376-109.398 10.825-218.792 15.98-328.2.32-6.803 2.645-9.313 9.213-9.742 36.132-2.357 72.253-4.027 108.39-.158 2.17.233 4.338.574 6.47 1.029 16.603 3.55 19.237 9.532 14.28 25.893-4.243 13.998-8.087 28.436-9.387 42.924-2.208 24.641 8.336 38.044 32.133 44.704 16.875 4.723 33.204 2.777 49.013-4.315 10.847-4.863 14.414-14.427 15.733-25.2 2.535-20.7-1.021-40.956-4.777-61.186-1.558-8.395.472-12.864 8.534-15.722 4.696-1.666 10.02-2.845 14.92-2.456 33.37 2.639 66.698 5.814 100.05 8.66 6.344.542 8.067 3.562 7.34 9.561-2.233 18.463-3.872 37-6.186 55.45-2.445 19.481-4.5 38.835.02 58.363 4.983 21.528 22.048 26.62 39.886 23.687 15.737-2.585 31.664-4.685 47.576-5.314 12.425-.493 16.78 3.434 18.99 15.495 2.292 12.502 4.505 25.379 3.93 37.961-.983 21.521-19.213 31.791-39.688 23.841-14.513-5.634-29.072-10.876-44.954-11.285-16.84-.435-24.346 4.31-30.353 20.141-8.43 22.21-7 45.081-4.677 68.058 1.507 14.893 2.93 29.815 3.655 44.759.49 10.112-.082 10.145-9.97 9.659-56.04-2.755-112.08-5.512-168.118-8.273z" opacity=".3"/>
        <path d="M210.231 390.62c-56.3-2.382-112.6-4.76-168.9-7.14-9.612-.407-9.628-.413-9.225-9.959 4.618-109.433 9.308-218.861 13.705-328.304.273-6.804 2.58-9.33 9.145-9.805 36.115-2.607 72.223-4.527 108.385-.909 2.173.219 4.343.544 6.478.984 16.628 3.435 19.303 9.4 14.459 25.794-4.146 14.027-7.89 28.492-9.09 42.987-2.036 24.657 8.6 37.986 32.442 44.481 16.908 4.606 33.223 2.547 48.983-4.654 10.813-4.938 14.313-14.527 15.558-25.308 2.391-20.718-1.305-40.95-5.201-61.152-1.616-8.385.383-12.867 8.425-15.781 4.684-1.698 10-2.915 14.903-2.56 33.387 2.408 66.736 5.352 100.107 7.968 6.347.497 8.09 3.505 7.407 9.509-2.106 18.478-3.616 37.025-5.803 55.491-2.31 19.498-4.23 38.866.425 58.362 5.132 21.493 22.232 26.466 40.049 23.41 15.718-2.695 31.631-4.904 47.539-5.644 12.42-.58 16.803 3.317 19.095 15.363 2.38 12.486 4.682 25.347 4.194 37.933-.834 21.528-18.992 31.924-39.522 24.116-14.551-5.533-29.146-10.675-45.03-10.974-16.842-.318-24.316 4.48-30.214 20.351-8.275 22.268-6.687 45.13-4.204 68.09 1.61 14.88 3.136 29.792 3.964 44.731.561 10.11-.011 10.146-9.903 9.728-56.056-2.367-112.114-4.735-168.17-7.107z" opacity=".28"/>
        <path d="M208.456 388.113c-56.314-2.021-112.63-4.036-168.943-6.056-9.615-.344-9.63-.35-9.289-9.899 3.915-109.46 7.902-218.916 11.596-328.385.229-6.805 2.52-9.346 9.081-9.863C87 31.07 123.093 28.919 159.28 32.304c2.173.205 4.346.516 6.484.943 16.649 3.328 19.362 9.275 14.624 25.7-4.056 14.053-7.707 28.542-8.813 43.045-1.878 24.669 8.844 37.93 32.727 44.272 16.937 4.497 33.238 2.333 48.952-4.97 10.78-5.007 14.219-14.619 15.395-25.407 2.258-20.733-1.569-40.94-5.595-61.118-1.67-8.374.3-12.869 8.324-15.834 4.674-1.728 9.982-2.979 14.887-2.655 33.402 2.192 66.769 4.922 100.156 7.323 6.35.457 8.113 3.454 7.467 9.462-1.986 18.491-3.378 37.048-5.446 55.527-2.184 19.513-3.98 38.893.8 58.358 5.27 21.46 22.402 26.323 40.199 23.152 15.7-2.795 31.599-5.107 47.501-5.949 12.417-.659 16.824 3.21 19.194 15.24 2.46 12.47 4.844 25.316 4.437 37.906-.695 21.532-18.786 32.045-39.366 24.369-14.586-5.44-29.214-10.487-45.1-10.685-16.843-.21-24.286 4.636-30.082 20.545-8.131 22.32-6.397 45.171-3.767 68.115 1.706 14.871 3.328 29.772 4.252 44.706.626 10.105.054 10.145-9.84 9.791-56.07-2.007-112.143-4.015-168.213-6.027z" opacity=".26"/>
        <path d="M206.591 385.566c-56.324-1.688-112.65-3.37-168.975-5.057-9.617-.287-9.633-.294-9.347-9.843 3.267-109.482 6.607-218.96 9.654-328.448.188-6.807 2.464-9.361 9.023-9.917 36.08-3.053 72.16-5.418 108.366-2.246 2.174.191 4.349.49 6.49.904 16.668 3.23 19.416 9.16 14.775 25.613-3.973 14.077-7.538 28.587-8.558 43.096-1.733 24.68 9.067 37.877 32.988 44.078 16.963 4.397 33.251 2.136 48.921-5.259 10.751-5.071 14.133-14.703 15.245-25.498 2.135-20.746-1.81-40.93-5.956-61.083-1.719-8.364.225-12.871 8.23-15.884 4.663-1.756 9.964-3.037 14.87-2.743 33.415 1.995 66.798 4.528 100.199 6.732 6.352.419 8.133 3.405 7.523 9.417-1.878 18.503-3.159 37.067-5.118 55.558-2.068 19.526-3.75 38.916 1.145 58.353 5.397 21.428 22.557 26.19 40.335 22.914 15.684-2.888 31.568-5.294 47.465-6.23 12.413-.733 16.843 3.11 19.284 15.126 2.533 12.455 4.994 25.287 4.661 37.879-.568 21.536-18.597 32.155-39.221 24.601-14.618-5.353-29.276-10.314-45.162-10.418-16.845-.11-24.26 4.78-29.96 20.723-8 22.368-6.13 45.208-3.365 68.136 1.794 14.86 3.504 29.752 4.516 44.68.686 10.1.114 10.145-9.782 9.849-56.081-1.675-112.164-3.352-168.246-5.033z" opacity=".24"/>
        <path d="M204.636 382.982c-56.333-1.385-112.667-2.763-169-4.146-9.618-.236-9.634-.242-9.4-9.793 2.677-109.498 5.426-218.992 7.882-328.495.152-6.808 2.415-9.374 8.97-9.966 36.063-3.247 72.13-5.807 108.352-2.83 2.176.18 4.352.466 6.495.869 16.685 3.14 19.466 9.055 14.913 25.533-3.897 14.098-7.384 28.627-8.325 43.142-1.6 24.688 9.271 37.827 33.225 43.899 16.986 4.305 33.262 1.957 48.892-5.523 10.724-5.129 14.053-14.778 15.107-25.58 2.024-20.757-2.031-40.919-6.285-61.05-1.764-8.354.155-12.872 8.144-15.928 4.654-1.78 9.948-3.09 14.856-2.823 33.424 1.815 66.82 4.168 100.232 6.191 6.355.385 8.152 3.362 7.574 9.377-1.777 18.512-2.958 37.083-4.818 55.585-1.963 19.536-3.54 38.935 1.46 58.345 5.512 21.399 22.698 26.068 40.458 22.696 15.668-2.972 31.539-5.464 47.431-6.486 12.408-.799 16.859 3.02 19.365 15.023 2.6 12.441 5.13 25.26 4.865 37.853-.452 21.538-18.423 32.255-39.088 24.812-14.647-5.274-29.33-10.156-45.218-10.174-16.845-.019-24.232 4.91-29.847 20.884-7.88 22.41-5.886 45.24-2.997 68.153 1.873 14.85 3.664 29.733 4.757 44.654.74 10.098.169 10.145-9.73 9.903-56.089-1.373-112.18-2.747-168.27-4.125z" opacity=".22"/>
        <path d="M202.59 380.36c-56.34-1.11-112.68-2.214-169.02-3.323-9.618-.188-9.634-.195-9.447-9.747 2.144-109.51 4.36-219.016 6.283-328.53.119-6.808 2.369-9.385 8.92-10.008 36.048-3.423 72.103-6.158 108.338-3.358 2.177.169 4.354.445 6.499.837 16.7 3.058 19.51 8.96 15.037 25.46-3.828 14.117-7.244 28.663-8.115 43.182-1.48 24.696 9.456 37.782 33.438 43.737 17.008 4.222 33.272 1.795 48.865-5.76 10.699-5.182 13.981-14.848 14.982-25.654 1.923-20.766-2.23-40.909-6.582-61.019-1.804-8.346.093-12.872 8.067-15.967 4.645-1.804 9.932-3.14 14.841-2.895 33.434 1.652 66.84 3.842 100.262 5.702 6.357.354 8.168 3.322 7.62 9.34-1.688 18.52-2.779 37.097-4.548 55.608-1.868 19.545-3.35 38.952 1.744 58.337 5.616 21.372 22.825 25.957 40.568 22.5 15.653-3.05 31.512-5.618 47.399-6.718 12.404-.86 16.873 2.937 19.438 14.928 2.66 12.429 5.253 25.235 5.05 37.829-.347 21.54-18.266 32.344-38.967 25.002-14.673-5.203-29.38-10.013-45.267-9.953-16.845.063-24.209 5.028-29.746 21.029-7.77 22.449-5.665 45.268-2.665 68.166 1.946 14.842 3.81 29.715 4.975 44.631.789 10.094.218 10.144-9.681 9.95-56.096-1.1-112.193-2.2-168.289-3.306z" opacity=".2"/>
        <path d="M200.449 377.703c-56.343-.865-112.688-1.725-169.031-2.59-9.62-.146-9.636-.152-9.49-9.705 1.668-109.518 3.409-219.033 4.857-328.554.089-6.809 2.327-9.396 8.877-10.048 36.031-3.578 72.074-6.47 108.321-3.828 2.178.16 4.356.427 6.503.81 16.713 2.985 19.548 8.875 15.148 25.394-3.767 14.133-7.12 28.694-7.928 43.217-1.372 24.702 9.62 37.74 33.628 43.59 17.025 4.15 33.279 1.652 48.84-5.972 10.675-5.227 13.916-14.907 14.87-25.718 1.832-20.774-2.408-40.899-6.847-60.99-1.84-8.337.036-12.872 7.997-16.002 4.637-1.823 9.919-3.182 14.83-2.96 33.44 1.508 66.855 3.553 100.285 5.268 6.358.327 8.182 3.287 7.66 9.307-1.608 18.528-2.618 37.109-4.306 55.627-1.783 19.553-3.182 38.966 1.997 58.33 5.709 21.346 22.937 25.857 40.664 22.322 15.64-3.117 31.488-5.755 47.37-6.923 12.4-.913 16.886 2.864 19.503 14.844 2.714 12.416 5.362 25.211 5.213 37.806-.253 21.542-18.125 32.424-38.857 25.172-14.695-5.14-29.424-9.886-45.31-9.757-16.845.135-24.187 5.132-29.654 21.157-7.672 22.483-5.47 45.293-2.37 68.178 2.01 14.833 3.939 29.698 5.169 44.609.833 10.09.262 10.142-9.638 9.991-56.1-.856-112.201-1.713-168.301-2.575z" opacity=".18"/>
        <path d="M198.214 375.011c-56.346-.65-112.694-1.296-169.04-1.945-9.62-.11-9.636-.117-9.527-9.67 1.251-109.523 2.575-219.044 3.606-328.57.064-6.81 2.292-9.405 8.84-10.082C68.11 21.03 104.14 18 140.397 20.504c2.178.151 4.358.41 6.506.784 16.725 2.922 19.582 8.801 15.244 25.337-3.713 14.148-7.01 28.721-7.763 43.247-1.278 24.707 9.763 37.703 33.794 43.462 17.04 4.084 33.285 1.525 48.816-6.158 10.656-5.268 13.86-14.96 14.773-25.774 1.753-20.782-2.564-40.89-7.08-60.964-1.872-8.33-.012-12.872 7.937-16.032 4.63-1.841 9.906-3.22 14.817-3.016 33.446 1.38 66.87 3.297 100.305 4.885 6.36.303 8.195 3.256 7.696 9.278-1.537 18.534-2.476 37.118-4.094 55.643-1.71 19.56-3.034 38.977 2.219 58.321 5.79 21.325 23.035 25.77 40.749 22.168 15.628-3.177 31.466-5.874 47.343-7.103 12.397-.96 16.897 2.8 19.559 14.769 2.762 12.406 5.458 25.19 5.357 37.786-.17 21.543-18.001 32.492-38.761 25.32-14.714-5.084-29.46-9.774-45.347-9.585-16.844.2-24.166 5.225-29.573 21.27-7.586 22.512-5.297 45.314-2.11 68.187 2.067 14.825 4.051 29.682 5.338 44.589.872 10.087.301 10.141-9.599 10.027-56.103-.642-112.207-1.286-168.31-1.934z" opacity=".16"/>
        <path d="M195.884 372.286c-56.348-.467-112.698-.928-169.046-1.393-9.62-.08-9.636-.085-9.558-9.639.893-109.526 1.858-219.051 2.531-328.58.041-6.809 2.261-9.412 8.806-10.11 36.005-3.834 72.027-6.98 108.292-4.595 2.178.144 4.359.396 6.508.763 16.734 2.868 19.61 8.737 15.327 25.287-3.667 14.16-6.916 28.744-7.622 43.272-1.197 24.711 9.887 37.671 33.936 43.352 17.054 4.028 33.29 1.415 48.796-6.318 10.639-5.303 13.81-15.006 14.688-25.823 1.685-20.787-2.697-40.88-7.278-60.94-1.9-8.324-.055-12.872 7.884-16.058 4.623-1.856 9.895-3.253 14.807-3.064 33.45 1.27 66.88 3.078 100.32 4.557 6.36.282 8.205 3.229 7.726 9.252-1.476 18.54-2.355 37.127-3.912 55.657-1.645 19.565-2.906 38.987 2.41 58.313 5.86 21.306 23.12 25.695 40.821 22.034 15.618-3.227 31.447-5.977 47.32-7.257 12.393-1.001 16.906 2.744 19.607 14.705 2.803 12.397 5.54 25.173 5.481 37.768-.1 21.544-17.895 32.551-38.679 25.446-14.73-5.035-29.492-9.677-45.377-9.436-16.843.255-24.15 5.304-29.504 21.367-7.513 22.536-5.148 45.33-1.886 68.193 2.115 14.818 4.148 29.67 5.483 44.571.905 10.084.334 10.14-9.566 10.06-56.105-.46-112.21-.92-168.315-1.384z" opacity=".14"/>
        <path d="M193.457 369.527c-56.35-.313-112.7-.62-169.05-.931-9.62-.053-9.636-.059-9.584-9.613.594-109.529 1.26-219.055 1.634-328.585.023-6.81 2.236-9.419 8.779-10.135 35.994-3.932 72.007-7.177 108.279-4.89 2.178.138 4.36.384 6.51.745 16.742 2.822 19.634 8.684 15.396 25.245-3.628 14.17-6.838 28.762-7.504 43.292-1.13 24.715 9.99 37.645 34.054 43.26 17.065 3.981 33.294 1.324 48.779-6.452 10.624-5.332 13.77-15.043 14.617-25.862 1.629-20.792-2.808-40.873-7.444-60.92-1.923-8.32-.09-12.872 7.84-16.08 4.618-1.869 9.886-3.28 14.799-3.105 33.453 1.18 66.887 2.896 100.332 4.284 6.36.264 8.214 3.206 7.75 9.23-1.424 18.544-2.252 37.134-3.76 55.668-1.59 19.57-2.799 38.995 2.57 58.307 5.918 21.29 23.19 25.63 40.881 21.922 15.61-3.27 31.43-6.063 47.3-7.387 12.39-1.035 16.913 2.698 19.647 14.652 2.837 12.39 5.61 25.157 5.584 37.753-.042 21.544-17.806 32.6-38.609 25.552-14.744-4.995-29.519-9.597-45.403-9.312-16.842.3-24.135 5.37-29.445 21.447-7.451 22.557-5.025 45.344-1.7 68.198 2.155 14.812 4.229 29.658 5.605 44.556.932 10.081.362 10.14-9.539 10.085-56.106-.306-112.213-.613-168.318-.924z" opacity=".12"/>
        <path d="M190.932 366.736c-56.35-.19-112.7-.374-169.05-.562-9.62-.031-9.637-.037-9.605-9.591.354-109.53.78-219.058.915-328.589.008-6.81 2.215-9.423 8.756-10.153 35.986-4.01 71.992-7.335 108.268-5.127 2.179.133 4.36.374 6.511.73 16.749 2.786 19.654 8.641 15.452 25.211-3.597 14.178-6.775 28.778-7.409 43.31-1.076 24.716 10.072 37.622 34.148 43.184 17.074 3.944 33.297 1.252 48.765-6.558 10.612-5.355 13.736-15.073 14.56-25.894 1.584-20.795-2.897-40.867-7.577-60.904-1.941-8.315-.118-12.872 7.805-16.097 4.614-1.878 9.88-3.3 14.792-3.137 33.455 1.106 66.893 2.75 100.341 4.064 6.362.25 8.221 3.188 7.771 9.214-1.384 18.546-2.172 37.138-3.638 55.675-1.548 19.573-2.715 39.001 2.697 58.301 5.964 21.277 23.245 25.58 40.929 21.833 15.602-3.304 31.417-6.131 47.283-7.49 12.389-1.062 16.92 2.661 19.68 14.609 2.863 12.383 5.664 25.145 5.666 37.74.005 21.544-17.735 32.64-38.553 25.637-14.755-4.963-29.54-9.533-45.423-9.213-16.842.338-24.123 5.422-29.399 21.512-7.401 22.572-4.925 45.355-1.55 68.2 2.187 14.809 4.293 29.65 5.702 44.544.954 10.08.384 10.14-9.517 10.107-56.106-.183-112.213-.368-168.32-.556z" opacity=".1"/>
        <path d="M188.31 363.912c-56.35-.097-112.701-.188-169.05-.283-9.622-.016-9.638-.022-9.622-9.576.174-109.53.421-219.059.375-328.59-.003-6.809 2.2-9.426 8.74-10.167 35.98-4.07 71.98-7.453 108.26-5.305 2.179.13 4.36.367 6.512.72 16.753 2.758 19.668 8.608 15.493 25.185-3.574 14.184-6.728 28.79-7.338 43.322-1.035 24.718 10.134 37.605 34.22 43.128 17.08 3.916 33.298 1.197 48.753-6.638 10.604-5.373 13.712-15.096 14.518-25.918 1.55-20.798-2.965-40.863-7.678-60.891-1.954-8.312-.139-12.872 7.779-16.11 4.611-1.886 9.874-3.317 14.787-3.161 33.457 1.05 66.898 2.64 100.348 3.899 6.362.24 8.226 3.174 7.786 9.201-1.354 18.548-2.11 37.141-3.547 55.681-1.516 19.576-2.65 39.005 2.792 58.296 6 21.268 23.288 25.543 40.966 21.766 15.596-3.33 31.406-6.183 47.27-7.567 12.387-1.083 16.924 2.633 19.704 14.576 2.884 12.378 5.706 25.136 5.729 37.731.04 21.544-17.682 32.668-38.511 25.7-14.764-4.939-29.556-9.484-45.439-9.139-16.84.366-24.114 5.463-29.363 21.56-7.364 22.585-4.85 45.363-1.439 68.204 2.212 14.804 4.343 29.641 5.776 44.534.97 10.078.4 10.138-9.5 10.122-56.107-.09-112.214-.183-168.32-.28z" opacity=".08"/>
        <path d="M185.59 361.058c-56.35-.035-112.702-.065-169.052-.099-9.62-.005-9.636-.01-9.631-9.565.054-109.53.181-219.059.015-328.59-.01-6.809 2.19-9.429 8.729-10.177 35.974-4.11 71.97-7.532 108.253-5.424 2.18.128 4.362.363 6.513.714 16.756 2.739 19.678 8.586 15.52 25.168-3.557 14.188-6.695 28.796-7.29 43.33-1.007 24.719 10.175 37.594 34.267 43.09 17.085 3.897 33.3 1.16 48.747-6.691 10.597-5.385 13.695-15.111 14.49-25.935 1.526-20.799-3.01-40.859-7.745-60.882-1.964-8.31-.153-12.872 7.76-16.118 4.61-1.892 9.871-3.329 14.784-3.178 33.459 1.014 66.901 2.567 100.352 3.79 6.363.232 8.23 3.165 7.797 9.192-1.334 18.55-2.07 37.144-3.486 55.685-1.495 19.577-2.608 39.008 2.856 58.293 6.023 21.26 23.316 25.517 40.99 21.721 15.592-3.347 31.399-6.217 47.262-7.62 12.385-1.096 16.926 2.615 19.719 14.555 2.897 12.375 5.733 25.13 5.77 37.726.064 21.543-17.646 32.686-38.483 25.74-14.769-4.922-29.566-9.45-45.448-9.088-16.84.384-24.109 5.49-29.34 21.593-7.34 22.593-4.8 45.368-1.364 68.205 2.229 14.802 4.375 29.637 5.825 44.528.982 10.077.411 10.137-9.49 10.132-56.106-.03-112.214-.06-168.32-.095z" opacity=".06"/>
        <path d="M182.77 359.393c-56.35-.004-112.7-.003-169.05-.006-9.621 0-9.637-.006-9.637-9.592-.006-109.902.06-219.802-.165-329.703-.015-6.833 2.184-9.463 8.723-10.217 35.972-4.143 71.967-7.597 108.25-5.502a63.39 63.39 0 0 1 6.514.712c16.757 2.74 19.682 8.605 15.534 25.245-3.55 14.238-6.68 28.898-7.266 43.48-.995 24.804 10.195 37.717 34.29 43.218 17.087 3.902 33.3 1.147 48.743-6.74 10.594-5.409 13.686-15.17 14.475-26.03 1.515-20.871-3.032-40.996-7.778-61.085-1.968-8.337-.16-12.915 7.752-16.177 4.608-1.9 9.869-3.345 14.782-3.197 33.459 1 66.902 2.539 100.354 3.747 6.362.23 8.231 3.172 7.801 9.22-1.323 18.613-2.05 37.27-3.455 55.875-1.484 19.645-2.586 39.142 2.888 58.49 6.035 21.329 23.33 25.59 41.001 21.772 15.591-3.367 31.397-6.256 47.259-7.672 12.385-1.106 16.928 2.614 19.727 14.593 2.904 12.416 5.747 25.212 5.79 37.85.076 21.617-17.627 32.808-38.468 25.85-14.772-4.93-29.571-9.467-45.454-9.094-16.84.394-24.105 5.52-29.327 21.682-7.327 22.673-4.776 45.524-1.327 68.437 2.237 14.85 4.392 29.734 5.85 44.675.986 10.11.416 10.172-9.484 10.172-56.107.001-112.215.001-168.321-.003z" opacity=".04"/>
        <path d="M179.97 357.049c-56.387-.005-112.775-.003-169.162-.006-9.627 0-9.643-.006-9.643-9.607C1.159 237.36 1.226 127.286 1 17.21.985 10.366 3.185 7.732 9.73 6.977c35.996-4.15 72.014-7.61 108.32-5.51 2.182.126 4.366.361 6.52.713 16.768 2.743 19.694 8.618 15.544 25.285-3.553 14.26-6.685 28.943-7.272 43.549-.994 24.843 10.202 37.776 34.313 43.286 17.098 3.908 33.322 1.148 48.775-6.751 10.601-5.417 13.696-15.194 14.485-26.072 1.516-20.904-3.035-41.06-7.783-61.181-1.97-8.35-.16-12.936 7.757-16.203 4.611-1.903 9.875-3.35 14.791-3.201 33.481 1 66.946 2.542 100.42 3.752 6.367.23 8.237 3.177 7.807 9.234-1.325 18.643-2.051 37.33-3.458 55.964-1.485 19.676-2.588 39.204 2.89 58.583 6.039 21.363 23.345 25.63 41.028 21.806 15.601-3.372 31.417-6.266 47.29-7.683 12.393-1.109 16.939 2.618 19.74 14.616 2.906 12.435 5.75 25.251 5.794 37.91.076 21.65-17.639 32.86-38.494 25.89-14.78-4.938-29.59-9.482-45.483-9.108-16.851.395-24.12 5.53-29.347 21.716-7.332 22.71-4.779 45.597-1.327 68.545 2.238 14.874 4.394 29.782 5.853 44.747.987 10.126.417 10.188-9.49 10.188-56.143.001-112.288.001-168.432-.003z" opacity=".02"/>
    </g>
</svg>
