<svg xmlns="http://www.w3.org/2000/svg" width="944" height="943" viewBox="0 0 944 943">
    <g fill="none" fill-rule="evenodd" stroke="#CECACA" opacity=".24">
        <path d="M1.087 359.924L584.641.895l358.133 582.098L359.22 942.022z"/>
        <path d="M2.687 366.186L578.376 1.234l364.041 574.253L366.73 940.44z"/>
        <path d="M4.247 372.997L571.563 1.522l370.55 565.902-567.317 371.475z"/>
        <path d="M7.652 381.346L563.206 4.906l375.5 554.167-555.553 376.44z"/>
        <path d="M9.321 388.89L555.66 5.31 938.28 550.286l-546.337 383.58z"/>
        <path d="M11.079 396.62L547.926 5.792l389.852 535.509L400.93 932.128z"/>
        <path d="M14.812 405.382L539.155 9.504l394.89 523.035-524.343 395.877z"/>
        <path d="M16.874 413.074L531.459 10.3l401.768 513.302-514.585 402.773z"/>
        <path d="M19.082 420.564L523.965 11.236l408.307 503.623L427.39 924.187z"/>
        <path d="M23.315 428.577L515.94 15.447l412.1 491.398-492.627 413.13z"/>
        <path d="M25.864 435.28L509.235 16.735 926.736 498.9l-483.37 418.545z"/>
        <path d="M28.542 441.432l474.535-423.29 422.234 473.351-474.535 423.29z"/>
        <path d="M31.362 446.947L497.557 19.702l426.18 465.032L457.542 911.98z"/>
        <path d="M34.269 451.727L492.77 21.34 922.084 478.7 463.581 909.085z"/>
        <path d="M39.122 456.382l448.982-430.2L917.23 474.046l-448.982 430.2z"/>
        <path d="M42.181 459.481L485 27.988l430.415 441.713-442.818 431.493z"/>
        <path d="M45.259 461.672L482.802 29.804l430.79 436.452-437.543 431.867z"/>
        <path d="M48.371 462.937l433.16-431.27 430.193 432.08-433.16 431.269z"/>
        <path d="M51.473 463.25L481.211 33.512l428.666 428.666-429.738 429.738z"/>
        <path d="M56.443 463.245L481.204 38.483l423.703 423.702-424.762 424.762z"/>
        <path d="M59.56 461.697L482.747 40.359l420.287 422.13-423.185 421.338z"/>
        <path d="M62.668 459.252L485.185 42.215l415.996 421.463-422.517 417.037z"/>
        <path d="M65.809 455.965L488.465 44.12l410.82 421.602-422.657 411.846z"/>
        <path d="M68.965 451.884L492.54 46.029l404.842 422.518L473.807 874.4z"/>
        <path d="M74.04 447.786L496.627 51.114l395.682 421.53-422.585 396.673z"/>
        <path d="M77.334 442.382L502.023 53.176l388.235 423.629L465.57 866.01z"/>
        <path d="M80.7 436.428L507.97 55.3l380.178 426.204-427.27 381.128z"/>
        <path d="M86.034 430.831l427.52-370.184L882.814 487.1l-427.52 370.184z"/>
        <path d="M89.637 424.137L520.24 63.02 880.455 492.55 449.85 853.665z"/>
        <path d="M93.348 417.205L527.165 65.492 878 498.227 444.183 849.94z"/>
        <path d="M99.034 411.08L533.276 71.194 872.314 504.35 438.073 844.238z"/>
        <path d="M103 404.073l437.274-330.14L869.59 510.114l-437.273 330.14z"/>
        <path d="M107.053 397.158L547.18 76.745l319.613 439.029-440.126 320.413z"/>
        <path d="M111.208 390.46l442.66-310.79 310.015 441.557-442.661 310.79z"/>
        <path d="M115.403 384.058l444.86-301.435 300.682 443.75-444.86 301.435z"/>
        <path d="M121.44 379.19L565.117 88.671l289.792 442.57-443.677 290.517z"/>
        <path d="M125.66 373.714L570.583 91.66l281.35 443.813L407.01 817.527z"/>
        <path d="M129.814 368.78L575.508 94.57l273.527 444.58L403.34 813.362z"/>
        <path d="M133.903 364.472L579.807 97.423 846.19 542.214l-445.904 267.05z"/>
        <path d="M137.855 360.818l445.597-260.692 260.043 444.486-445.598 260.692z"/>
        <path d="M143.439 359.148l441.67-253.435 252.802 440.568-441.67 253.435z"/>
        <path d="M147.077 356.962l440.21-248.85 248.23 439.111-440.21 248.851z"/>
        <path d="M150.501 355.51L588.733 110.28 833.349 547.42 395.118 792.648z"/>
        <path d="M153.737 354.822l435.676-242.549 241.944 434.59-435.676 242.549z"/>
        <path d="M156.744 354.868l432.618-240.846L829.607 545.56 396.99 786.406z"/>
        <path d="M161.321 356.949l425.95-238.356L825.03 543.48 399.083 781.835z"/>
        <path d="M163.95 358.433l421.83-238.46L823.646 540.75l-421.83 238.46z"/>
        <path d="M166.386 360.569l417.255-239.425 238.827 416.213-417.255 239.425z"/>
        <path d="M168.694 363.338L580.867 122.2l240.536 411.144L409.23 774.482z"/>
        <path d="M170.867 366.66l406.675-243.556 242.947 405.66L413.814 772.32z"/>
        <path d="M174.757 371.692L572.5 126.983l244.098 396.75-397.742 244.71z"/>
        <path d="M176.825 375.936l391.427-248.14 247.521 390.449-391.426 248.14z"/>
        <path d="M178.86 380.524l384.801-251.966L814.998 512.4 430.197 764.365z"/>
        <path d="M180.935 385.401L558.78 129.376l255.386 376.902-377.844 256.025z"/>
        <path d="M183.04 390.458l370.68-260.25 259.6 369.753-370.679 260.25z"/>
        <path d="M187.057 396.635L547.531 134.21l261.771 359.575-360.474 262.425z"/>
        <path d="M189.357 401.782l353.024-266.531 265.866 352.142-353.023 266.532z"/>
        <path d="M191.74 406.846L537.314 136.36l269.81 344.71L461.55 751.557z"/>
        <path d="M196.094 412.636L531.512 140.7 802.771 475.28 467.352 747.218z"/>
        <path d="M198.727 417.269l328.146-275.192 274.505 327.327-328.146 275.191z"/>
        <path d="M201.448 421.575l321.115-278.05L799.92 463.838l-321.115 278.05z"/>
        <path d="M206.13 426.263l311.732-278.067 277.373 310.953-311.732 278.068z"/>
        <path d="M209.057 429.71L514.41 149.87l279.143 304.59-305.354 279.842z"/>
        <path d="M212.028 432.647L511.467 151.57 791.842 450.26 492.403 731.338z"/>
        <path d="M215.076 435.05l293.982-281.684 280.982 293.25L496.057 728.3z"/>
        <path d="M218.136 436.867l289.1-281.706L788.238 443.54l-289.1 281.706z"/>
        <path d="M223.09 438.724l282.276-278.615 277.919 281.57-282.277 278.615z"/>
        <path d="M226.21 439.32l278.554-277.338L781.408 439.84 502.855 717.177z"/>
        <path d="M229.309 439.293L504.784 163.82 779.57 438.605 504.096 714.08z"/>
        <path d="M234.278 439.288L504.777 168.79l269.822 269.822-270.498 270.499z"/>
    </g>
</svg>
