<svg xmlns="http://www.w3.org/2000/svg" width="627" height="627" viewBox="0 0 627 627">
    <g fill="none" fill-rule="evenodd" stroke="#F9D104">
        <path d="M626.237 531.897L94.998 625.522 1.373 94.283 532.612.658z"/>
        <path d="M619.91 535.203L91.375 619.769 6.81 91.234 535.344 6.668z"/>
        <path d="M613.788 537.44l-524.85 76.568-76.569-524.85 524.85-76.569z"/>
        <path d="M608.484 539.108L86.951 609.277 16.783 87.744l521.533-70.169z"/>
        <path d="M603.697 539.426L86.432 604.852 21.007 87.588 538.27 22.162z"/>
        <path d="M599.943 538.995L86.548 601.668 23.875 88.274 537.269 25.6z"/>
        <path d="M596.84 537.125L88.216 598.933 26.407 90.308l508.625-61.809z"/>
        <path d="M594.792 534.5L90.526 597.453 27.573 93.186l504.266-62.953z"/>
        <path d="M593.317 530.53L94.292 596.345 28.477 97.319l499.026-65.815z"/>
        <path d="M592.714 525.968L98.54 596.308 28.2 102.134l494.174-70.34z"/>
        <path d="M592.42 520.323l-488.44 76.06-76.06-488.44 488.44-76.06z"/>
        <path d="M592.678 514.394l-483.083 82.812-82.812-483.083 483.083-82.812z"/>
        <path d="M592.888 507.784L116 597.787 25.997 120.9l476.888-90.003z"/>
        <path d="M593.293 501.31l-471.132 97.445-97.445-471.132L495.85 30.178z"/>
        <path d="M593.304 494.645L128.62 599.139 24.126 134.455 488.81 29.96z"/>
        <path d="M593.212 488.578L134.376 599.61 23.345 140.773 482.181 29.742z"/>
        <path d="M592.473 482.8L139.946 599.243 23.503 146.717 476.029 30.273z"/>
        <path d="M591.441 478.03L144.407 598.771 23.665 151.738 470.698 30.995z"/>
        <path d="M589.626 473.917L148.31 597.333 24.894 156.017 466.21 32.6z"/>
        <path d="M587.437 471.067L150.851 595.702 26.216 159.116 462.802 34.481z"/>
        <path d="M584.43 469.045L152.664 593.073 28.636 161.305 460.403 37.278z"/>
        <path d="M581.05 468.324L153.076 590.248 31.152 162.275 459.125 40.35z"/>
        <path d="M576.893 468.365l-424.07 118.107-118.106-424.07 424.07-118.106z"/>
        <path d="M572.426 469.522L151.358 582.56 38.32 161.492 459.388 48.454z"/>
        <path d="M567.298 471.165L149.506 577.814 42.857 160.022 460.65 53.373z"/>
        <path d="M561.993 473.568l-415.197 99.493-99.493-415.196L462.5 58.372z"/>
        <path d="M556.215 476.043L144.11 567.667 52.485 155.561 464.59 63.937z"/>
        <path d="M550.47 478.849l-409.474 83.625L57.371 153l409.474-83.625z"/>
        <path d="M544.519 481.283l-406.17 75.624-75.623-406.169 406.169-75.624z"/>
        <path d="M538.866 483.64l-403.179 68.164-68.163-403.179 403.178-68.163z"/>
        <path d="M533.302 485.253L133.86 546.628 72.486 147.186l399.44-61.374z"/>
        <path d="M528.304 486.482l-395.976 55.695L76.632 146.2 472.61 90.505z"/>
        <path d="M523.65 486.722l-391.78 51.191-51.19-391.78 391.78-51.19z"/>
        <path d="M519.75 486.412L131.88 534.56 83.73 146.688 471.603 98.54z"/>
        <path d="M516.333 485.018l-383.278 46.515L86.54 148.255l383.278-46.515z"/>
        <path d="M513.718 483.046l-378.991 46.416-46.416-378.99 378.99-46.417z"/>
        <path d="M511.562 480.038l-374.046 47.66-47.66-374.045 374.046-47.66z"/>
        <path d="M510.1 476.552L140.703 526.78 90.474 157.381l369.398-50.228z"/>
        <path d="M508.926 472.206L144.83 526 91.034 161.903l364.098-53.795z"/>
        <path d="M508.222 467.592l-359.079 58.245-58.245-359.079 359.08-58.245z"/>
        <path d="M507.545 462.402l-353.432 63.155-63.155-353.432L444.39 108.97z"/>
        <path d="M507.069 457.242L158.975 525.62l-68.38-348.095 348.095-68.379z"/>
        <path d="M506.355 451.858l-342.218 73.446L90.69 183.086l342.218-73.447z"/>
        <path d="M505.605 446.842l-336.749 78.25-78.25-336.749 336.749-78.25z"/>
        <path d="M504.412 441.965L173.511 524.3 91.176 193.4l330.901-82.336z"/>
        <path d="M503.025 437.764l-325.61 85.684-85.685-325.61 325.61-85.685z"/>
        <path d="M501.08 433.995l-320.118 87.911-87.912-320.12 320.12-87.91z"/>
        <path d="M498.868 431.11L183.55 520.227 94.43 204.909l315.319-89.118z"/>
        <path d="M496.065 428.811l-310.44 89.018-89.018-310.44 310.44-89.018z"/>
        <path d="M492.987 427.453l-306.3 87.83-87.83-306.3 306.3-87.83z"/>
    </g>
</svg>
