<svg xmlns="http://www.w3.org/2000/svg" width="804" height="803" viewBox="0 0 804 803">
    <g fill="none" fill-rule="evenodd" stroke="#02A2F5">
        <path d="M802.482 401.673L401.945 802.144 1.375 401.508 401.913 1.037z"/>
        <path d="M798.768 397.953l-392.716 400.79L5.163 405.933 397.88 5.14z"/>
        <path d="M794.55 392.656L411.574 794.71 9.424 411.64 392.4 9.587z"/>
        <path d="M790.643 386.644l-372.67 404.469L13.405 418.35l372.67-404.469z"/>
        <path d="M786.196 380.312L424.532 786.85 17.895 425.098 379.56 18.561z"/>
        <path d="M782.079 374.568L430.662 783.044 22.086 431.541 373.503 23.065z"/>
        <path d="M777.541 369.782l-341.863 408.91-409.01-341.947 341.863-408.91z"/>
        <path d="M773.489 366.65l-334.297 408.3-408.4-334.379 334.297-408.3z"/>
        <path d="M769.197 365.29L440.784 770.844 35.13 442.352 363.542 36.796z"/>
        <path d="M765.506 366.027L440.43 767.464 38.893 442.307 363.97 40.87z"/>
        <path d="M761.622 368.608l-323.54 395.161L42.823 440.15l323.54-395.162z"/>
        <path d="M758.268 372.975L434.094 760.726 46.247 436.473 370.42 48.72z"/>
        <path d="M754.591 378.526L428.777 757.242 49.97 431.348 375.783 52.633z"/>
        <path d="M751.268 384.939L422.743 754.226 53.365 425.621 381.89 56.334z"/>
        <path d="M747.476 391.415L416.503 750.628l-359.3-331.054L388.173 60.361z"/>
        <path d="M743.939 397.578l-333.222 349.82L60.811 414.094l333.222-349.82z"/>
        <path d="M739.93 402.66L405.873 743.582 64.867 409.446 398.922 68.522z"/>
        <path d="M736.218 406.462l-333.77 333.716L68.65 406.325 402.42 72.609z"/>
        <path d="M732.124 408.457L400.692 736.279 72.789 404.766 404.221 76.944z"/>
        <path d="M728.391 408.775L400.747 732.85 76.592 405.125 404.236 81.05z"/>
        <path d="M724.311 407.235L402.527 728.966 80.717 407.104 402.503 85.373z"/>
        <path d="M720.56 404.31L405.825 725.515 84.542 410.705 399.276 89.499z"/>
        <path d="M716.403 400.14L410.24 721.555 88.745 415.315 394.909 93.9z"/>
        <path d="M712.496 395.422L415.327 717.947 92.722 420.705 389.892 98.18z"/>
        <path d="M708.16 390.476L420.516 713.81 97.105 426.096l287.642-323.333z"/>
        <path d="M704.087 386.026l-278.75 324.01-324.089-278.819 278.75-324.01z"/>
        <path d="M699.683 382.36L429.25 705.83 105.7 435.33l270.433-323.47z"/>
        <path d="M695.664 380.022l-263.71 322.087-322.166-263.774 263.71-322.087z"/>
        <path d="M691.457 379.095L433.13 698.104 114.042 439.713l258.329-319.01z"/>
        <path d="M687.724 379.823L432.768 694.668 117.846 439.65l254.956-314.845z"/>
        <path d="M683.838 381.99l-252.99 308.995-309.07-253.052 252.99-308.994z"/>
        <path d="M680.368 385.543L427.66 687.811 125.32 435.043l252.707-302.268z"/>
        <path d="M676.642 389.998L423.46 684.29 129.093 431.044l253.184-294.293z"/>
        <path d="M673.189 395.095L418.724 681.133 132.615 426.605 387.08 140.567z"/>
        <path d="M669.371 400.21l-255.51 277.313L136.48 421.95l255.51-277.312z"/>
        <path d="M665.75 405.054L409.379 674.196 140.172 417.762l256.37-269.141z"/>
        <path d="M661.763 409.037L405.65 670.417 144.207 414.24 400.32 152.861z"/>
        <path d="M658.005 412.018L403.029 666.952 148.033 411.914 403.009 156.98z"/>
        <path d="M653.955 413.604L401.7 663.11 152.132 410.794l252.255-249.507z"/>
        <path d="M650.18 413.907l-248.425 245.72-245.78-248.487 248.426-245.719z"/>
        <path d="M646.142 412.808l-243.03 242.99-243.05-243.09 243.03-242.99z"/>
        <path d="M642.35 410.677L405.6 652.296 163.92 415.487l236.751-241.619z"/>
        <path d="M638.256 407.633L408.903 648.411l-240.837-229.41 229.353-240.777z"/>
        <path d="M634.35 404.21L412.682 644.793 172.04 423.07l221.668-240.582z"/>
        <path d="M630.123 400.651l-213.62 240.127-240.186-213.674 213.62-240.127z"/>
        <path d="M626.095 397.493L420.014 637.036 180.412 430.904 386.493 191.36z"/>
        <path d="M621.824 394.947l-199.001 238.03-238.089-199.05 199.002-238.03z"/>
        <path d="M617.84 393.406L424.717 629.28 188.786 436.11l193.122-235.874z"/>
        <path d="M613.718 392.912L425.474 625.373l-232.518-188.29L381.2 204.622z"/>
        <path d="M609.943 393.63L425.108 621.883l-228.309-184.88L381.635 208.75z"/>
    </g>
</svg>
