<svg xmlns="http://www.w3.org/2000/svg" width="743" height="455" viewBox="0 0 743 455">
    <g fill="none" fill-rule="evenodd" stroke="#18B397" opacity=".25">
        <path d="M1.146 445.525L599.156 1.377l444.148 598.01-598.01 444.148z"/>
        <path d="M3.93 452.563L592.047 3.365l449.198 588.118-588.118 449.198z"/>
        <path d="M7.25 460.446L584.125 6.222l454.224 576.874-576.874 454.225z"/>
        <path d="M10.134 468.517L575.984 8.312l460.206 565.85-565.851 460.206z"/>
        <path d="M13.625 477.138l553.697-465.8 465.8 553.696-553.696 465.801z"/>
        <path d="M16.747 485.69L558.7 13.669l472.021 541.952-541.952 472.022z"/>
        <path d="M20.519 494.482l529.348-477.51 477.51 529.348-529.348 477.51z"/>
        <path d="M23.955 502.943L541.337 19.62l483.325 517.382-517.383 483.324z"/>
        <path d="M28.042 511.337l504.86-488.101 488.103 504.86L516.143 1016.2z"/>
        <path d="M31.788 519.152L525.019 26.194l492.958 493.232-493.231 492.957z"/>
        <path d="M36.148 526.618L517.511 30.082l496.536 481.363-481.363 496.536z"/>
        <path d="M40.132 533.29L510.769 33.283l500.01 470.637-470.638 500.01z"/>
        <path d="M44.667 539.38L504.64 37.342l502.038 459.972-459.973 502.038z"/>
        <path d="M48.772 544.507L499.444 40.664l503.842 450.672L552.614 995.18z"/>
        <path d="M53.356 548.873L495.036 44.77 999.14 486.45 557.46 990.555z"/>
        <path d="M57.454 552.166l434.22-504.078 504.079 434.221-434.221 504.078z"/>
        <path d="M61.964 554.59L489.208 52.12 991.68 479.363 564.435 981.834z"/>
        <path d="M65.952 555.89l421.89-500.561 500.56 421.89-421.89 500.56z"/>
        <path d="M70.31 556.281L487.407 59.204l497.077 417.097L567.387 973.38z"/>
        <path d="M74.132 555.557L488.064 62.252 981.37 476.184 567.437 969.489z"/>
        <path d="M78.316 553.955L489.623 65.95 977.63 477.258 566.321 965.263z"/>
        <path d="M81.981 551.302L492.21 68.842l482.46 410.228L564.44 961.53z"/>
        <path d="M86.027 547.867L495.602 72.4l475.467 409.575-409.575 475.467z"/>
        <path d="M89.6 543.497L499.906 75.205l468.292 410.304L557.893 953.8z"/>
        <path d="M93.596 538.496L504.862 78.709l459.787 411.266-411.266 459.787z"/>
        <path d="M97.18 532.72L510.57 81.527l451.194 413.39-413.39 451.194z"/>
        <path d="M101.235 526.516L516.731 85.089l441.426 415.496-415.495 441.427z"/>
        <path d="M104.941 519.73l418.51-431.701 431.7 418.509-418.508 431.701z"/>
        <path d="M109.158 512.749L530.39 91.752l420.997 421.23-421.23 420.998z"/>
        <path d="M113.072 505.403L537.668 94.902 948.17 519.498 523.573 929.999z"/>
        <path d="M117.517 498.112L544.915 98.85l399.263 427.398L516.78 925.51z"/>
        <path d="M121.678 490.682l430.6-388.432 388.433 430.6-430.6 388.433z"/>
        <path d="M126.359 483.557l433-377.127 377.127 433-433 377.127z"/>
        <path d="M130.746 476.507L566.343 110.06l366.449 435.597-435.598 366.449z"/>
        <path d="M135.611 469.996l437.2-355.574 355.574 437.2-437.2 355.573z"/>
        <path d="M140.146 463.746L578.994 118.2 924.54 557.049 485.691 902.594z"/>
        <path d="M145.095 458.23l439.37-335.586 335.587 439.37-439.37 335.587z"/>
        <path d="M149.658 453.13L589.5 126.455l326.676 439.842-439.842 326.675z"/>
        <path d="M154.561 448.913L593.672 130.85l318.064 439.11-439.111 318.064z"/>
        <path d="M159.025 445.217L597.303 134.56 907.96 572.84 469.68 883.495z"/>
        <path d="M163.759 442.501l436.216-303.715L903.69 575 467.475 878.717z"/>
        <path d="M168.009 440.363l434.037-298.076 298.077 434.037-434.037 298.077z"/>
        <path d="M172.48 439.246l430.639-293 293 430.639-430.64 293z"/>
        <path d="M176.447 438.718l427.135-289.251L892.834 576.6 465.699 865.853z"/>
        <path d="M180.614 439.194L603.06 153.118l286.076 422.446L466.69 861.64z"/>
        <path d="M184.288 440.227l417.675-284.18 284.18 417.675-417.675 284.18z"/>
        <path d="M188.17 442.2l411.775-282.787 282.787 411.774-411.774 282.788z"/>
        <path d="M191.595 444.654l405.83-282.56 282.56 405.83-405.83 282.56z"/>
        <path d="M195.264 447.94l398.83-282.695 282.695 398.83L477.96 846.77z"/>
        <path d="M198.533 451.597l391.839-283.823 283.823 391.84-391.84 283.822z"/>
        <path d="M202.097 455.935l383.89-285.12 285.12 383.891-383.89 285.12z"/>
        <path d="M205.327 460.51L581.35 173.308 868.551 549.33 492.53 836.532z"/>
        <path d="M208.906 465.586l367.321-289.224 289.225 367.32-367.321 289.226z"/>
        <path d="M212.21 470.74l358.797-291.81 291.81 358.799-358.798 291.81z"/>
        <path d="M215.905 476.2l349.598-294.101 294.1 349.597-349.597 294.101z"/>
        <path d="M219.371 481.568l340.7-296.737 296.736 340.7-340.699 296.736z"/>
        <path d="M223.249 487.04l331.304-298.861 298.86 331.304-331.304 298.86z"/>
        <path d="M226.918 492.254L549.274 191.12l301.135 322.355L528.054 814.61z"/>
        <path d="M230.995 497.378l313.109-302.714 302.715 313.108-313.11 302.715z"/>
        <path d="M234.862 502.094l304.462-304.293 304.293 304.462-304.462 304.293z"/>
        <path d="M239.107 506.549l295.715-305.036 305.036 295.715-295.715 305.036z"/>
        <path d="M243.12 510.471l287.716-305.67 305.67 287.714-287.714 305.67z"/>
        <path d="M247.47 513.995l279.795-305.382 305.381 279.794L552.853 793.79z"/>
        <path d="M251.557 516.897l272.744-304.922 304.921 272.743L556.48 789.64z"/>
        <path d="M255.931 519.305L521.845 215.81 825.34 481.724 559.427 785.219z"/>
        <path d="M260.011 521.039l260.037-301.87 301.87 260.036-260.036 301.87z"/>
        <path d="M264.338 522.23l254.471-299.278 299.278 254.472-254.471 299.278z"/>
        <path d="M268.35 522.735l249.892-296.49 296.49 249.892-249.892 296.49z"/>
        <path d="M272.581 522.692l245.655-292.76 292.76 245.655-245.655 292.76z"/>
        <path d="M276.497 521.988l242.38-288.858 288.858 242.38-242.38 288.858z"/>
    </g>
</svg>
