<svg xmlns="http://www.w3.org/2000/svg" width="564" height="398" viewBox="0 0 564 398">
    <g fill="none" fill-opacity="0" fill-rule="evenodd" stroke="#979797" stroke-width=".8">
        <path d="M523.323 639.036l39.578-464.947-57.857-4.925-30.915 363.175-236.761-385.96-59.251-5.043-39.577 464.947 57.856 4.925 31.567-370.843L467.557 634.29z"/>
        <path d="M522.56 630.77l31.71-463.427-57.669-3.946-24.769 361.987-242.03-380.243-59.058-4.04-31.71 463.426 57.668 3.946 25.291-369.63 244.983 388.123z" opacity=".98"/>
        <path d="M520.748 621.745l24.341-460.864-57.348-3.029-19.014 359.985L222.416 143.84l-58.731-3.102L139.344 601.6l57.348 3.029 19.415-367.586 249.365 381.782z" opacity=".96"/>
        <path d="M519.217 613.85l17.75-459.038-57.122-2.209-13.864 358.56-250.41-368.778-58.498-2.262-17.75 459.038 57.122 2.209 14.157-366.13L464.16 611.721z" opacity=".94"/>
        <path d="M517.795 606.991l12.047-457.823-56.971-1.5-9.41 357.611-254.165-364.546-58.343-1.535-12.046 457.824 56.97 1.499 9.608-365.16 257.399 372.185z" opacity=".92"/>
        <path d="M515.254 599.77l7.315-455.802-56.719-.91-5.714 356.03L203.44 138.846l-58.086-.932-7.315 455.801 56.719.91 5.834-363.547 259.993 367.814z" opacity=".9"/>
        <path d="M512.731 593.697l3.692-454.442-56.55-.46-2.884 354.97L198.245 136.67l-57.913-.47-3.691 454.442 56.55.46 2.944-362.464 262.09 364.617z" opacity=".88"/>
        <path d="M509.019 587.376l1.235-452.336-56.288-.154-.965 353.324-259.45-354.035-57.645-.158-1.235 452.337 56.288.153.985-360.784 262.822 361.505z" opacity=".86"/>
        <path d="M505.282 582.268V131.336H449.17v352.228L189.561 131.336h-57.465v450.932h56.113V222.604l262.988 359.664z" opacity=".84"/>
        <path d="M500.338 576.96V128.144h-55.85v350.574L186.1 128.144h-57.196V576.96h55.85V218.983L446.507 576.96z" opacity=".82"/>
        <path d="M495.37 572.864l1.22-447.406-55.673-.152-.955 349.473L183.34 124.603l-57.015-.156-1.222 447.406 55.674.152.975-356.852 259.956 357.565z" opacity=".8"/>
        <path d="M489.224 568.543l3.618-445.28-55.41-.45-2.825 347.812L181.08 120.731l-56.745-.46-3.617 445.278 55.41.45 2.884-355.155L435.818 568.11z" opacity=".78"/>
        <path d="M481.786 563.762l7.097-442.23-55.03-.882-5.544 345.429-249.053-349.515-56.356-.905-7.097 442.23 55.03.882 5.66-352.722 252.252 356.862z" opacity=".76"/>
        <path d="M474.559 560.255l11.577-440.013-54.754-1.44L422.34 462.5 178.062 112.136l-56.074-1.475-11.578 440.012 54.755 1.441 9.234-350.954 247.385 357.706z" opacity=".74"/>
        <path d="M467.445 557.796l16.953-438.434-54.558-2.11-13.242 342.466-239.17-352.225-55.872-2.16-16.953 438.433 54.558 2.11 13.522-349.695L414.86 555.763z" opacity=".72"/>
        <path d="M459.346 554.86l23.03-436.035-54.26-2.866-17.989 340.592L177.085 102.7l-55.566-2.935L98.489 535.8l54.259 2.866 18.369-347.782 235.93 361.213z" opacity=".7"/>
        <path d="M451.48 552.823l29.712-434.221-54.034-3.698L403.95 454.08 177.172 97.8l-55.336-3.786-29.712 434.222 54.034 3.697 23.698-346.336L399.4 549.26z" opacity=".68"/>
        <path d="M442.8 550.15l36.735-431.561-53.702-4.572-28.694 337.097-219.76-358.246-54.997-4.681-36.736 431.56 53.703 4.572 29.3-344.213 222.39 365.637z" opacity=".66"/>
        <path d="M434.511 548.22l44.026-429.462-53.442-5.478-34.388 335.456L177.849 87.934l-54.729-5.61-44.025 429.461 53.441 5.479 35.115-342.54L383 542.94z" opacity=".64"/>
        <path d="M425.614 545.5l51.261-426.53-53.076-6.38-40.041 333.168L178.24 83.079l-54.355-6.533-51.262 426.53 53.077 6.38 40.886-340.202 207.87 370.098z" opacity=".62"/>
        <path d="M416.084 541.708l58.195-422.601-52.587-7.242-45.457 330.098L178.395 78.36l-53.855-7.416-58.196 422.601 52.588 7.242 46.417-337.068 200.048 371.008z" opacity=".6"/>
        <path d="M408.578 540.355L473.7 119.29l-52.397-8.104-50.868 328.898-191.544-366.39-53.659-8.299L60.11 486.46l52.396 8.104 51.943-335.842 193.626 373.822z" opacity=".58"/>
        <path d="M399.463 536.15l71.158-417.044-51.896-8.855-55.582 325.757L178.628 69.284l-53.147-9.068-71.158 417.045 51.896 8.854 56.756-332.635 186.468 374.136z" opacity=".56"/>
        <path d="M391.344 532.597l76.652-413.905-51.506-9.538-59.873 323.305L178.2 65.024l-52.747-9.768-76.652 413.905 51.506 9.538 61.137-330.13L341.7 523.402z" opacity=".54"/>
        <path d="M384.188 529.533l81.483-411.558-51.213-10.14-63.647 321.473L177.519 60.924 125.07 50.541 43.588 462.099l51.213 10.14 64.992-328.26L334.826 519.76z" opacity=".52"/>
        <path d="M377.008 525.374l85.267-408.62-50.848-10.61-66.602 319.177L176.18 57.055 124.107 46.19 38.841 454.81l50.847 10.61 68.009-325.915 170.302 375.643z" opacity=".5"/>
        <path d="M370.918 521.672l88.205-406.565-50.592-10.976-68.897 317.571L174.467 53.35l-51.81-11.24L34.45 448.674l50.592 10.976 70.353-324.276 166.759 375.718z" opacity=".48"/>
        <path d="M364.926 516.856l89.935-404.01-50.274-11.191-70.25 315.576L171.993 49.878l-51.486-11.46-89.935 404.01 50.274 11.19L152.58 131.38l163.89 374.69z" opacity=".46"/>
        <path d="M360.088 512.485l90.73-402.396-50.073-11.29-70.87 314.316-160.794-366.55-51.28-11.562-90.73 402.396 50.073 11.29 72.366-320.951 162.315 373.865z" opacity=".44"/>
        <path d="M355.396 507.006l90.263-400.328-49.815-11.232-70.506 312.7L165.37 43.48l-51.016-11.503-90.263 400.327 49.816 11.232L145.9 124.236 307.38 496.18z" opacity=".42"/>
        <path d="M350.724 500.248l88.517-397.642L389.76 91.59l-69.141 310.602L160.832 40.63l-50.674-11.28-88.517 397.642 49.481 11.015 70.602-317.16L303.03 489.631z" opacity=".4"/>
        <path d="M348.425 495.837l86.26-397.6-49.476-10.733-67.379 310.568-161.524-360.23-50.669-10.992-86.26 397.6 49.477 10.733 68.8-317.125L300.738 485.49z" opacity=".38"/>
        <path d="M344.943 488.463L427.439 93.12l-49.196-10.265-64.438 308.805L150.64 35.36 100.26 24.85 17.762 420.19l49.196 10.266 65.799-315.325 164.768 363.437z" opacity=".36"/>
        <path d="M342.578 481.715l78.02-394.07-49.037-9.71-60.942 307.813L144.69 33.018l-50.219-9.943-78.02 394.07 49.037 9.71 62.23-314.312 167.595 359.814z" opacity=".34"/>
        <path d="M341.195 475.494l72.899-393.64-48.984-9.07-56.942 307.475L138.487 30.815l-50.164-9.29-72.9 393.64 48.984 9.07 58.145-313.967 171.43 356.483z" opacity=".32"/>
        <path d="M339.62 468.227L406.595 75.7l-48.845-8.334-52.314 306.605L131.768 28.81l-50.022-8.535-66.974 392.525 48.845 8.335 53.419-313.08 175.505 352.14z" opacity=".3"/>
        <path d="M338.858 461.533l60.65-392.146-48.797-7.547-47.375 306.308L124.948 26.923l-49.974-7.73-60.65 392.146 48.798 7.547 48.374-312.775 180.328 348.147z" opacity=".28"/>
        <path d="M337.709 453.879L391.55 62.892l-48.654-6.7-42.056 305.403L117.8 25.194l-49.825-6.862L14.133 409.32l48.654 6.7 42.945-311.851L290.814 447.42z" opacity=".26"/>
        <path d="M337.185 446.872l46.928-390.473-48.59-5.84-36.656 305.002-188.144-332.02-49.76-5.98-46.929 390.474 48.59 5.84 37.43-311.443L290.35 441.243z" opacity=".24"/>
        <path d="M336.07 439.024L375.959 49.91l-48.42-4.964-31.159 303.942L103.52 21.98l-49.588-5.083-39.89 389.116 48.422 4.963 31.815-310.359L289.4 434.24z" opacity=".22"/>
        <path d="M334.148 430.275L367.07 43.513l-48.128-4.096-25.715 302.103L96.279 20.463 46.99 16.267 14.07 403.03l48.128 4.097L88.456 98.644 287.76 426.326z" opacity=".2"/>
        <path d="M333.949 424.123L360.41 37.4l-48.122-3.293-20.67 302.072L89.647 18.874l-49.283-3.372-26.46 386.722 48.122 3.293 21.106-308.45 204.433 323.882z" opacity=".18"/>
        <path d="M331.528 415.577l20.287-384.108-47.798-2.524-15.846 300.03L82.882 17.265l-48.95-2.585-20.286 384.107 47.797 2.525L77.624 94.947l207.834 318.197z" opacity=".16"/>
        <path d="M329.417 408.085l14.78-382.212-47.562-1.839-11.544 298.55L76.59 15.525l-48.708-1.884-14.779 382.212 47.562 1.839L72.453 92.84l211.122 313.471z" opacity=".14"/>
        <path d="M327.525 401.623L337.55 20.637l-47.41-1.247-7.83 297.592L70.802 13.618 22.25 12.341 12.226 393.327l47.409 1.248L67.63 90.699l214.198 309.722z" opacity=".12"/>
        <path d="M324.566 394.699l6.081-378.927-47.153-.757-4.75 295.984L65.341 11.514l-48.289-.775-6.08 378.927 47.152.757 4.85-302.233 216.143 305.78z" opacity=".1"/>
        <path d="M321.752 388.895l3.067-377.58-46.985-.382-2.396 294.932L60.456 9.167l-48.118-.391-3.067 377.58 46.985.383 2.447-301.16 217.762 302.949z" opacity=".08"/>
        <path d="M317.815 382.725L318.84 7.272l-46.72-.128-.8 293.27L55.966 6.554l-47.846-.13-1.025 375.453 46.72.127.818-299.462 218.15 300.06z" opacity=".06"/>
        <path d="M313.99 377.723V3.655H267.44v292.188L52.085 3.655H4.415v374.068h46.549V79.366l218.16 298.357z" opacity=".04"/>
        <path d="M309.03 372.396V.463h-46.283v290.52L48.621.463H1.223v371.933h46.283V75.742L264.42 372.396z" opacity=".02"/>
    </g>
</svg>
