<svg xmlns="http://www.w3.org/2000/svg" xmlns:xlink="http://www.w3.org/1999/xlink" width="321" height="222" viewBox="0 0 321 222">
    <defs>
        <path id="a" d="M7 0h307a7 7 0 0 1 7 7v215H0V7a7 7 0 0 1 7-7z"/>
    </defs>
    <g fill="none" fill-rule="evenodd">
        <mask id="b" fill="#fff">
            <use xlink:href="#a"/>
        </mask>
        <use fill="#F0FAFF" xlink:href="#a"/>
        <g stroke="#02A2F5" mask="url(#b)" opacity=".16">
            <path d="M825.71 100.092L425.172 500.563 24.602 99.927 425.14-300.544z"/>
            <path d="M821.995 96.372L429.28 497.162 28.39 104.352 421.108-296.44z"/>
            <path d="M817.778 91.075L434.802 493.128 32.652 110.059l382.975-402.053z"/>
            <path d="M813.87 85.063L441.2 489.532 36.634 116.77l372.67-404.469z"/>
            <path d="M809.423 78.731L447.76 485.27 41.123 123.517 402.786-283.02z"/>
            <path d="M805.307 72.987L453.89 481.463 45.314 129.96 396.73-278.516z"/>
            <path d="M800.769 68.2L458.906 477.11 49.896 135.164l341.863-408.91z"/>
            <path d="M796.717 65.069l-334.297 408.3L54.02 138.99l334.297-408.3z"/>
            <path d="M792.425 63.708L464.012 469.264 58.356 140.771 386.77-264.785z"/>
            <path d="M788.734 64.446L463.657 465.883 62.12 140.726l325.077-401.437z"/>
            <path d="M784.85 67.027L461.31 462.188 66.05 138.57l323.54-395.162z"/>
            <path d="M781.496 71.394L457.322 459.145 69.475 134.892 393.649-252.86z"/>
            <path d="M777.819 76.945L452.005 455.661 73.197 129.767 399.01-248.948z"/>
            <path d="M774.496 83.358L445.97 452.645 76.593 124.04l328.525-369.287z"/>
            <path d="M770.703 89.834L439.731 449.047 80.43 117.993 411.402-241.22z"/>
            <path d="M767.167 95.997l-333.222 349.82L84.039 112.513l333.221-349.82z"/>
            <path d="M763.157 101.078L429.102 442.002 88.094 107.865 422.15-233.059z"/>
            <path d="M759.445 104.881l-333.77 333.715L91.877 104.744l333.77-333.716z"/>
            <path d="M755.351 106.876L423.92 434.698 96.017 103.185 427.45-224.637z"/>
            <path d="M751.619 107.194L423.975 431.269 99.82 103.544 427.464-220.53z"/>
            <path d="M747.539 105.654L425.755 427.385l-321.81-321.862L425.73-216.208z"/>
            <path d="M743.787 102.729L429.053 423.934 107.77 109.124l314.733-321.206z"/>
            <path d="M739.631 98.559L433.467 419.974l-321.495-306.24L418.137-207.68z"/>
            <path d="M735.724 93.84l-297.17 322.526L115.95 119.124l297.169-322.526z"/>
            <path d="M731.387 88.895L443.744 412.228 120.333 124.515l287.642-323.333z"/>
            <path d="M727.315 84.445l-278.75 324.01-324.09-278.819 278.75-324.01z"/>
            <path d="M722.91 80.778l-270.432 323.47-323.55-270.498 270.433-323.47z"/>
            <path d="M718.892 78.44l-263.71 322.088-322.166-263.774 263.71-322.087z"/>
            <path d="M714.685 77.514L456.357 396.523 137.27 138.132l258.328-319.01z"/>
            <path d="M710.952 78.242L455.996 393.087 141.073 138.068 396.03-176.777z"/>
            <path d="M707.066 80.41l-252.99 308.994-309.07-253.052 252.99-308.994z"/>
            <path d="M703.595 83.962L450.89 386.23 148.547 133.462l252.707-302.268z"/>
            <path d="M699.87 88.417L446.686 382.709 152.321 129.463 405.505-164.83z"/>
            <path d="M696.416 93.514L441.951 379.552 155.843 125.024l254.465-286.038z"/>
            <path d="M692.599 98.63l-255.51 277.312-277.38-255.573 255.51-277.312z"/>
            <path d="M688.977 103.473l-256.37 269.142L163.398 116.18 419.77-152.96z"/>
            <path d="M684.99 107.456l-256.112 261.38-261.444-256.177L423.547-148.72z"/>
            <path d="M681.233 110.437L426.257 365.37 171.26 110.333l254.976-254.935z"/>
            <path d="M677.183 112.023L424.928 361.53 175.359 109.213l252.255-249.507z"/>
            <path d="M673.408 112.326l-248.425 245.72-245.78-248.487L427.63-136.16z"/>
            <path d="M669.37 111.227l-243.03 242.99-243.05-243.09 243.03-242.99z"/>
            <path d="M665.578 109.096l-236.75 241.619-241.679-236.809 236.75-241.619z"/>
            <path d="M661.484 106.052L432.13 346.83 191.293 117.42l229.354-240.777z"/>
            <path d="M657.577 102.63L435.91 343.211 195.27 121.489l221.667-240.582z"/>
            <path d="M653.351 99.07L439.73 339.197 199.544 125.523l213.621-240.127z"/>
            <path d="M649.323 95.912L443.24 335.455 203.64 129.323 409.721-110.22z"/>
            <path d="M645.052 93.366L446.05 331.396l-238.088-199.05 199.001-238.03z"/>
            <path d="M641.067 91.825L447.945 327.699l-235.932-193.17 193.123-235.874z"/>
            <path d="M636.946 91.33L448.702 323.793l-232.518-188.29L404.428-96.959z"/>
            <path d="M633.17 92.05L448.337 320.301l-228.309-184.88L404.862-92.832z"/>
        </g>
    </g>
</svg>
