<svg xmlns="http://www.w3.org/2000/svg" xmlns:xlink="http://www.w3.org/1999/xlink" width="100" height="75" viewBox="0 0 100 75">
    <defs>
        <path id="a" d="M99.734.034v44.658H.22V.034z"/>
        <path id="c" d="M20.579 22.018H.903V.508h19.676z"/>
    </defs>
    <g fill="none" fill-rule="evenodd">
        <g transform="translate(0 .883)">
            <mask id="b" fill="#fff">
                <use xlink:href="#a"/>
            </mask>
            <path fill="#7FAA88" d="M77.348 35.417c2.303.035 4.96-.783 6.888-2.032 3.708-2.4 5.133-9.186-.304-11.957-2.074-1.056-4.197-2.011-6.297-3.014-.71-.339-1.464-.612-2.115-1.04-1.258-.825-1.27-2.37-.033-3.224.451-.311 1.01-.52 1.55-.642 1.443-.322 2.714.27 3.981.858.967.45 1.922.973 2.94 1.253 1.344.372 2.586-.561 2.84-1.937.25-1.352-.36-2.356-1.37-3.11-3.376-2.513-9.25-3.49-13.526-.639-3.961 2.642-4.83 9.145.825 11.953 1.353.672 2.754 1.244 4.115 1.9 1.103.532 2.213 1.065 3.258 1.701.83.506 1.492 1.237 1.314 2.326-.186 1.141-1.035 1.676-2.058 1.975-1.948.569-3.725.1-5.432-.879-.926-.53-1.848-1.117-2.846-1.461-1.767-.61-3.227.527-3.3 2.381-.047 1.23.558 2.103 1.417 2.853 2.253 1.965 4.965 2.63 8.153 2.735M27.34 31.901c.139.453.244.776.334 1.103.44 1.582 1.205 2.165 2.776 2.105 1.345-.051 2.27-.895 2.524-2.36.101-.587.157-1.19.158-1.786.01-6.148.02-12.296-.01-18.444a8.516 8.516 0 0 0-.363-2.412c-.335-1.099-1.276-1.692-2.468-1.699-1.109-.005-1.944.465-2.402 1.509-.195.442-.37.893-.578 1.4-.317-.297-.542-.516-.775-.725-1.926-1.724-4.191-2.602-6.762-2.34-4.127.421-7.173 2.577-9.136 6.205-1.83 3.382-2.151 7.004-1.406 10.73.625 3.12 2.043 5.805 4.567 7.829 3.236 2.593 9.524 3.418 13.541-1.115M.28 20.825c.112-1.377.211-1.969.309-2.517C2.842 5.713 15.579-2.46 27.979.725c3.156.81 6.001 2.236 8.575 4.261.161-.113.29-.198.412-.29 8.033-5.995 18.163-6.226 26.461-.562.575.393.88.177 1.315-.12C69.593.71 74.95-.535 80.742.297c12.274 1.767 20.646 13.283 18.716 25.658C97.429 38.957 84.242 47.42 71.53 43.885c-2.728-.758-5.22-2-7.51-3.66-.173.117-.302.203-.43.292-5.054 3.492-10.608 4.793-16.691 3.856-.704-.108-.947-.34-.939-1.07.038-3.312.015-6.625.02-9.939 0-.254.05-.507.058-.594 1.247.736 2.384 1.634 3.674 2.124 3.905 1.481 8.655-.033 11.356-3.462 3.886-4.932 4.195-13.1.693-18.317-3.647-5.432-11.19-6.37-15.635-1.943-.033.034-.117.017-.199.026-.082-.232-.171-.466-.25-.704-.48-1.472-1.456-2.184-2.868-2.085-1.475.104-2.386.94-2.645 2.49a11.54 11.54 0 0 0-.162 1.879c-.01 9.34-.007 18.68-.007 28.02v1.27c-1.044-.69-1.915-1.198-2.7-1.816-.538-.424-.886-.419-1.445-.005-4.806 3.554-10.217 4.98-16.13 4.246C10.66 43.368 3.327 36.902.96 28.073c-.273-1.02-.942-4.092-.68-7.248" mask="url(#b)"/>
        </g>
        <path fill="#7FAA88" d="M45.563 22.425c0-1.408.178-2.763.742-4.168.978-2.445 3.42-3.566 6.102-3.48 2.312.073 4.122 1.464 5.026 3.928.956 2.608.94 5.259.116 7.886-.887 2.829-2.967 4.322-5.759 4.256-2.61-.063-5.01-2.006-5.7-4.734-.27-1.06-.527-1.61-.527-3.688M27.362 22.583c.002 1.854-.492 3.567-1.417 5.129-1.164 1.968-2.915 2.886-5.198 2.822-2.246-.063-3.857-1.16-4.779-3.146-1.393-3.003-1.483-6.1-.2-9.163.988-2.36 2.847-3.562 5.415-3.54 2.57.02 4.247 1.171 5.463 3.637.73 1.413.74 2.928.716 4.26M15.07 56.793c0 .637-.215 1.204-.646 1.704-.43.499-.964.748-1.6.748-.288 0-.833-.18-1.639-.542a52.098 52.098 0 0 0-1.862-.806 3.913 3.913 0 0 0-1.46-.262c-.525 0-.968.128-1.33.384-.362.256-.542.64-.542 1.152 0 .548.548 1.063 1.647 1.544 1.098.48 2.258.973 3.481 1.479 1.223.505 2.272 1.189 3.146 2.05.873.86 1.31 2.016 1.31 3.463 0 1.235-.327 2.356-.983 3.36-.654 1.005-1.581 1.791-2.78 2.359-1.197.568-2.564.852-4.1.852-1.085 0-2.227-.188-3.426-.563-1.197-.375-2.212-.898-3.041-1.568C.415 71.478 0 70.749 0 69.961c0-.313.096-.664.29-1.052.193-.388.477-.725.851-1.013a1.984 1.984 0 0 1 1.236-.433c.5 0 .937.078 1.311.234a14.1 14.1 0 0 1 1.423.722 9.778 9.778 0 0 0 1.526.72c.442.157.932.234 1.468.234.812 0 1.377-.128 1.695-.383.32-.256.477-.664.477-1.226 0-.535-.542-1.034-1.628-1.495l-3.51-1.486c-1.255-.53-2.31-1.229-3.164-2.095-.855-.867-1.282-2.015-1.282-3.45 0-1.272.318-2.397.955-3.375.635-.978 1.522-1.739 2.658-2.281 1.135-.542 2.427-.814 3.875-.814 1.01 0 2.044.15 3.098.45 1.055.299 1.95.757 2.686 1.376.737.617 1.105 1.35 1.105 2.199M18.442 70.927V56.063c0-.936.253-1.682.759-2.237.505-.556 1.17-.833 1.993-.833.711 0 1.288.182 1.732.545.443.364.714.878.814 1.542 1.398-1.541 3.107-2.312 5.13-2.312 2.32 0 4.224.934 5.71 2.801.736-.84 1.654-1.516 2.752-2.03 1.097-.514 2.12-.77 3.07-.77 1.509 0 2.835.286 3.978.86a6.095 6.095 0 0 1 2.648 2.546c.624 1.124.937 2.478.937 4.063v10.689c0 .6-.12 1.139-.356 1.62-.238.48-.568.848-.993 1.104a2.7 2.7 0 0 1-1.423.383c-.823 0-1.488-.283-1.993-.85-.505-.567-.758-1.318-.758-2.254v-9.686c0-.747-.128-1.412-.384-1.991-.256-.58-.627-1.032-1.114-1.356-.486-.324-1.06-.487-1.722-.487-.687 0-1.273.163-1.76.487a3.081 3.081 0 0 0-1.114 1.346c-.256.574-.383 1.24-.383 2.001v9.686c0 .599-.118 1.138-.356 1.618-.238.48-.568.848-.992 1.103-.425.256-.899.383-1.423.383-.824 0-1.489-.283-1.994-.85-.506-.567-.758-1.318-.758-2.254v-9.686c0-.747-.129-1.412-.384-1.991-.256-.58-.626-1.032-1.113-1.356-.487-.324-1.062-.487-1.723-.487-.736 0-1.347.16-1.834.478-.487.318-.846.766-1.077 1.345-.23.581-.346 1.25-.346 2.011v9.686c0 .599-.118 1.138-.355 1.618-.238.48-.569.848-.993 1.103-.425.256-.899.383-1.423.383-.823 0-1.488-.283-1.993-.852-.506-.567-.76-1.32-.76-2.255"/>
        <g transform="translate(49.541 52.26)">
            <mask id="d" fill="#fff">
                <use xlink:href="#c"/>
            </mask>
            <path fill="#7FAA88" d="M6.426 11.264c0 .946.166 1.85.496 2.71.33.86.824 1.56 1.479 2.102.655.542 1.45.813 2.387.813.911 0 1.688-.271 2.33-.813.643-.542 1.127-1.243 1.452-2.102.324-.86.486-1.764.486-2.71 0-1.471-.37-2.782-1.114-3.935C13.2 6.177 12.148 5.6 10.788 5.6c-.937 0-1.735.275-2.396.823-.662.548-1.154 1.262-1.48 2.14a7.724 7.724 0 0 0-.486 2.7m14.153-6.899v13.78c0 1.073-.15 1.946-.449 2.62-.3.674-1.036 1.012-2.21 1.012-.748 0-1.326-.199-1.731-.593-.406-.395-.708-.993-.908-1.796-.724.878-1.517 1.535-2.377 1.974-.862.437-1.823.658-2.884.658-1.709 0-3.26-.46-4.651-1.377-1.392-.917-2.484-2.196-3.276-3.837C1.3 15.164.903 13.32.903 11.273c0-1.985.41-3.803 1.226-5.457.818-1.653 1.929-2.952 3.332-3.894C6.866.98 8.386.51 10.021.51c1.036 0 2.021.212 2.958.636a5.673 5.673 0 0 1 2.302 1.891 2.448 2.448 0 0 1 .871-1.657A2.642 2.642 0 0 1 17.92.733c1.174 0 1.91.334 2.21 1.002.3.667.449 1.544.449 2.63" mask="url(#d)"/>
        </g>
        <path fill="#7FAA88" d="M72.941 70.927V55.744c0-.86.284-1.534.852-2.02a2.942 2.942 0 0 1 1.975-.731c1.797 0 2.696.768 2.696 2.302h.075c.561-.81 1.135-1.397 1.722-1.76.586-.361 1.303-.542 2.153-.542.712 0 1.335.256 1.871.768.537.51.805 1.241.805 2.19 0 .548-.14.973-.421 1.272-.28.3-.664.55-1.152.749-.486.2-1.06.431-1.722.694-1.098.499-1.927 1-2.49 1.506-.561.505-.84 1.245-.84 2.218v8.537c0 .6-.12 1.139-.357 1.62-.237.48-.568.848-.992 1.104a2.7 2.7 0 0 1-1.423.383c-.823 0-1.488-.283-1.994-.852-.505-.567-.758-1.32-.758-2.255M90 70.927V58.085h-1.236c-.749 0-1.339-.216-1.768-.646-.431-.43-.647-1.033-.647-1.807 0-.686.231-1.26.693-1.722.461-.461 1.036-.693 1.722-.693H90v-3.332c0-.936.252-1.687.758-2.256.506-.567 1.17-.852 1.994-.852.537 0 1.017.132 1.441.393.424.263.753.629.984 1.096.23.468.346 1.008.346 1.619v3.332h1.572c.76 0 1.391.197 1.891.59.499.393.748 1.002.748 1.825 0 .836-.245 1.455-.739 1.854-.493.4-1.126.599-1.9.599h-1.572v12.842c0 .6-.119 1.139-.356 1.62-.237.48-.568.848-.992 1.104-.425.256-.9.383-1.423.383-.824 0-1.488-.283-1.994-.852-.506-.567-.758-1.32-.758-2.255"/>
    </g>
</svg>
