<svg xmlns="http://www.w3.org/2000/svg" xmlns:xlink="http://www.w3.org/1999/xlink" width="110" height="88" viewBox="0 0 110 88">
    <defs>
        <path id="a" d="M.228.275h32.27v56.918H.228z"/>
        <path id="c" d="M32.5.275H.174v56.918H32.5V.275z"/>
        <path id="e" d="M.265.275h32.179v56.918H.265V.275z"/>
        <path id="g" d="M32.553.275H.191v56.918h32.362V.275z"/>
        <path id="i" d="M10.624 18.182H0V.128h10.624z"/>
        <path id="k" d="M12.411.127v13.258H.12V.127h12.292z"/>
    </defs>
    <g fill="none" fill-rule="evenodd">
        <path fill="#458B8D" d="M69.09 4.863l1.765-2.136 26.418 26.464-26.27 26.264-1.765-2.014L93.524 29.25 69.091 4.863"/>
        <path fill="#458B8D" d="M66.813 50.91l-1.995-2.308 19.985-20.274-20.258-20.59 2.31-2.283C73.966 12.729 89.09 28.12 89.09 28.12S74.034 43.515 66.813 50.91"/>
        <path fill="#458B8D" d="M62.996 47.273l-1.988-2.051 17.006-16.058L60.909 12.84l2.22-1.93 18.69 17.965-18.823 18.399"/>
        <path fill="#458B8D" d="M59.588 14.545l14.048 14.458L59.34 43.636l-1.88-1.92L69.83 29.2 57.273 16.483l2.315-1.938"/>
        <g transform="translate(12.727)">
            <mask id="b" fill="#fff">
                <use xlink:href="#a"/>
            </mask>
            <path fill="#458B8D" d="M32.497 57.193h-3.88S9.003 37.436.227 28.651C8.878 20.009 28.899.274 28.899.274l3.6.096S12.236 20.387 3.993 28.593c8.357 8.335 28.504 28.6 28.504 28.6" mask="url(#b)"/>
        </g>
        <g transform="translate(20)">
            <mask id="d" fill="#fff">
                <use xlink:href="#c"/>
            </mask>
            <path fill="#458B8D" d="M28.899.274h3.6S10.987 21.743 4.195 28.543c6.938 6.96 28.306 28.65 28.306 28.65h-3.618L.174 28.751 28.899.274z" mask="url(#d)"/>
        </g>
        <g transform="translate(28.182)">
            <mask id="f" fill="#fff">
                <use xlink:href="#e"/>
            </mask>
            <path fill="#458B8D" d="M28.715.274h3.729S9.743 22.951 4.017 28.542c5.836 5.76 28.217 28.651 28.217 28.651h-3.575S6.425 34.96.265 28.838C6.467 22.569 28.715.274 28.715.274" mask="url(#f)"/>
        </g>
        <g transform="translate(36.364)">
            <mask id="h" fill="#fff">
                <use xlink:href="#g"/>
            </mask>
            <path fill="#458B8D" d="M28.892 57.193S4.978 33.558.192 28.748c4.79-4.79 28.7-28.474 28.7-28.474h3.661S8.356 24.34 4.093 28.551c4.386 4.338 28.236 28.642 28.236 28.642h-3.437z" mask="url(#h)"/>
        </g>
        <g transform="translate(0 69.09)">
            <mask id="j" fill="#fff">
                <use xlink:href="#i"/>
            </mask>
            <path fill="#458B8D" d="M1.878 6.912c0 1.652.319 2.874.956 3.664.638.79 1.41 1.185 2.317 1.185.921 0 1.711-.409 2.368-1.228.657-.818.985-2.085.985-3.803 0-1.636-.321-2.861-.962-3.676-.642-.814-1.408-1.22-2.3-1.22-.883 0-1.664.432-2.344 1.3-.68.866-1.02 2.125-1.02 3.778zM0 18.182V.418h1.89v1.669c.445-.653.948-1.143 1.509-1.47.56-.326 1.24-.489 2.04-.489 1.045 0 1.967.282 2.765.847.799.564 1.402 1.36 1.81 2.388.407 1.028.61 2.154.61 3.38 0 1.313-.224 2.496-.674 3.549-.45 1.052-1.102 1.858-1.959 2.418s-1.757.84-2.702.84c-.691 0-1.312-.153-1.861-.459a4.29 4.29 0 0 1-1.354-1.16v6.25H0z" mask="url(#j)"/>
        </g>
        <path fill="#458B8D" d="M16.364 81.818V69.372h2.041v1.887c.522-.883 1.002-1.465 1.444-1.746a2.652 2.652 0 0 1 1.455-.422c.765 0 1.542.226 2.332.68l-.781 1.957c-.555-.305-1.11-.457-1.664-.457a2.255 2.255 0 0 0-2.18 1.57 7.678 7.678 0 0 0-.378 2.461v6.516h-2.27zM29.47 75.454c0 1.56.352 2.727 1.057 3.503.705.776 1.592 1.164 2.66 1.164 1.062 0 1.944-.39 2.65-1.17.704-.78 1.057-1.968 1.057-3.565 0-1.506-.355-2.647-1.064-3.423-.708-.776-1.59-1.164-2.642-1.164-1.07 0-1.956.387-2.66 1.159-.706.772-1.058 1.937-1.058 3.496m-2.197 0c0-2.254.649-3.925 1.948-5.01 1.084-.902 2.407-1.353 3.967-1.353 1.734 0 3.152.548 4.252 1.645 1.1 1.097 1.65 2.613 1.65 4.547 0 1.567-.243 2.799-.73 3.697a5.081 5.081 0 0 1-2.126 2.093 6.368 6.368 0 0 1-3.046.745c-1.766 0-3.193-.546-4.282-1.64-1.089-1.093-1.633-2.667-1.633-4.724M43.636 82.727v-1.75l7.845-9.299c-.89.048-1.674.072-2.355.072H44.1V70h10.073v1.427L47.5 79.503l-1.288 1.475a34.408 34.408 0 0 1 2.634-.108h5.698v1.857H43.636zM61.288 75.454c0 1.56.352 2.727 1.057 3.503.705.776 1.592 1.164 2.661 1.164 1.06 0 1.944-.39 2.649-1.17.705-.78 1.057-1.968 1.057-3.565 0-1.506-.355-2.647-1.064-3.423-.708-.776-1.589-1.164-2.642-1.164-1.069 0-1.956.387-2.66 1.159-.706.772-1.058 1.937-1.058 3.496m-2.197 0c0-2.254.65-3.925 1.948-5.01 1.085-.902 2.407-1.353 3.967-1.353 1.734 0 3.152.548 4.252 1.645 1.1 1.097 1.651 2.613 1.651 4.547 0 1.567-.243 2.799-.73 3.697a5.081 5.081 0 0 1-2.126 2.093 6.368 6.368 0 0 1-3.047.745c-1.766 0-3.193-.546-4.282-1.64-1.089-1.093-1.633-2.667-1.633-4.724M76.364 81.818V69.372h2.041v1.887c.522-.883 1.002-1.465 1.444-1.746a2.652 2.652 0 0 1 1.455-.422c.765 0 1.542.226 2.332.68l-.781 1.957c-.555-.305-1.11-.457-1.664-.457a2.255 2.255 0 0 0-2.18 1.57 7.678 7.678 0 0 0-.378 2.461v6.516h-2.27zM87.273 81.818V69.372h2.042v1.887c.52-.883 1.002-1.465 1.443-1.746a2.652 2.652 0 0 1 1.455-.422c.765 0 1.542.226 2.332.68l-.781 1.957c-.555-.305-1.11-.457-1.664-.457a2.255 2.255 0 0 0-2.18 1.57 7.678 7.678 0 0 0-.378 2.461v6.516h-2.27z"/>
        <g transform="translate(97.273 69.09)">
            <mask id="l" fill="#fff">
                <use xlink:href="#k"/>
            </mask>
            <path fill="#458B8D" d="M2.405 6.756c0 1.625.366 2.84 1.1 3.649.732.808 1.655 1.212 2.767 1.212 1.103 0 2.021-.406 2.754-1.218.733-.812 1.1-2.05 1.1-3.715 0-1.569-.369-2.757-1.106-3.565-.737-.808-1.653-1.213-2.748-1.213-1.112 0-2.035.403-2.768 1.207-.733.804-1.1 2.018-1.1 3.643m-2.285 0c0-2.349.676-4.09 2.026-5.22C3.274.596 4.65.126 6.272.126c1.803 0 3.278.572 4.422 1.715 1.145 1.142 1.717 2.721 1.717 4.736 0 1.632-.253 2.916-.76 3.852a5.29 5.29 0 0 1-2.21 2.18 6.615 6.615 0 0 1-3.17.776c-1.836 0-3.32-.569-4.453-1.708C.686 10.538.119 8.898.119 6.756" mask="url(#l)"/>
        </g>
    </g>
</svg>
