<svg xmlns="http://www.w3.org/2000/svg" width="102" height="25" viewBox="0 0 102 25">
    <path fill="#E55050" fill-rule="evenodd" d="M13.142 24.68l-1.01-4.496H6.588L5.578 24.68H0L5.996 0h7.007l5.96 24.68h-5.82zM9.447 5.369h-.14L7.217 15.861h4.218L9.447 5.368zm11.678 19.313V0h5.647v19.522h6.589v5.159H21.125zm25.692 0l-1.011-4.497h-5.543l-1.01 4.497h-5.578L39.67 0h7.006l5.961 24.68h-5.821zM43.122 5.368h-.14l-2.091 10.493h4.218L43.122 5.368zm28.864 7.042c0 1.86-.204 3.544-.61 5.055-.407 1.51-1.029 2.8-1.865 3.87-.837 1.068-1.9 1.893-3.19 2.474-1.29.581-2.818.872-4.584.872H54.8V0h6.937c1.766 0 3.294.29 4.584.871a8.245 8.245 0 0 1 3.19 2.493c.836 1.08 1.458 2.382 1.865 3.904.406 1.523.61 3.236.61 5.142zm-5.613 0c0-2.487-.424-4.363-1.272-5.63-.848-1.266-1.947-1.9-3.294-1.9h-1.36V19.8h1.36c1.347 0 2.446-.633 3.294-1.9.848-1.266 1.272-3.096 1.272-5.49zm8.994 12.27V0h5.612v24.68h-5.612zm20.672 0L90.322 9.657h-.105l.14 15.025h-4.985V0h6.135l5.682 15.234h.105L97.189 0H102v24.68h-5.961z"/>
</svg>
